<svg width="375" height="77" viewBox="0 0 375 77" fill="none" xmlns="http://www.w3.org/2000/svg">
<path d="M-22.9288 37.849C-22.7942 33.6317 -21.6926 29.687 -19.3206 25.8699C-20.4509 26.0501 -21.371 26.2049 -22.2117 26.3068C-22.4873 26.3185 -22.9076 26.3694 -22.9544 25.942C-23.0012 25.5145 -22.6463 25.4499 -22.3567 25.3715C-21.4506 25.2834 -20.5445 25.1953 -19.4936 25.068C-19.8861 24.0111 -20.769 23.3385 -21.3624 22.5875C-21.6333 22.2522 -22.1005 21.8757 -21.6755 21.4777C-21.2505 21.0798 -20.8768 21.5759 -20.6058 21.9112C-19.9097 22.823 -19.279 23.721 -18.5315 24.7132C-16.7571 22.4411 -14.7257 20.5709 -12.1244 19.238C-13.2828 18.5771 -14.3665 18.2103 -15.5575 18.0298C-16.0153 17.9336 -16.7112 17.9963 -16.5712 17.3297C-16.4452 16.7297 -15.7399 16.9475 -15.2822 17.0436C-14.2359 17.2633 -13.311 17.736 -12.3861 18.2086C-12.2039 18.3165 -12.0078 18.3577 -11.564 18.5205C-12.1247 17.2891 -12.5173 16.2323 -12.9752 15.1617C-13.1014 14.7872 -13.3443 14.3186 -12.8306 14.148C-12.3029 13.9109 -12.2187 14.4854 -12.0131 14.8069C-11.5412 15.8108 -11.1486 16.8677 -10.6767 17.8716C-10.5365 18.1794 -10.4383 18.6873 -9.8592 18.5305C-7.52865 17.8367 -5.09054 17.9312 -2.49364 17.9197C-4.98352 15.796 -5.43242 13.0569 -5.44698 10.2003C-5.45177 9.57287 -5.37717 8.89253 -4.65324 8.69656C-3.92932 8.50059 -3.55557 8.99669 -3.19582 9.55944C-2.71928 10.2163 -2.30814 10.8595 -1.83161 11.5163C-1.13551 12.4281 -0.285402 12.6067 0.681298 11.9049C1.23704 11.5344 1.72739 11.1502 2.29713 10.713C3.84758 9.50744 4.56689 9.6585 5.21179 11.4643C5.47815 12.1467 5.73051 12.8957 6.15565 13.4722C6.58079 14.0487 6.97315 14.1311 7.54289 13.6939C8.76177 12.7667 10.1722 12.2277 11.6715 11.9161C12.2366 11.826 12.8671 11.7496 13.2409 12.2457C13.68 12.7556 13.2784 13.3672 13.0357 13.8731C11.8078 16.4688 9.90715 18.3664 7.33382 19.566C7.432 20.0738 7.86635 19.9563 8.17932 20.0916C10.5942 20.9468 12.8877 22.0548 14.7657 23.8412C15.2842 24.2981 15.6112 24.3668 16.1296 23.8492C16.9795 23.0533 17.9836 22.4986 19.1278 22.2517C19.4828 22.1871 19.9032 22.1361 20.0153 22.5773C20.1789 23.0989 19.6932 23.136 19.4036 23.2144C18.3901 23.4888 17.3766 23.7631 16.5501 24.7728C17.8345 24.8337 18.9742 24.9339 20.0485 25.0203C20.4548 25.036 20.992 25.0792 20.9454 25.6262C20.9128 26.1066 20.3616 26.13 19.9693 26.0476C18.9604 25.975 17.8861 25.8886 16.6811 25.7747C18.1621 27.8257 19.2227 29.9277 19.7696 32.2001C20.1435 33.6707 20.3727 35.1804 20.2609 36.6881C20.2377 37.4488 20.4852 37.5704 21.1812 37.5078C21.8771 37.4451 22.573 37.3825 23.2549 37.3865C23.8061 37.3631 24.6608 37.1946 24.6516 37.8886C24.6424 38.5827 23.7923 38.4042 23.2271 38.4943C22.6106 38.504 21.9941 38.5137 21.3915 38.4568C20.7236 38.3861 20.6536 38.7194 20.8826 39.2547C21.1629 39.8704 21.5227 40.4331 21.803 41.0488C21.9946 41.437 21.99 41.7841 21.607 41.9821C21.2241 42.18 20.9391 41.9114 20.7335 41.5898C20.4766 41.1878 20.299 40.7329 20.0934 40.4114C19.7805 40.276 19.6871 40.3956 19.6591 40.529C18.6649 44.2874 16.6945 47.4928 14.3597 50.4825C13.7994 51.2 13.8742 51.4941 14.6309 51.7922C15.2054 51.9825 15.7659 52.2394 16.3265 52.4963C16.7048 52.6454 17.2 52.8886 16.9712 53.3277C16.8218 53.7139 16.2847 53.6707 15.9203 53.455C15.1776 53.0902 14.4349 52.7255 13.6922 52.3607C13.5894 52.1999 13.4726 52.1058 13.3138 52.2116C13.2344 52.2646 13.2718 52.4116 13.3092 52.5587C13.7158 53.5488 14.2017 54.4861 14.5288 55.5292C14.641 55.9704 15.2623 56.588 14.445 56.9036C13.7725 57.18 13.5855 56.4447 13.408 55.9898C13.0528 55.08 12.7771 54.1173 12.4359 53.1408C11.9036 53.725 11.4646 54.1897 11.0116 54.721C8.74686 57.3773 5.98214 59.1631 2.88108 60.5999C1.97037 61.035 1.06428 61.1231 0.0693918 60.9838C-5.06381 60.3929 -9.97764 59.0826 -14.8589 57.2919C-16.1247 56.8172 -16.9376 55.8113 -17.6851 54.8191C-20.4415 51.0386 -22.1425 46.7838 -22.8019 42.1213C-22.8627 41.7605 -22.6713 41.1743 -23.129 41.0782C-23.5074 40.9291 -23.7502 41.4349 -24.0818 41.7133C-24.6655 42.2171 -25.2118 42.868 -25.9638 43.1972C-26.1879 43.2894 -26.5195 43.5677 -26.7765 43.1658C-26.982 42.8442 -26.7159 42.5521 -26.4777 42.3933C-25.511 41.6915 -24.5443 40.9897 -23.5776 40.288C-22.7837 39.7587 -22.8958 39.3175 -23.7973 39.0586C-24.4373 38.8546 -25.1052 38.7839 -25.6937 38.6603C-26.0207 38.5917 -26.5064 38.6289 -26.4738 38.1485C-26.4412 37.6682 -25.8761 37.578 -25.5491 37.6467C-24.8298 37.7978 -24.1245 38.0155 -23.4192 38.2332C-22.9614 38.3294 -22.868 38.2098 -22.9288 37.849ZM1.24148 59.6291C4.05777 58.8982 6.49092 57.3908 8.61571 55.401C11.8706 52.2565 14.6583 48.7356 16.7967 44.7302C19.3647 39.9799 19.9943 35.0313 17.7141 29.9588C15.1301 24.0569 10.1273 21.5447 4.25596 20.242C9.25894 23.7287 14.1311 27.188 13.9176 34.3816C14.8797 34.0268 15.711 33.6446 16.5797 33.4094C16.8693 33.331 17.2383 33.1997 17.3505 33.6409C17.4252 33.935 17.1217 34.08 16.8975 34.1722C16.3698 34.4093 15.842 34.6465 15.2629 34.8033C14.3148 35.0914 14.0206 35.5168 13.9274 36.6108C13.7508 41.0281 12.6726 45.1865 10.5622 49.0585C8.28837 53.3834 4.9915 56.7279 1.0593 59.5213C0.914516 59.5605 0.783734 59.533 0.886519 59.6938C0.965911 59.6409 1.11069 59.6017 1.24148 59.6291ZM3.69561 20.9596C3.59282 20.7988 3.47605 20.7047 3.31726 20.8105C3.31726 20.8105 3.42004 20.9713 3.47143 21.0517C5.46194 25.2281 6.29417 29.7181 6.07092 34.6825C6.72006 34.1924 7.07962 33.7807 7.54197 33.5298C8.08372 33.226 8.99902 32.4438 9.31678 33.2065C9.69992 33.983 8.58365 34.0966 8.0559 34.3337C6.71085 34.8865 5.92632 35.6961 5.72112 37.3234C5.2083 42.3661 3.40163 47.0675 1.23061 51.5532C0.0167082 54.0823 -1.45876 56.5564 -2.85484 58.9776C-1.23403 59.3876 -1.23404 59.3876 -0.374727 58.8721C3.92183 56.2944 7.24671 52.8167 9.61391 48.3722C9.84269 47.933 10.1882 47.588 9.98728 46.9194C9.59032 47.184 9.27276 47.3957 8.8898 47.5937C8.34806 47.8975 7.65693 48.5876 7.31118 47.9582C6.90003 47.315 7.84812 47.0269 8.32447 46.7094C8.64204 46.4977 8.93162 46.4193 9.24918 46.2076C9.85632 45.9175 10.4121 45.547 11.178 45.151C10.0429 44.7039 9.11343 44.5783 8.22133 44.5997C7.88037 44.5977 7.39461 44.6349 7.34783 44.2075C7.32904 43.6467 7.88018 43.6233 8.22114 43.6253C8.99646 43.5097 9.79516 43.6078 10.5379 43.9726C11.2152 44.3237 11.5328 44.112 11.6867 43.3787C12.3495 40.8731 12.8021 38.3929 12.8623 35.8303C12.9316 31.5993 12.1041 27.7367 8.81076 24.8874C7.24116 23.5834 5.55478 22.1852 3.69561 20.9596ZM-0.819581 52.8626C-1.41272 53.0861 -2.07125 53.2958 -2.66438 53.5192C-2.95395 53.5976 -3.4023 53.7819 -3.57987 53.327C-3.75744 52.8721 -3.30909 52.6878 -2.95413 52.6232C-2.21621 52.3605 -1.4129 52.1116 -0.544194 51.8765C-1.17951 51.3255 -1.87543 51.3881 -2.46396 51.2645C-2.79093 51.1958 -3.10389 51.0605 -3.09929 50.7135C-3.01529 50.3135 -2.66032 50.2489 -2.39876 50.3038C-1.74483 50.4411 -0.946129 50.5393 -0.385597 50.7962C0.343113 51.2276 0.543903 50.9218 0.880072 50.2964C2.55614 46.542 3.90524 42.7189 4.61443 38.6918C4.71242 38.2252 4.88982 37.7056 4.67485 37.1037C3.92293 37.433 3.2364 37.776 2.56387 38.0524C2.26031 38.1974 1.73256 38.4346 1.58299 37.8464C1.47081 37.4052 1.90516 37.2876 2.27412 37.1563C3.17083 36.7878 4.17031 36.5801 4.99223 35.9175C4.03455 34.9508 2.87149 34.6369 1.78782 34.2702C1.47486 34.1348 0.886323 34.0112 1.06371 33.4917C1.2411 32.9721 1.73625 33.2153 2.06321 33.284C3.10948 33.5037 3.96437 34.3097 5.02004 34.8098C5.25729 29.7788 4.38767 25.1417 2.24298 20.7241C1.77105 19.7202 1.46749 19.8652 0.893138 20.6494C-2.38495 24.5546 -4.86893 28.9049 -6.55882 33.7005C-7.58115 36.6178 -8.27652 39.6038 -8.63093 42.5917C-8.26657 42.8075 -8.14518 42.5545 -7.921 42.4624C-7.26247 42.2527 -6.48735 41.1627 -6.05282 42.0196C-5.70706 42.649 -6.93073 42.9488 -7.47247 43.2526C-9.01831 44.1112 -9.0043 44.0445 -7.82706 45.2662C-7.38792 45.776 -6.34625 46.3428 -6.8646 46.8603C-7.55573 47.5504 -8.06505 46.3994 -8.58359 45.9425C-8.63498 45.8621 -8.71437 45.915 -8.84515 45.8876C-8.85915 45.9542 -8.95255 46.0738 -8.90115 46.1542C-9.18998 50.1304 -8.34854 53.9263 -7.79666 57.8006C-7.77327 58.0143 -7.65648 58.1084 -7.5257 58.1359C-6.34864 58.3831 -5.23697 58.6166 -4.0599 58.8638C-3.66755 58.9462 -3.59755 58.6129 -3.39677 58.307C-2.48165 56.5504 -1.51513 54.8742 -0.600006 53.1176C-0.506613 52.998 -0.347829 52.8921 -0.516008 52.7176C-0.530008 52.7843 -0.674798 52.8235 -0.819581 52.8626ZM-8.79155 57.6613C-10.1003 52.5144 -10.3862 47.3735 -9.70059 42.1583C-9.00099 36.8764 -7.4139 31.9201 -4.75252 27.0502C-5.62123 27.2854 -6.12097 27.3892 -6.70011 27.546C-6.91028 27.5714 -7.05507 27.6106 -7.14385 27.3832C-7.28403 27.0753 -7.12525 26.9695 -6.90107 26.8774C-6.30794 26.6539 -5.64941 26.4442 -4.91149 26.1816C-5.49542 25.711 -5.96255 25.3345 -6.4297 24.958C-6.71466 24.6893 -7.11641 24.3265 -6.83624 23.9678C-6.46267 23.4894 -6.07492 23.9189 -5.73857 24.2679C-5.35082 24.6973 -4.94907 25.0601 -4.56132 25.4895C-4.34175 25.7445 -4.10818 25.9327 -3.8794 25.4935C-2.60471 23.3252 -1.03105 21.3589 0.673383 19.4201C-4.6466 19.0684 -13.3049 25.1845 -14.2335 29.9311C-13.561 29.6547 -12.9024 29.445 -12.2439 29.2353C-11.8096 29.1177 -11.151 28.908 -11.0014 29.4963C-10.9033 30.0041 -11.5338 30.0805 -11.9681 30.198C-12.5473 30.3548 -13.061 30.5253 -13.6262 30.6154C-14.7704 30.8623 -14.8824 31.3956 -14.2657 32.3603C-13.9574 32.8427 -13.2333 33.6212 -13.8544 33.9779C-14.6343 34.4405 -14.6579 33.2524 -15.0456 32.8229C-15.097 32.7425 -15.1764 32.7955 -15.3072 32.768C-15.9326 35.4207 -16.0862 38.1028 -16.1604 40.732C-16.2433 46.9787 -14.4814 52.5687 -10.2022 57.2258C-9.73504 57.6023 -9.34269 57.6847 -8.79155 57.6613ZM-3.61433 19.3548C-9.79842 18.8913 -14.6555 21.212 -17.966 26.572C-22.9762 34.4982 -22.3434 46.1152 -16.4662 53.8919C-14.9712 55.8763 -13.9949 56.4293 -11.6642 56.71C-14.3505 53.5706 -15.9812 49.9569 -16.4911 45.8826C-16.7764 43.6651 -16.973 41.675 -19.5887 41.1257C-19.8502 41.0708 -20.2006 40.7884 -20.0512 40.4021C-19.8878 39.9492 -19.4814 39.965 -19.1825 40.167C-18.4398 40.5318 -17.7625 40.8828 -16.8516 41.4221C-17.1338 31.062 -13.9966 22.9512 -3.61433 19.3548ZM-3.89617 10.9436C-4.38117 14.8785 -1.54554 17.6316 3.71385 18.597C6.99746 19.217 11.4294 16.3197 12.2742 12.9475C10.7235 13.1787 9.37848 13.7314 8.15961 14.6586C7.02012 15.5329 6.17002 15.3544 5.31973 14.2014C4.94599 13.7053 4.60024 13.0759 4.38527 12.474C3.81516 10.9622 3.81515 10.9622 2.64767 11.9699C0.0605295 14.2105 -1.4061 14.0417 -3.49442 11.3063C-3.5972 11.1456 -3.71399 11.0514 -3.89617 10.9436Z" fill="#4A6D39"/>
<path d="M353.413 45.8487C352.678 41.6937 352.946 37.6069 354.483 33.3838C353.413 33.7925 352.545 34.133 351.743 34.4055C351.476 34.4736 351.075 34.6098 350.941 34.2012C350.808 33.7925 351.142 33.6562 351.409 33.52C352.278 33.2476 353.146 32.9751 354.148 32.6345C353.547 31.6809 352.545 31.2041 351.81 30.5911C351.476 30.3186 350.941 30.0462 351.275 29.5694C351.609 29.0926 352.077 29.5013 352.411 29.7737C353.28 30.523 354.082 31.2722 355.017 32.0896C356.287 29.5013 357.89 27.2535 360.162 25.4144C358.893 25.0057 357.757 24.8695 356.554 24.9376C356.086 24.9376 355.418 25.1419 355.418 24.4608C355.418 23.8478 356.153 23.9159 356.621 23.9159C357.69 23.9159 358.692 24.1883 359.694 24.4608C359.895 24.5289 360.095 24.5289 360.563 24.597C359.761 23.5072 359.16 22.5536 358.492 21.6C358.291 21.2594 357.957 20.8507 358.425 20.5783C358.893 20.2377 359.093 20.7826 359.36 21.0551C360.029 21.9406 360.63 22.8942 361.298 23.7797C361.499 24.0521 361.699 24.5289 362.234 24.2565C364.372 23.0985 366.777 22.6898 369.316 22.1449C366.443 20.5783 365.441 17.9899 364.839 15.1972C364.706 14.5842 364.639 13.9031 365.307 13.5625C365.975 13.2219 366.443 13.6306 366.911 14.1074C367.512 14.6523 368.047 15.1972 368.648 15.7422C369.517 16.4914 370.385 16.4914 371.187 15.6059C371.655 15.1291 372.056 14.6523 372.524 14.1074C373.793 12.6089 374.528 12.6089 375.531 14.2436C375.931 14.8567 376.332 15.5378 376.867 16.0146C377.401 16.4914 377.802 16.4914 378.27 15.9465C379.272 14.7886 380.542 13.9712 381.945 13.3582C382.48 13.1538 383.081 12.9495 383.549 13.3582C384.083 13.7668 383.816 14.448 383.682 14.9929C383.014 17.7856 381.544 20.0334 379.272 21.7362C379.473 22.213 379.874 22.0087 380.208 22.0768C382.747 22.4174 385.219 23.0304 387.424 24.3927C388.026 24.7333 388.36 24.7333 388.761 24.1202C389.429 23.1666 390.297 22.4174 391.367 21.9406C391.701 21.8043 392.102 21.6681 392.302 22.0768C392.569 22.5536 392.102 22.6898 391.834 22.8261C390.899 23.3029 389.963 23.7797 389.362 24.9376C390.632 24.7333 391.767 24.597 392.837 24.4608C393.237 24.3927 393.772 24.3246 393.839 24.8695C393.906 25.3463 393.371 25.4825 392.97 25.4825C391.968 25.6187 390.899 25.755 389.696 25.8912C391.567 27.5941 393.037 29.4332 394.039 31.5447C394.708 32.907 395.242 34.3374 395.443 35.8359C395.576 36.5852 395.843 36.6533 396.512 36.4489C397.18 36.2446 397.848 36.0402 398.516 35.904C399.051 35.7678 399.853 35.4272 399.986 36.1084C400.12 36.7895 399.251 36.7895 398.717 36.9938C398.115 37.1301 397.514 37.2663 396.913 37.3344C396.244 37.4025 396.244 37.7431 396.578 38.2199C396.979 38.7648 397.447 39.2416 397.848 39.7865C398.115 40.1271 398.182 40.4677 397.848 40.7401C397.514 41.0126 397.18 40.8083 396.913 40.5358C396.578 40.1952 396.311 39.7865 396.044 39.5141C395.71 39.446 395.643 39.5822 395.643 39.7184C395.443 43.6009 394.173 47.1429 392.502 50.5486C392.102 51.366 392.235 51.6384 393.037 51.7747C393.638 51.8428 394.24 51.979 394.841 52.1152C395.242 52.1834 395.777 52.3196 395.643 52.7964C395.576 53.2051 395.042 53.2732 394.641 53.137C393.839 52.9326 393.037 52.7283 392.235 52.5239C392.102 52.3877 391.968 52.3196 391.834 52.4558C391.767 52.5239 391.834 52.6602 391.901 52.7964C392.502 53.6819 393.171 54.4992 393.705 55.4528C393.906 55.8615 394.641 56.3383 393.906 56.8151C393.304 57.2238 392.97 56.5427 392.703 56.134C392.168 55.3166 391.701 54.4311 391.166 53.5456C390.765 54.2268 390.431 54.7717 390.097 55.3847C388.427 58.4499 386.088 60.7658 383.348 62.8092C382.546 63.4222 381.678 63.6947 380.676 63.7628C375.531 64.2396 370.452 63.9671 365.307 63.2179C363.971 63.0135 362.969 62.1962 362.033 61.3788C358.559 58.2455 356.019 54.4311 354.416 50.0037C354.282 49.6631 354.349 49.0501 353.881 49.0501C353.48 48.982 353.347 49.5269 353.079 49.8675C352.612 50.4805 352.211 51.2297 351.543 51.7065C351.342 51.8428 351.075 52.1833 350.741 51.8428C350.473 51.5703 350.674 51.2297 350.874 51.0254C351.676 50.1399 352.478 49.2544 353.28 48.3689C353.948 47.6878 353.748 47.2791 352.812 47.211C352.144 47.1429 351.476 47.211 350.874 47.211C350.54 47.211 350.073 47.3472 350.006 46.8704C349.939 46.3936 350.473 46.1893 350.808 46.1893C351.543 46.1893 352.278 46.2574 353.013 46.3255C353.48 46.3255 353.547 46.1893 353.413 45.8487ZM381.544 62.1962C384.15 60.902 386.222 58.9267 387.892 56.5427C390.431 52.7964 392.436 48.7776 393.705 44.4183C395.242 39.2416 394.841 34.2693 391.567 29.7737C387.825 24.5289 382.413 23.0985 376.399 23.0304C382.012 25.4144 387.491 27.7984 388.761 34.8823C389.629 34.3374 390.364 33.7925 391.166 33.3838C391.433 33.2476 391.767 33.0432 391.968 33.4519C392.102 33.7243 391.834 33.9287 391.634 34.0649C391.166 34.4055 390.698 34.7461 390.164 35.0185C389.295 35.4953 389.095 35.9721 389.228 37.062C389.963 41.4213 389.763 45.7125 388.493 49.9356C387.157 54.6355 384.618 58.5861 381.344 62.128C381.21 62.1962 381.076 62.1962 381.21 62.3324C381.277 62.2643 381.411 62.1962 381.544 62.1962ZM375.998 23.8478C375.865 23.7115 375.731 23.6434 375.597 23.7797C375.597 23.7797 375.731 23.9159 375.798 23.984C378.604 27.6622 380.341 31.8853 381.143 36.7895C381.678 36.1765 381.945 35.6997 382.346 35.3591C382.814 34.9504 383.549 33.9968 384.016 34.678C384.551 35.3591 383.482 35.6997 383.014 36.0402C381.811 36.8576 381.21 37.8112 381.344 39.446C381.878 44.4864 381.076 49.4588 379.874 54.2949C379.206 57.0195 378.27 59.744 377.401 62.4005C379.072 62.4686 379.072 62.4686 379.807 61.7875C383.482 58.3818 386.021 54.2949 387.424 49.4588C387.558 48.982 387.825 48.5733 387.491 47.9603C387.157 48.3008 386.89 48.5733 386.556 48.8457C386.088 49.2544 385.553 50.0718 385.086 49.5269C384.551 48.982 385.42 48.5052 385.821 48.0965C386.088 47.824 386.355 47.6878 386.622 47.4153C387.157 47.0067 387.625 46.5299 388.293 45.9849C387.09 45.7806 386.155 45.8487 385.286 46.0531C384.952 46.1212 384.484 46.2574 384.351 45.8487C384.217 45.3038 384.752 45.1676 385.086 45.0995C385.821 44.827 386.622 44.7589 387.424 44.9632C388.159 45.1676 388.427 44.8951 388.427 44.1459C388.56 41.5575 388.493 39.0373 388.026 36.517C387.224 32.3621 385.62 28.752 381.811 26.6405C380.007 25.6869 378.07 24.6651 375.998 23.8478ZM378.136 55.9978C377.602 56.3383 377.001 56.6789 376.466 57.0195C376.199 57.1557 375.798 57.4282 375.531 57.0195C375.263 56.6108 375.664 56.3383 375.998 56.2021C376.666 55.7934 377.401 55.3847 378.203 54.976C377.468 54.5674 376.8 54.7717 376.199 54.7717C375.865 54.7717 375.531 54.7036 375.464 54.363C375.464 53.9543 375.798 53.8181 376.065 53.8181C376.733 53.8181 377.535 53.75 378.136 53.8862C378.938 54.1587 379.072 53.8181 379.272 53.137C380.141 49.1182 380.676 45.0995 380.542 41.0126C380.542 40.5358 380.609 39.9909 380.275 39.446C379.606 39.9228 379.005 40.3996 378.404 40.8082C378.136 41.0126 377.669 41.3532 377.401 40.8082C377.201 40.3996 377.602 40.1952 377.936 39.9909C378.738 39.446 379.673 39.0373 380.341 38.2199C379.206 37.4706 378.003 37.4025 376.867 37.2663C376.533 37.1982 375.931 37.1982 375.998 36.6533C376.065 36.1084 376.6 36.2446 376.934 36.2446C378.003 36.2446 379.005 36.8576 380.141 37.1301C379.339 32.1577 377.535 27.7984 374.528 23.9159C373.86 23.0304 373.593 23.2347 373.192 24.1202C370.786 28.6158 369.25 33.3838 368.581 38.4242C368.18 41.4894 368.114 44.5545 368.381 47.5516C368.782 47.6878 368.849 47.4153 369.049 47.2791C369.65 46.9385 370.185 45.7125 370.786 46.4617C371.254 47.0067 370.118 47.5516 369.65 47.9603C368.314 49.1182 368.314 49.0501 369.717 50.0037C370.252 50.4124 371.388 50.7529 370.987 51.366C370.452 52.1833 369.717 51.1616 369.116 50.8211C369.049 50.7529 368.982 50.8211 368.849 50.8211C368.849 50.8892 368.782 51.0254 368.849 51.0935C369.383 55.0442 370.987 58.5861 372.323 62.2643C372.39 62.4686 372.524 62.5367 372.657 62.5367C373.86 62.5367 374.996 62.5367 376.199 62.5367C376.6 62.5367 376.6 62.1962 376.733 61.8556C377.268 59.9484 377.869 58.1093 378.404 56.2021C378.471 56.0659 378.604 55.9296 378.404 55.7934C378.404 55.8615 378.27 55.9296 378.136 55.9978ZM371.321 62.3324C368.982 57.5644 367.646 52.592 367.245 47.3472C366.844 42.0343 367.379 36.8576 368.982 31.5447C368.18 31.9534 367.713 32.1577 367.178 32.4302C366.978 32.4983 366.844 32.5664 366.71 32.3621C366.51 32.0896 366.644 31.9534 366.844 31.8172C367.379 31.4766 367.98 31.136 368.648 30.7273C367.98 30.3867 367.445 30.1143 366.911 29.8418C366.577 29.6375 366.109 29.365 366.31 28.9564C366.577 28.4114 367.045 28.752 367.445 29.0245C367.913 29.365 368.381 29.6375 368.849 29.9781C369.116 30.1824 369.383 30.3186 369.517 29.8418C370.319 27.4578 371.455 25.2101 372.724 22.9623C367.445 23.7115 360.229 31.4766 360.296 36.3127C360.897 35.904 361.499 35.5634 362.1 35.2229C362.501 35.0185 363.102 34.678 363.369 35.2229C363.57 35.6997 362.969 35.904 362.568 36.1084C362.033 36.3808 361.565 36.6533 361.031 36.8576C359.962 37.3344 359.962 37.8793 360.764 38.6967C361.164 39.1054 362.033 39.7184 361.499 40.1952C360.83 40.8083 360.563 39.6503 360.095 39.3097C360.029 39.2416 359.962 39.3097 359.828 39.3097C359.761 42.0343 360.162 44.6908 360.63 47.2791C361.833 53.4094 364.706 58.518 369.851 62.1962C370.385 62.4686 370.786 62.4686 371.321 62.3324ZM368.515 23.7797C362.367 24.597 358.091 27.8665 355.953 33.7925C352.678 42.5792 355.685 53.8181 363.035 60.2208C364.906 61.8556 365.975 62.1962 368.314 61.9918C365.04 59.4716 362.701 56.2702 361.365 52.3877C360.63 50.2761 360.029 48.3689 357.356 48.3689C357.089 48.3689 356.688 48.1646 356.754 47.7559C356.821 47.2791 357.222 47.211 357.556 47.3472C358.358 47.5516 359.093 47.7559 360.095 48.0965C357.69 38.0156 359.093 29.4331 368.515 23.7797ZM366.51 15.6059C366.844 19.5566 370.185 21.6681 375.531 21.5319C378.871 21.4638 382.613 17.7175 382.747 14.2436C381.277 14.7886 380.074 15.6059 379.072 16.7639C378.136 17.8537 377.268 17.8537 376.199 16.9001C375.731 16.4914 375.263 15.9465 374.929 15.4016C374.06 14.0393 374.06 14.0393 373.125 15.2654C371.054 17.9899 369.584 18.1262 366.978 15.8784C366.844 15.7422 366.71 15.674 366.51 15.6059Z" fill="#4A6D39"/>
<path d="M112.877 59.9477C112.5 57.568 111.985 55.3391 112.036 53.0219C112.062 51.7482 112.156 50.5142 112.624 49.357C112.94 48.5268 112.871 48.2567 111.917 47.9839C106.416 46.5203 102.248 41.0847 102.225 35.5036C102.234 33.0244 102.977 30.8749 104.908 29.2256C105.446 28.7991 105.473 28.4466 105.375 27.8381C104.749 25.177 105.298 22.7319 106.841 20.4913C108.095 18.7284 109.738 18.0174 111.452 18.4977C113.221 18.9638 114.592 20.6268 114.802 22.5886C114.986 24.6726 114.215 26.4837 113.251 28.2296C113.1 28.5565 112.851 28.7357 113.253 29.1507C116.975 32.8577 118.752 37.4691 119.092 42.6806C119.121 43.4795 119.287 43.6671 120.074 43.522C121.552 43.3143 122.976 43.5814 124.317 44.2152C124.87 44.5336 125.091 44.4767 125.339 43.837C125.971 42.1765 126.798 40.5814 127.914 39.1995C129.334 37.3939 131.045 36.0319 133.393 35.5426C133.835 35.4288 133.986 35.3321 133.972 34.8175C133.98 31.6474 135.911 29.5375 138.381 27.9223C140.341 26.6114 142.622 27.4641 143.316 29.7044C144.205 32.4707 143.491 34.9585 141.215 36.8694C140.387 37.5433 140.332 38.0181 140.873 38.9733C142.439 41.623 141.781 44.7875 139.285 47.4461C136.941 50.008 134.042 51.5608 130.589 52.1042C129.857 52.2351 129.733 52.4398 129.803 53.1705C130.197 57.2162 129.693 61.2052 129.382 65.2596C129.301 66.5475 128.308 67.2641 127.093 67.577C122.798 68.7404 118.475 69.7957 114.181 70.959C111.875 71.6104 110.009 70.9965 108.293 69.595C106.273 67.9264 104.557 66.0643 103.572 63.6108C102.683 61.3051 103.315 58.9537 105.178 57.7253C107.082 56.4286 109.279 56.7269 111.299 58.3955C111.77 58.8504 112.158 59.4417 112.877 59.9477ZM106.796 58.7486C106.493 59.1723 105.856 58.2995 105.747 59.0188C105.61 59.8604 105.432 60.7703 106.234 61.3701C107.189 62.1035 107.577 63.1554 107.966 64.2073C108.216 64.9494 108.618 65.5947 109.378 65.8022C110.898 66.2171 111.867 67.2348 112.671 68.5255C113.086 69.2249 113.778 69.6228 114.634 69.5175C114.855 69.4606 115.159 69.4976 115.076 69.1734C114.618 67.8514 114.808 66.3047 113.342 65.415C112.443 64.8977 111.82 64.0789 111.39 63.0952C111.127 62.5295 110.85 61.9097 110.214 61.7278C108.444 61.2618 107.82 59.7521 106.796 58.7486C107.459 58.578 107.722 59.1437 108.11 59.5047C109.84 61.1905 111.694 62.6716 113.203 64.6445C114.075 65.7447 115.196 66.6658 115.406 68.1669C115.559 69.2217 116.057 69.5543 117.12 68.8775C115.819 67.4845 115.084 65.773 114.142 64.1725C113.158 62.4098 112.063 60.6757 110.472 59.2998C109.49 58.4583 108.48 57.9694 107.127 58.2027C106.616 58.2767 106.657 58.4387 106.796 58.7486ZM123.296 45.0541C123.213 44.9603 123.144 44.9205 123.047 45.0029C123.006 45.0712 123.089 45.165 123.117 45.273C123.588 46.1885 123.328 47.4651 124.282 48.1985C125.873 49.3441 125.986 50.9277 125.602 52.6393C125.507 53.1824 125.356 53.7396 125.66 54.2372C126.408 55.3118 126.41 56.4632 126.081 57.7001C125.751 58.9369 125.753 60.0883 126.391 61.1914C126.723 61.7969 126.794 62.5276 126.85 63.2043C126.935 64.2193 126.785 65.2371 126.704 66.2948C127.601 66.1213 128.029 65.7232 128.11 64.8958C128.137 64.313 128.219 63.7159 128.245 63.133C128.433 59.5137 129.034 55.9028 128.407 52.3205C127.89 49.1704 126.642 46.3814 123.296 45.0541ZM116.003 46.2405C114.017 47.6737 113.371 49.7408 113.195 52.0324C112.994 55.3674 113.814 58.5545 114.635 61.7415C115.302 64.1041 116.217 66.2875 117.575 68.3572C118.074 69.1503 118.722 68.4651 119.219 68.3371C119.771 68.1948 119.26 67.8082 119.093 67.6206C118.373 66.654 118.026 65.5339 118.065 64.3142C118.078 63.6773 118.063 62.9324 117.579 62.4235C115.904 60.4932 115.775 58.1647 115.937 55.8191C116.032 54.8155 115.989 53.9625 115.518 53.0471C115.199 52.4955 115.018 51.7933 115.197 51.1138C115.553 49.5244 115.924 47.9891 116.28 46.3997C116.308 46.2775 116.625 46.1381 116.418 46.0187C116.279 45.9391 116.086 46.1041 116.003 46.2405ZM114.139 46.3175C114.566 45.9194 114.966 45.4133 115.49 45.163C116.595 44.6483 116.359 43.9603 115.929 43.2069C115.735 42.9113 115.555 42.6696 115.32 42.4422C114.338 41.6007 113.935 40.4948 113.85 39.2495C113.794 38.5728 113.572 37.9388 113.046 37.4982C112.16 36.8046 111.813 35.9147 111.881 34.8031C111.948 33.6914 111.504 32.884 110.398 32.4775C109.61 32.1621 109.167 31.5849 108.959 30.7747C108.875 30.4506 108.737 30.1407 108.612 29.8848C108.348 29.3191 107.878 28.8642 107.242 28.9126C106.607 28.961 106.345 29.5468 106.194 30.104C105.755 31.8299 105.731 33.5642 106.548 35.1392C106.923 35.9068 107.173 36.6488 107.202 37.4477C107.217 38.1926 107.494 38.8124 108.213 39.0881C109.001 39.4036 109.458 40.0347 109.418 40.7939C109.394 42.7585 110.611 43.8274 112.132 44.7029C112.755 45.061 113.584 45.3083 113.862 46.1583C112.674 46.1187 112.009 45.1379 111.11 44.6205C109.741 43.8786 108.979 42.75 108.976 41.1379C108.961 40.393 108.629 39.7875 107.896 39.4578C107.039 39.1025 106.692 38.4429 106.635 37.536C106.579 36.8593 106.509 36.1286 106.121 35.5373C105.622 34.7441 105.524 33.9054 105.412 33.0127C105.313 31.9436 105.491 30.8035 105.696 29.5411C103.875 31.162 103.119 33.0271 103.067 35.114C102.938 40.3312 106.759 45.3375 111.957 46.9945C113.118 47.3867 113.74 47.2842 114.139 46.3175ZM124.798 66.9006C125.115 66.531 126.055 66.9801 126.178 66.0845C126.383 64.5918 126.629 63.0309 125.977 61.6435C125.312 60.2021 125.35 58.7521 125.735 57.2708C125.913 56.5912 126.078 55.8577 125.676 55.2123C124.914 54.0837 124.981 52.972 125.256 51.7495C125.461 50.7174 125.39 49.7564 124.45 49.077C123.633 48.4232 123.19 47.6158 123.091 46.5468C123.049 46.1544 122.897 45.7905 122.689 45.4408C122.204 44.4714 121.251 44.6591 120.422 44.6422C119.662 44.665 119.871 45.4753 119.692 45.9245C119.582 46.1832 119.555 46.5358 119.624 46.8059C120.32 49.5068 120.559 52.2675 121.02 54.9712C121.034 55.0253 121.061 55.1333 121.075 55.1873C121.658 56.5349 121.909 57.9678 121.704 59.4605C121.582 60.3561 121.624 61.209 122.123 62.0022C122.857 63.0228 123.011 64.0776 122.806 65.34C122.588 67.0089 123.044 67.4097 124.798 66.9006ZM119.621 44.7332C118.778 44.8926 118.143 44.941 117.674 45.4073C116.639 46.4224 115.432 51.1109 115.904 52.4869C115.945 52.649 115.973 52.757 116.07 52.9049C116.611 53.8601 116.64 54.8893 116.518 56.0152C116.314 57.9685 116.524 59.9302 117.715 61.5819C118.283 62.4149 118.741 63.2763 118.715 64.3198C118.675 65.5395 119.161 66.5089 119.825 67.4897C120.615 68.7264 121.484 67.7539 122.285 67.6629C123.252 67.5291 122.394 66.9436 122.476 66.5768C122.586 66.0877 122.502 65.5333 122.557 65.0585C122.68 64.1629 122.595 63.3782 122.11 62.6391C121.46 61.7123 121.292 60.6035 121.414 59.4776C121.578 58.2834 121.452 57.1064 120.994 56.0147C120.425 54.7211 120.243 53.328 120.296 51.932C120.336 51.1729 120.211 50.4564 119.919 49.7826C119.253 48.1109 118.905 46.5302 119.621 44.7332ZM128.815 49.1049C129.601 48.0386 130.706 47.7542 131.783 47.592C132.239 47.5322 132.681 47.4185 133.054 47.2649C133.592 47.0686 136.349 43.3637 136.389 42.8349C136.401 41.7374 136.911 40.9725 137.67 40.2588C138.291 39.6958 138.455 38.9623 138.247 38.152C138.08 37.5038 137.582 37.1712 137.057 37.1911C135.91 37.3135 134.695 37.6264 134.089 38.704C133.51 39.6594 132.71 40.2111 131.688 40.5893C130.874 40.8567 129.949 41.3828 130.02 42.3438C130.132 43.6971 129.402 44.5188 128.422 45.2894C127.65 45.9492 127.195 46.6998 127.984 47.7062C128.289 47.9734 128.483 48.4994 128.815 49.1049ZM107.822 28.6481C108.873 29.0688 109.164 29.7426 109.359 30.4988C109.526 31.1471 109.858 31.7526 110.508 31.9885C112.001 32.5257 112.404 33.6316 112.351 35.0276C112.311 35.7867 112.547 36.4748 113.197 36.941C113.944 37.555 114.277 38.3908 114.403 39.3376C114.487 40.1223 114.585 40.961 115.208 41.5494C115.845 42.1919 116.44 42.9026 116.787 43.7925C116.953 44.2104 117.174 44.1535 117.561 44.054C118.21 43.8293 118.029 43.3574 118.043 42.9508C117.983 40.2015 117.37 37.5944 116.192 35.0755C115.373 33.2702 114.403 31.5616 112.978 30.143C111.608 28.9405 110.115 28.1731 107.822 28.6481ZM138.868 38.2799C138.843 39.5536 138.402 40.3582 137.63 41.0179C137.202 41.416 136.968 41.8795 136.997 42.4481C136.998 43.3693 136.613 44.1597 135.882 44.7512C135.537 45.0128 135.247 45.2602 135.054 45.6554C134.408 47.2619 133.207 48.0894 131.453 48.1379C130.568 48.1352 129.948 48.6982 129.41 49.355C129.052 49.7929 129.204 50.1568 129.371 50.5747C129.551 51.0467 129.965 50.8249 130.241 50.7538C131.333 50.6456 132.382 50.3754 133.404 49.9971C136.4 48.8225 138.828 47.0453 140.108 44.0086C140.837 42.0354 140.405 40.1306 138.868 38.2799ZM127.111 46.1454C127.193 45.318 127.896 44.8488 128.49 44.4081C129.028 43.9815 129.497 43.5152 129.426 42.7845C129.286 41.3232 130.155 40.581 131.37 40.0378C131.949 39.7733 132.709 39.7505 133.026 39.1505C133.646 37.8966 134.639 37.1801 136.186 36.7818C133.85 36.1737 131.723 36.8364 129.834 38.6477C128.316 40.0751 127.366 41.875 126.416 43.6748C125.865 44.7382 125.825 45.4973 127.111 46.1454ZM142.212 30.4494C142.198 30.3954 142.157 30.2334 142.129 30.1253C141.755 29.588 141.615 28.5872 140.593 28.9655C139.627 29.3295 139.241 29.8897 139.85 30.8847C140.238 31.476 139.88 32.1442 139.287 32.3547C138.003 32.8581 137.465 33.7452 137.564 35.0445C137.579 35.3288 137.096 35.7411 137.662 35.8832C138.298 36.0651 138.645 36.955 139.515 36.4431C141.599 35.388 142.783 32.8945 142.212 30.4494ZM112.894 69.8504C112.423 69.1652 111.966 68.5341 111.564 67.8888C111.107 67.2576 110.554 66.709 109.738 66.5157C108.287 66.1406 107.553 65.12 107.15 63.7838C107.011 63.2436 106.927 62.6892 106.415 62.3026C105.53 61.609 104.796 60.8187 105.057 59.5421C103.679 61.74 104.622 63.5709 105.868 65.2084C107.695 67.5026 109.537 69.8508 112.894 69.8504ZM111.857 20.7551C111.676 20.0529 111.233 19.4758 110.805 19.6435C110.211 19.854 109.576 20.363 109.591 21.1079C109.607 22.0831 109.208 22.8195 108.684 23.5304C107.898 24.5967 107.043 25.6231 108.275 26.9763C108.677 27.3914 108.925 27.4425 109.368 27.559C110.1 27.6585 109.906 27.1325 109.988 26.7657C110.152 26.0322 110.594 25.4578 111.228 24.9488C111.766 24.5223 112.207 23.9479 112.151 23.2712C112.039 22.3785 111.526 21.5313 111.857 20.7551ZM139.529 28.7211C137.265 29.9951 135.458 31.67 134.827 34.2516C134.649 34.9311 134.705 35.3775 135.672 35.4741C136.584 35.5848 137.04 35.2948 136.969 34.5641C136.87 33.2648 137.519 32.5795 138.637 32.1188C139.175 31.9225 139.603 31.5245 139.215 30.9331C138.702 30.0859 138.881 29.4064 139.529 28.7211ZM110.128 19.5299C108.995 19.7063 108.374 20.2693 107.837 20.9262C106.334 22.8682 105.882 25.0006 106.259 27.3803C106.314 27.5964 106.15 28.0996 106.605 28.0399C107.006 27.9943 107.489 27.8123 107.848 27.6047C108.096 27.4256 107.889 27.0759 107.736 26.9423C106.477 25.7113 107.318 24.6308 108.034 23.5248C108.42 22.9646 109.069 22.5096 109.012 21.833C108.997 20.8578 109.3 20.2038 110.128 19.5299ZM112.049 19.8993C112.465 20.8289 112.12 21.5511 112.426 22.279C112.98 23.5185 112.54 24.5535 111.519 25.3923C111.078 25.7364 110.719 26.1743 110.568 26.7315C110.458 27.2206 110.321 27.6016 110.985 27.8915C111.634 28.1274 111.883 27.9482 112.172 27.4706C112.889 26.3645 113.481 25.2329 113.603 23.8767C113.752 22.3982 113.474 21.0875 112.049 19.8993Z" fill="#4A6D39"/>
<path d="M255.052 120.664C255.574 120.714 256.113 120.694 256.636 120.745C256.924 120.814 257.285 120.901 257.201 121.254C257.116 121.606 256.755 121.52 256.505 121.609C256.433 121.592 256.433 121.592 256.36 121.575C255.622 121.472 254.484 121.125 254.187 121.725C253.874 122.396 255.045 122.603 255.521 123.164C255.687 123.428 256.086 123.673 255.785 123.974C255.573 124.222 255.229 124.065 254.974 123.854C254.52 123.521 254.065 123.189 253.556 122.768C253.17 123.422 252.818 123.934 252.594 124.552C251.954 126.264 250.792 126.657 248.975 126.595C244.169 126.264 239.635 124.804 235.134 123.202C234.429 122.959 234.208 122.607 234.161 121.85C234.129 119.753 234.042 117.568 233.9 115.295C232.882 115.723 232.025 116.114 231.113 116.418C230.845 116.578 230.4 116.844 230.196 116.422C229.936 115.912 230.492 115.821 230.832 115.679C231.85 115.251 232.907 114.982 233.997 114.572C233.139 113.695 232.023 113.576 231.012 113.334C230.723 113.265 230.363 113.178 230.447 112.825C230.532 112.473 230.837 112.471 231.143 112.47C231.737 112.538 232.332 112.606 232.803 112.868C233.945 113.515 233.953 112.845 233.995 112.034C234.022 109.056 234.283 106.059 234.615 103.079C234.889 100.98 235.452 98.951 235.782 96.9405C235.994 96.6928 235.972 96.4638 235.577 96.5184C234.627 96.6636 233.659 96.8794 232.708 97.0247C232.386 97.0966 232.063 97.1685 231.987 96.8516C231.91 96.5348 232.122 96.2871 232.445 96.2152C233.374 95.8409 234.346 95.9247 235.297 95.7795C235.619 95.7075 236.197 95.8459 236.226 95.4052C236.272 94.8939 235.627 95.0378 235.355 94.898C234.795 94.689 234.2 94.6212 233.623 94.4828C233.262 94.3963 232.668 94.3284 232.769 93.905C232.905 93.3405 233.465 93.5494 233.898 93.6532C234.403 93.7744 234.909 93.8955 235.558 94.0512C235.039 93.0313 234.224 92.612 233.659 92.1034C233.404 91.8931 233.005 91.6481 233.323 91.2766C233.624 90.9757 233.951 91.2033 234.223 91.3431C235.293 91.9728 235.884 93.0099 236.764 94.1163C239.263 88.1484 243.526 84.6928 250.339 84.6095C249.616 83.1676 249.287 81.6711 248.942 80.2451C248.712 79.2944 248.393 78.3971 247.807 77.6595C247.11 76.7462 247.284 76.34 248.451 76.2467C250.174 76.0628 251.711 76.6551 253.058 77.7242C253.567 78.1449 253.801 78.1262 254.153 77.6135C254.521 77.0303 255.035 76.4817 255.475 75.9158C256.218 75.0489 256.634 75.2233 256.919 76.2618C257.111 77.054 257.375 77.8635 257.422 78.6211C257.402 79.661 257.623 80.0125 258.807 79.8486C260.78 79.5754 262.64 80.0959 264.381 81.1103C264.653 81.25 264.98 81.4777 264.968 81.8478C264.938 82.2886 264.561 82.2726 264.166 82.3272C260.804 82.3422 258.242 84.116 255.701 86.1188C257.37 87.1159 258.844 88.2901 259.928 89.8186C260.315 90.4337 260.671 90.2206 261.116 89.9542C262.079 89.4389 263.043 88.9235 264.078 88.4254C264.345 88.2656 264.668 88.1937 264.906 88.4746C265.11 88.8966 264.77 89.0391 264.503 89.1989C263.701 89.6784 262.661 89.8769 261.864 90.6558C262.747 90.7929 263.541 90.9832 264.352 91.103C264.641 91.1722 265.001 91.2587 264.989 91.6288C264.96 92.0695 264.51 92.0363 264.221 91.9671C263.266 91.8128 262.344 91.5173 261.322 91.6452C261.463 92.6491 262.435 92.7329 263.072 93.2588C263.399 93.4864 263.743 93.6435 264.053 93.9417C264.308 94.152 264.707 94.397 264.389 94.7685C264.16 95.0868 263.761 94.8418 263.489 94.702C263.217 94.5623 262.89 94.3346 262.635 94.1243C262.525 93.9485 262.397 93.8433 262.219 93.9499C262.13 94.0031 262.241 94.1789 262.207 94.32C263.222 99.6378 261.66 104.562 259.669 109.681C260.837 109.588 261.698 109.496 262.632 109.422C263.027 109.367 263.71 109.381 263.753 109.84C263.779 110.368 263.112 110.283 262.734 110.267C261.656 110.307 260.557 110.118 259.233 110.547C260.048 110.966 260.719 111.351 261.318 111.718C261.518 111.841 261.845 112.069 261.616 112.387C261.476 112.652 261.204 112.512 260.915 112.443C260.699 112.391 260.499 112.268 260.228 112.129C259.739 111.937 259.208 111.287 258.873 111.729C258.449 112.225 257.957 113.002 258.527 113.811C258.582 113.898 258.565 113.969 258.62 114.057C258.897 114.496 259.339 115.199 258.821 115.448C258.198 115.821 258.307 114.728 257.657 114.572C256.768 116.374 255.933 118.263 255.026 120.135C254.81 120.083 254.632 120.19 254.67 120.348C254.496 120.755 254.819 120.683 255.052 120.664ZM249.156 111.191C250.711 106.937 251.832 102.579 252.358 98.153C252.434 97.201 251.772 97.4155 251.283 97.2238C250.867 97.0494 250.061 97.2292 250.23 96.5235C250.366 95.959 251.053 96.2731 251.503 96.3064C251.881 96.3223 252.485 96.9893 252.577 95.9667C252.799 92.8111 252.699 89.7274 252.165 86.5399C248.954 88.158 247.521 90.9489 246.089 93.7399C246.76 94.1246 247.511 93.8569 248.042 94.5066C247.457 95.0379 246.947 94.6172 246.425 94.5667C245.975 94.5334 245.67 94.5348 245.479 95.0115C244.594 97.1126 243.619 99.2671 242.972 101.649C243.706 101.452 244.207 101.274 244.763 101.183C245.408 101.039 246.46 100.47 246.652 101.263C246.805 101.896 245.672 101.849 245.044 101.922C243.32 102.106 242.379 102.85 242.011 104.702C241.479 107.56 240.874 110.4 240.631 113.326C240.589 114.137 240.136 115.073 240.684 115.652C241.104 116.126 242.012 115.523 242.712 115.467C243.018 115.466 243.485 115.428 243.545 115.816C243.66 116.291 243.176 116.399 242.764 116.524C242.281 116.632 241.703 116.494 241.169 116.813C242.15 117.496 243.148 118.109 244.146 118.721C244.401 118.931 244.711 119.23 244.482 119.548C244.181 119.849 243.871 119.551 243.599 119.411C242.618 118.728 241.76 117.851 240.46 117.539C240.448 117.909 240.452 118.209 240.474 118.438C240.56 119.354 240.573 120.253 240.659 121.169C240.933 123.846 240.933 123.846 243.548 124.399C245.128 120.673 247.069 117.034 248.449 113.186C247.528 112.89 246.832 113.246 246.153 113.531C245.814 113.673 245.351 114.01 245.164 113.518C244.905 113.008 245.495 112.776 245.834 112.633C246.78 112.189 247.808 112.36 248.758 112.215C248.028 111.443 247.314 110.6 246.583 109.828C246.345 109.547 245.98 109.161 246.353 108.877C246.832 108.47 247.092 108.98 247.402 109.278C247.95 109.857 248.303 110.613 249.156 111.191ZM253.282 86.6583C253.904 89.7926 254.166 92.8403 253.922 95.7669C253.83 96.7895 254.102 96.9292 255.052 96.784C256.092 96.5855 257.127 96.0874 258.359 96.6811C257.133 97.6559 255.524 97.0462 254.293 97.7214C254.914 98.3179 255.534 98.9143 256.099 99.4229C256.337 99.7038 256.791 100.037 256.401 100.391C256.028 100.674 255.752 100.235 255.425 100.007C254.876 99.4283 254.417 98.7959 253.674 98.3939C253.092 102.732 252.022 106.878 250.574 111.009C251.469 110.775 252.204 110.578 252.938 110.381C253.188 110.292 253.46 110.432 253.554 110.678C253.63 110.995 253.38 111.084 253.129 111.173C252.79 111.316 252.395 111.371 251.984 111.496C251.216 111.834 250.244 111.75 249.845 112.774C248.393 116.605 246.669 120.296 244.8 123.952C244.503 124.553 244.669 124.817 245.336 124.902C246.613 124.984 247.946 125.154 249.296 125.254C250.179 125.391 250.658 124.984 251.061 124.259C254.545 118.005 257.324 111.507 259.487 104.712C260.689 100.971 261.297 97.1615 259.999 93.343C258.943 90.1049 256.717 87.9295 253.282 86.6583ZM240.666 104.902C240.025 105.346 239.724 105.647 239.368 105.86C238.833 106.179 238.091 107.046 237.632 106.414C237.118 105.693 238.285 105.6 238.764 105.193C239.528 104.555 241.068 104.178 240.927 103.174C240.825 102.328 239.241 102.247 238.32 101.952C237.887 101.848 237.276 101.851 237.322 101.339C237.402 100.687 238.162 101.019 238.54 101.034C238.701 100.998 238.829 101.104 238.973 101.138C239.839 101.346 240.736 102.382 241.376 101.938C242.017 101.495 241.999 100.296 242.346 99.4842C242.621 98.6547 242.952 97.913 243.299 97.1008C243.646 96.2885 243.938 95.3884 244.409 94.3818C243.085 94.8107 242.011 95.1503 241.01 95.5072C240.759 95.5965 240.42 95.739 240.288 95.3342C240.139 95 240.496 94.787 240.746 94.6977C241.73 94.4114 242.715 94.125 243.805 93.7148C243.075 92.9426 242.471 92.2756 241.885 91.538C241.702 91.345 241.464 91.0641 241.676 90.8164C241.994 90.4449 242.304 90.7431 242.542 91.024C243.256 91.8668 243.97 92.7095 244.828 93.5869C246.261 90.796 247.748 88.0929 250.65 86.1766C245.989 85.8802 242.153 87.8711 239.746 91.5476C237.919 94.3931 237.068 97.622 236.434 100.903C235.222 107.552 235.432 114.319 235.442 120.963C235.468 121.492 235.528 121.879 236.105 122.017C237.243 122.365 238.436 122.8 239.701 123.253C238.817 117.071 239.249 111.13 240.666 104.902ZM249.224 77.4769C250.406 79.5512 250.493 81.7362 251.42 83.6001C252.253 85.2178 253.718 85.7928 255.322 84.834C257.532 83.5729 259.539 81.8897 262.174 81.4021C260.726 80.7565 259.232 80.6221 257.764 81.0164C256.457 81.3747 256.269 80.8821 256.307 79.7716C256.348 78.9608 256.407 78.0793 255.927 77.2179C255.469 77.8544 255.045 78.3498 254.693 78.8624C254.095 79.7639 253.577 80.0129 252.736 79.065C251.895 78.1171 250.791 77.6285 249.224 77.4769Z" fill="#4A6D39"/>
<path d="M151.271 87.2909C157.046 82.5572 162.13 76.7688 163.873 69.2635C163.879 69.0727 163.885 68.8819 163.735 68.8005C163.66 68.7598 163.626 68.644 163.551 68.6033C163.476 68.5626 163.326 68.4811 163.251 68.4404C164.391 66.3395 163.977 63.8807 161.516 63.2249C162.436 59.7412 158.103 56.8068 155.314 59.0815C154.356 56.91 151.035 55.6905 149.144 57.3841C147.732 56.2288 145.682 56.9621 145.277 58.7821C145.202 58.7414 145.127 58.7007 145.052 58.6599C144.977 58.6192 144.902 58.5785 144.786 58.6128C144.596 58.6064 144.48 58.6407 144.323 58.75C138.979 64.3005 136.896 71.7179 136.074 79.1395C135.544 83.5148 134.263 86.4132 131.36 89.7919C129.491 91.9829 127.403 93.861 126.244 96.5343C126.122 96.7594 126.15 97.0659 126.334 97.2631C128.287 99.3917 131.342 100.564 133.893 101.949C136.219 103.211 138.648 104.821 141.265 105.367C141.531 105.415 141.804 105.271 141.926 105.046C143.495 102.692 143.925 100.109 144.663 97.4976C145.961 92.9571 147.775 90.153 151.271 87.2909ZM144.973 59.8797C150.866 62.9812 156.875 66.0485 162.606 69.4501C162.078 71.4953 161.285 73.4933 160.227 75.4441C154.005 71.8731 147.295 69.2025 141.278 65.2564C142.261 63.2648 143.545 61.4361 144.973 59.8797ZM148.724 58.516C148.943 58.829 149.359 58.9576 149.638 58.6231C151.481 57.1953 153.07 57.669 154.472 60.2756C154.493 60.773 155.169 61.1395 155.529 60.655C157.248 58.3825 161.891 60.0285 160.249 63.4114C160.086 63.7116 160.183 64.2496 160.64 64.3032C162.76 64.8711 162.79 66.2474 162.2 67.8702C157.105 64.9101 151.737 62.0937 146.519 59.3587C146.801 57.7637 147.953 57.6114 148.724 58.516ZM139.722 103.558C137.915 102.772 136.23 101.76 134.579 100.864C132.778 99.8866 130.862 98.9435 129.101 97.891C127.416 96.8793 127.423 96.6885 128.312 95.2286C128.958 94.2189 129.753 93.2906 130.507 92.4373C132.608 90.1777 134.94 87.8495 136.106 84.9854C137.686 81.1802 137.227 76.657 138.24 72.6417C138.808 70.5215 139.608 68.3327 140.592 66.3412C146.609 70.2873 153.244 72.9172 159.466 76.4882C158.291 78.4733 156.891 80.3363 155.423 81.9678C152.609 85.0056 148.641 87.1261 146.236 90.4833C144.469 93.0216 143.747 96.3208 143.038 99.2384C142.809 100.377 142.388 101.509 141.893 102.6C141.351 103.957 141.379 104.263 139.722 103.558Z" fill="white"/>
<path d="M149.562 84.7119C149.997 84.2681 150.692 84.0623 151.161 83.7342C151.631 83.4062 152.1 83.0782 152.536 82.6344C153.522 81.7126 154.398 80.6342 155.234 79.6309C155.751 79.037 154.863 78.1668 154.422 78.8013C153.545 79.8797 152.784 80.9237 151.723 81.8049C151.172 82.2829 150.662 82.686 150.077 83.0483C149.648 83.3013 149.185 83.4386 148.791 83.8073C148.233 84.4762 149.046 85.3057 149.562 84.7119Z" fill="white"/>
<path d="M155.877 77.5518C156.552 77.9183 157.123 76.8678 156.447 76.5013C155.772 76.1348 155.127 77.1445 155.877 77.5518Z" fill="white"/>
<path d="M389.307 99.0935C393.844 93.163 397.468 86.364 397.445 78.6592C397.408 78.472 397.37 78.2848 397.206 78.2399C397.123 78.2174 397.063 78.1126 396.981 78.0902C396.899 78.0677 396.734 78.0228 396.651 78.0003C397.28 75.6941 396.314 73.3954 393.768 73.3207C393.866 69.7191 388.976 67.8549 386.782 70.7078C385.352 68.8135 381.84 68.3869 380.388 70.4686C378.748 69.6675 376.921 70.8506 376.944 72.715C376.861 72.6926 376.779 72.6701 376.697 72.6477C376.614 72.6252 376.532 72.6027 376.427 72.6626C376.24 72.7001 376.135 72.76 376.008 72.9023C372.077 79.5291 371.748 87.2264 372.647 94.6391C373.134 99.0194 372.55 102.134 370.498 106.088C369.181 108.649 367.578 110.955 367.062 113.823C366.995 114.07 367.092 114.362 367.317 114.512C369.705 116.136 372.947 116.578 375.748 117.342C378.301 118.038 381.034 119.049 383.707 118.981C383.977 118.966 384.209 118.764 384.276 118.517C385.265 115.866 385.092 113.253 385.212 110.542C385.436 105.825 386.559 102.68 389.307 99.0935ZM376.899 73.8532C383.346 75.5226 389.898 77.1321 396.255 79.131C396.21 81.2425 395.895 83.369 395.312 85.5105C388.438 83.4593 381.294 82.3964 374.533 79.9333C375.035 77.7693 375.866 75.6952 376.899 73.8532ZM380.238 71.6666C380.523 71.9212 380.957 71.9511 381.152 71.5617C382.619 69.7496 384.274 69.8469 386.236 72.0631C386.371 72.5423 387.112 72.7445 387.351 72.1904C388.504 69.5846 393.401 70.1235 392.578 73.7925C392.488 74.1219 392.705 74.6236 393.162 74.5711C395.356 74.6384 395.7 75.9712 395.498 77.6859C389.86 75.9715 383.99 74.4593 378.284 72.992C378.194 71.3747 379.28 70.9628 380.238 71.6666ZM381.79 117.573C379.851 117.222 377.979 116.623 376.167 116.129C374.19 115.59 372.109 115.11 370.154 114.489C368.282 113.89 368.245 113.703 368.777 112.078C369.173 110.947 369.735 109.862 370.274 108.858C371.801 106.178 373.538 103.377 374.017 100.322C374.684 96.2564 373.201 91.9585 373.268 87.8178C373.335 85.624 373.612 83.3103 374.114 81.1463C380.875 83.6094 387.936 84.6498 394.81 86.7011C394.121 88.9025 393.185 91.0365 392.13 92.9609C390.086 96.5626 386.709 99.5354 385.137 103.354C383.999 106.229 384.051 109.606 384.029 112.609C384.066 113.77 383.917 114.968 383.685 116.143C383.468 117.588 383.565 117.88 381.79 117.573Z" fill="white"/>
<path d="M286.17 56.6186C282.288 56.0254 278.186 55.744 274.452 54.7417C273.706 54.5413 273.525 55.7228 274.272 55.9232C277.992 57.0099 282.095 57.2913 285.99 57.8001C286.749 57.9162 286.93 56.7347 286.17 56.6186Z" fill="white"/>
<path d="M291.599 39.7436C295.428 33.3333 298.251 26.1646 297.347 18.5129C297.289 18.3313 297.23 18.1496 297.061 18.1238C296.977 18.1109 296.905 18.0136 296.821 18.0007C296.737 17.9878 296.568 17.962 296.483 17.9491C296.845 15.5861 295.622 13.413 293.084 13.6297C292.769 10.0407 287.699 8.74769 285.845 11.8327C284.208 10.1143 280.67 10.092 279.465 12.326C277.745 11.7176 276.065 13.1019 276.301 14.9515C276.216 14.9386 276.132 14.9257 276.047 14.9128C275.963 14.8999 275.879 14.887 275.781 14.9585C275.6 15.0171 275.502 15.0886 275.392 15.2445C272.245 22.2772 272.798 29.9617 274.538 37.2231C275.523 41.519 275.299 44.6802 273.713 48.8424C272.697 51.5371 271.369 54.0114 271.183 56.9195C271.145 57.1727 271.275 57.4516 271.515 57.5747C274.074 58.9157 277.345 58.9838 280.214 59.4222C282.831 59.822 285.661 60.5136 288.309 60.1409C288.575 60.0952 288.783 59.8678 288.821 59.6146C289.5 56.8684 289.03 54.292 288.839 51.5856C288.523 46.8736 289.279 43.6209 291.599 39.7436ZM276.386 16.0873C282.982 17.0088 289.675 17.8587 296.219 19.1177C296.415 21.2205 296.346 23.369 296.011 25.5633C288.948 24.3113 281.73 24.072 274.731 22.398C274.982 20.1909 275.57 18.0354 276.386 16.0873ZM279.454 13.5333C279.765 13.7537 280.2 13.7338 280.349 13.3247C281.6 11.3567 283.255 11.2641 285.457 13.2416C285.646 13.7022 286.406 13.8183 286.58 13.2404C287.428 10.5199 292.354 10.4954 291.956 14.2345C291.904 14.5721 292.177 15.0457 292.625 14.9413C294.812 14.7574 295.307 16.042 295.302 17.7686C289.505 16.71 283.5 15.8788 277.664 15.0734C277.39 13.477 278.421 12.9437 279.454 13.5333ZM286.244 58.9617C284.277 58.8339 282.349 58.4529 280.492 58.1692C278.467 57.8597 276.344 57.6217 274.332 57.2278C272.403 56.8469 272.345 56.6652 272.687 54.9902C272.952 53.8216 273.386 52.6788 273.807 51.6204C275.017 48.7827 276.423 45.802 276.55 42.7122C276.747 38.5969 274.782 34.4967 274.376 30.3755C274.192 28.1883 274.202 25.8581 274.453 23.651C281.452 25.325 288.585 25.5514 295.649 26.8034C295.216 29.0691 294.53 31.2961 293.702 33.3286C292.083 37.1403 289.068 40.4796 287.943 44.4531C287.141 47.4397 287.579 50.7885 287.9 53.7739C288.07 54.9226 288.058 56.1299 287.962 57.3243C287.912 58.7848 288.042 59.0637 286.244 58.9617Z" fill="white"/>
<path d="M289.117 37.8961C289.376 37.3312 289.96 36.9022 290.291 36.4345C290.621 35.9669 290.952 35.4992 291.211 34.9342C291.826 33.7328 292.286 32.4212 292.732 31.194C293.017 30.4602 291.887 29.9421 291.687 30.6888C291.227 32.0004 290.865 33.2405 290.165 34.429C289.809 35.0655 289.466 35.6175 289.038 36.1567C288.72 36.54 288.331 36.826 288.085 37.3065C287.787 38.1247 288.833 38.6299 289.117 37.8961Z" fill="white"/>
<path d="M292.633 29.0195C293.392 29.1356 293.573 27.9541 292.813 27.838C292.054 27.722 291.789 28.8906 292.633 29.0195Z" fill="white"/>
<path d="M216.552 80.4268C213.399 76.7967 207.912 75.8173 204.342 79.1036C194.986 75.2166 185.276 71.9692 175.699 68.6619C175.313 68.515 174.913 68.6947 174.766 69.0811C173.605 71.8457 172.361 74.2471 173.945 77.06C175.746 80.1762 179.44 81.8009 179.944 85.4194C180.578 89.8609 178.972 94.6676 183.072 97.5519C181.664 101.549 180.195 105.413 178.594 109.337C176.469 108.529 166.423 104.712 165.461 108.989C164.636 112.324 173.233 115.59 175.418 116.531C178.822 118.046 182.276 119.137 185.974 119.879C187.4 120.2 191.521 120.992 192.568 119.4C195.039 115.807 184.969 111.759 182.554 110.842C184.119 107.014 185.624 103.054 186.996 99.1534C188.072 99.2307 189.221 99.1147 190.251 98.7322C194.333 97.2987 195.152 92.5248 198.981 90.8846C202.011 89.6037 205.888 90.7454 208.834 89.1013C209.404 88.7651 209.951 88.199 210.401 87.5963C211.883 88.9332 213.535 90.1135 215.113 91.4871C215.366 91.6938 215.922 91.6842 216.166 91.3345C218.237 87.9207 219.585 83.7902 216.552 80.4268ZM182.674 72.4175C192.057 75.6514 201.753 79.2253 210.733 83.5218C210.623 83.8116 210.476 84.198 210.366 84.4878C204.984 81.7793 199.101 80.0967 193.572 77.7745C187.693 75.209 181.46 73.283 175.435 71.1038C175.678 70.7541 175.885 70.5011 176.151 70.3813C177.411 69.9755 181.321 71.9036 182.674 72.4175ZM179.967 113.286C179.637 114.155 180.989 114.669 181.32 113.799C181.54 113.22 181.724 112.737 181.944 112.157C184.262 113.038 186.41 114.076 188.449 115.403C188.992 115.72 190.524 116.633 190.726 117.263C191.238 119.116 188.93 118.791 187.95 118.751C183.876 118.419 179.589 116.9 175.835 115.142C173.457 114.128 169.46 112.72 167.848 110.56C166.044 108.326 169.502 108.535 171.061 108.796C173.466 109.157 175.762 109.808 177.983 110.652C177.8 111.135 177.616 111.618 177.396 112.198C177.066 113.067 178.418 113.581 178.748 112.712C180.68 107.919 182.516 103.089 184.218 98.3188C184.604 98.4657 184.99 98.6125 185.473 98.796C183.831 103.699 181.996 108.529 179.967 113.286ZM201.784 88.744C197.38 89.2811 195.859 91.2459 193.232 94.6693C190.678 97.8995 185.86 98.9428 182.923 95.6161C180.359 92.7627 181.901 88.7056 181.36 85.1837C180.856 81.5652 178.381 80.5142 176.144 77.6743C175.145 76.521 174.353 75.1145 174.48 73.6153C174.494 73.2889 174.641 72.9025 174.728 72.3828C180.813 74.6952 186.949 76.5846 192.961 79.0902C198.49 81.4123 204.373 83.0949 209.659 85.7667C209.062 86.7559 208.405 87.6118 207.375 87.9943C205.776 88.713 203.624 88.5585 201.784 88.744ZM212.246 83.3228C212.319 83.1296 212.259 82.9963 212.199 82.863L212.14 82.7297C212.08 82.5964 212.02 82.4631 211.827 82.3897C209.871 81.4257 207.88 80.5583 205.791 79.6542C209.091 77.3706 213.911 78.6494 216.025 82.1056C217.682 84.7253 216.655 87.43 215.181 89.8546C213.855 88.6878 212.397 87.5808 210.975 86.3772C211.572 85.3881 212.012 84.2289 212.246 83.3228Z" fill="white"/>
<path d="M246.078 45.5391C246.55 44.4723 247.249 43.0032 246.882 41.8929C246.453 40.5405 244.937 39.4662 243.779 38.8167C241.167 37.335 237.943 39.2785 236.555 41.612C235.949 42.7992 235.401 43.8858 235.928 45.2991C236.393 46.4702 237.986 48.815 239.18 49.2832C240.2 49.7104 242.352 49.0734 243.34 48.7344C244.851 48.1756 245.457 46.9884 246.078 45.5391ZM242.035 39.4351C241.771 40.0188 241.527 40.6832 241.263 41.2669C240.999 41.8505 240.58 42.474 240.316 43.0576C239.985 43.0564 239.617 43.2365 239.229 43.3358C238.551 43.5953 237.775 43.794 237.097 44.0535C237.108 43.4487 237.253 42.7235 237.595 42.1199C238.47 40.6918 240.224 39.4686 242.035 39.4351ZM241.225 47.8998C239.434 48.014 237.821 46.8789 237.33 45.2843C238.22 44.8844 240.134 43.9642 240.941 44.5318C241.945 45.2211 242.586 46.4332 243.455 47.2429C242.798 47.5832 242.12 47.8427 241.225 47.8998ZM244.241 46.4394C244.241 46.4394 244.221 46.3587 244.241 46.4394C243.197 45.5887 242.514 44.2152 241.413 43.465C241.697 42.9621 241.982 42.4591 242.267 41.9561C242.588 41.2719 242.888 40.5069 243.209 39.8226C243.287 39.8027 243.307 39.8835 243.385 39.8636C244.032 40.1281 245.568 41.2831 245.852 42.0705C246.116 42.7771 245.644 43.8439 245.401 44.5083C245.08 45.1926 244.681 45.8967 244.241 46.4394Z" fill="white"/>
<path d="M253.532 49.1366C251.246 48.6038 247.634 49.3562 246.64 51.9331C246.21 53.1613 245.873 55.398 246.436 56.6299C247 57.8619 248.547 58.4121 249.742 58.8803C251.211 59.4504 252.54 59.7982 253.911 59.0171C254.838 58.4359 256.732 57.435 257.203 56.3682C257.71 55.1201 257.163 52.3358 256.6 51.1038C255.86 49.8309 254.764 49.4235 253.532 49.1366ZM253.237 50.2443C253.863 50.4282 254.453 50.7933 254.908 51.2789C254.328 51.5993 253.671 51.9395 253.091 52.2599C252.724 52.44 252.357 52.6201 252.01 52.8808C251.384 52.697 250.701 52.6138 250.132 52.3294C249.485 52.0648 248.859 51.881 248.213 51.6165C249.46 50.351 251.654 49.8755 253.237 50.2443ZM247.461 56.1096C247.099 55.3421 247.265 53.4073 247.623 52.5417C248.347 52.7864 249.092 53.1117 249.816 53.3564C250.364 53.5601 250.97 53.6632 251.497 53.7862C251.342 55.1162 251.714 56.5692 251.635 57.8794C251.635 57.8794 251.635 57.8794 251.656 57.9602C251.072 57.9378 250.544 57.8148 249.996 57.6111C249.292 57.4472 247.844 56.9578 247.461 56.1096ZM255.335 56.5023C254.626 57.2859 253.777 57.8472 252.825 58.0049C252.924 56.7754 252.418 55.4429 252.615 54.2743C252.703 53.6496 253.324 53.4907 253.826 53.1901C254.405 52.8697 254.985 52.5493 255.564 52.229C256.324 53.5826 256.427 55.2766 255.335 56.5023Z" fill="white"/>
<path d="M249.857 40.2712C250.907 40.1743 251.632 39.1287 251.617 38.1004C251.581 36.9914 250.774 36.4238 249.74 36.2586C249.641 36.1978 249.564 36.2176 249.429 36.3381C248.4 36.5156 247.437 37.2781 247.493 38.4679C247.607 39.557 248.807 40.368 249.857 40.2712ZM248.678 38.2506C248.689 37.6458 249.31 37.4868 249.775 37.3676C250.205 37.4297 250.5 37.6123 250.546 38.1165C250.592 38.6207 250.287 39.0429 249.801 39.0814C249.314 39.1199 248.647 38.7746 248.678 38.2506Z" fill="white"/>
<path d="M254.239 41.558C254.141 41.4972 254.063 41.517 253.928 41.6375C252.899 41.815 251.936 42.5775 251.993 43.7673C252.049 44.957 253.327 45.7481 254.377 45.6513C255.427 45.5544 256.152 44.5088 256.137 43.4805C256.003 42.3106 255.274 41.7232 254.239 41.558ZM254.988 43.5165C255.035 44.0207 254.729 44.4429 254.243 44.4814C253.757 44.5199 253.089 44.1746 253.121 43.6506C253.131 43.0458 253.752 42.8868 254.218 42.7676C254.647 42.8297 254.942 43.0123 254.988 43.5165Z" fill="white"/>
<path d="M242.299 53.3871C242.2 53.3263 242.123 53.3461 241.988 53.4666C240.958 53.6441 239.996 54.4066 240.052 55.5964C240.109 56.7861 241.386 57.5772 242.437 57.4804C243.487 57.3835 244.212 56.3379 244.197 55.3096C244.14 54.1199 243.333 53.5523 242.299 53.3871ZM243.027 55.2649C243.074 55.7691 242.768 56.1913 242.282 56.2298C241.796 56.2683 241.128 55.923 241.16 55.3989C241.17 54.7941 241.791 54.6352 242.257 54.516C242.784 54.6389 243.002 54.8414 243.027 55.2649Z" fill="white"/>
<path d="M255.246 19.9689C255.463 20.1714 255.851 20.072 256.022 19.7702C256.436 18.8041 256.928 17.818 257.264 16.8717C257.358 16.5898 257.218 16.3675 257.022 16.2458C254.679 14.5232 247.495 8.10492 246.752 14.5739C246.493 16.7907 246.761 19.1304 246.755 21.3683C246.77 22.3966 246.765 23.3441 246.78 24.3724C240.338 26.0215 233.855 27.509 227.413 29.1581C227.335 29.178 227.257 29.1978 227.201 29.2984C227.066 29.4189 226.952 29.6201 227.014 29.8622C229.96 38.1395 233.04 46.2963 236.431 54.3737C237.3 56.4738 238.246 58.5539 239.192 60.6341C239.714 61.7047 240.132 63.6619 241.234 64.412C242.02 64.8989 243.008 64.5599 243.862 64.3413C246.056 63.8657 248.172 63.41 250.345 62.8537C252.208 62.3769 254.128 61.7995 255.99 61.3226C257.077 61.0445 258.846 60.8496 259.711 60.0262C261.517 58.3597 260.168 54.0602 259.942 51.8819C258.957 41.8983 258.014 32.0762 256.993 22.2739C256.988 21.9312 256.652 21.5871 256.264 21.6865C254.5 22.2242 252.715 22.6811 250.929 23.1381C250.92 21.1623 250.931 19.2671 251.02 17.3521C252.494 18.265 253.87 19.1169 255.246 19.9689ZM248.116 33.1477C248.019 30.5061 247.999 27.8448 247.902 25.2033C248.523 25.0443 249.222 24.8655 249.842 24.7066C249.862 27.3679 249.98 30.0902 250 32.7515C249.379 32.9105 248.758 33.0694 248.116 33.1477ZM246.932 33.3649C245.493 33.5611 243.957 33.6964 242.477 33.7312C238.157 33.9769 234.488 34.83 230.84 37.0541C229.987 34.692 229.155 32.4107 228.302 30.0486C234.434 28.479 240.684 27.051 246.816 25.4814C246.815 28.0621 246.834 30.7234 246.932 33.3649ZM258.278 46.0288C258.443 47.9649 258.664 49.8005 258.829 51.7366C259.03 53.4914 259.588 55.6709 259.381 57.4443C259.178 59.5605 257.388 59.6747 255.68 60.1118C253.973 60.5489 252.209 61.0866 250.501 61.5237C248.871 61.9409 247.241 62.3581 245.591 62.6946C244.815 62.8933 243.847 63.313 243.009 63.2695C241.41 63.1627 241.441 62.6386 240.8 61.4265C239.193 58.0535 237.761 54.7215 236.308 51.3087C234.587 46.8465 232.887 42.4651 231.207 38.1644C236.149 35.179 241.059 35.2984 246.6 34.654C250.216 34.2443 253.745 33.1689 256.731 30.9423C257.273 35.9645 257.736 41.0066 258.278 46.0288ZM255.933 22.9756C256.159 25.1538 256.386 27.3321 256.634 29.5911C254.921 30.9758 253.084 31.8761 251.164 32.4535C251.144 29.7922 251.026 27.0699 251.007 24.4086C252.636 23.9913 254.323 23.4735 255.933 22.9756ZM249.864 23.497C249.243 23.6559 248.544 23.8347 247.923 23.9937C247.892 23.2274 247.939 22.4413 247.909 21.6751C247.935 19.5179 247.326 16.4914 247.958 14.4373C248.735 11.658 250.902 13.3396 252.397 14.3331C253.183 14.82 255.951 16.2619 256.157 17.0691C256.261 17.4728 255.474 18.2762 255.422 18.7196C255.401 18.6389 255.324 18.6587 255.303 18.578C254.196 17.4851 252.256 16.6915 250.979 15.9004C250.586 15.6569 250.161 15.9376 250.109 16.381C249.814 18.779 249.828 21.0976 249.864 23.497Z" fill="white"/>
<path d="M230.474 33.3627C230.794 33.9687 231.058 34.6754 231.399 35.3622C231.663 36.0688 232.667 35.4678 232.326 34.781C231.964 34.0135 231.7 33.3068 231.261 32.5592C231.24 32.4785 231.002 32.1953 230.981 32.1146L230.883 32.0538C230.961 32.0339 231.116 31.9942 231.194 31.9743C231.582 31.8749 232.047 31.7557 232.456 31.7371C233.175 31.639 232.886 30.5089 232.167 30.607C231.37 30.7249 229.678 30.9 229.735 32.0897C229.915 32.4735 230.272 32.8982 230.474 33.3627Z" fill="white"/>
<path d="M234.262 31.3613C234.96 31.1824 234.671 30.0523 233.972 30.2311C233.274 30.4099 233.563 31.5401 234.262 31.3613Z" fill="white"/>
<path d="M12.3155 62.9744C9.30197 64.3229 6.24199 65.805 3.27202 67.2435C3.55329 66.2183 3.70097 65.1468 3.98224 64.1217C4.1271 63.2737 2.74198 63.1668 2.59712 64.0148C2.35662 65.3535 2.02612 66.7358 1.74204 67.9845C-9.59786 73.4769 -20.8942 79.0594 -32.2341 84.5518C-32.3241 84.5954 -32.4141 84.639 -32.5041 84.6825C-32.7305 84.9033 -32.7333 85.1269 -32.6461 85.3069C-32.5589 85.4869 -32.4718 85.6669 -32.3382 85.7133C-32.3382 85.7133 -32.2946 85.8033 -32.2046 85.7597C-26.0623 88.1181 -19.8707 90.1193 -13.6792 92.1205C-11.051 92.9587 -8.37918 93.8869 -5.70738 94.815C-4.63866 95.1863 -2.72763 96.1496 -1.03456 96.6629C1.19138 101.029 3.28373 105.349 5.32967 109.803C3.25969 110.805 -6.01022 115.295 -3.63942 118.814C-1.84093 121.609 6.16899 117.73 8.28256 116.817C11.6097 115.428 14.6725 113.722 17.6509 111.613C18.8237 110.823 22.1186 108.449 21.6939 106.655C20.8067 102.529 11.2696 106.926 9.01964 108.016C7.01729 103.652 4.92494 99.3321 2.74259 95.0557C3.01822 94.4777 3.16027 93.8534 3.3895 93.409C4.63689 90.2493 5.7507 87.0431 6.8645 83.837C9.05134 77.1111 11.0146 70.3823 13.4686 63.7493C13.4742 63.3021 12.8555 62.7129 12.3155 62.9744ZM-30.2738 85.1579C-19.7439 80.0578 -9.30118 74.7777 1.27231 69.7676C0.802591 71.5507 0.466455 73.3801 -0.00326684 75.1632C-8.37319 79.2171 -16.9583 82.5975 -25.1102 87.1014C-26.7569 86.4545 -28.4936 85.8512 -30.2738 85.1579ZM8.93096 111.503C9.32328 112.313 10.5833 111.703 10.191 110.893C9.92941 110.353 9.71146 109.903 9.44992 109.363C11.6099 108.317 13.7671 107.494 16.055 106.941C16.6386 106.77 18.2993 106.299 18.8773 106.574C20.5211 107.445 18.7591 108.854 18.0799 109.516C15.1394 112.163 11.223 114.171 7.4923 115.644C5.19873 116.644 1.55235 118.521 -1.0379 118.22C-3.80815 118.006 -1.36408 115.712 -0.144864 114.788C1.70716 113.335 3.68997 112.153 5.75995 111.15C5.9779 111.6 6.19585 112.05 6.4574 112.59C6.84971 113.4 8.1097 112.79 7.71739 111.98C5.36631 106.896 2.96883 101.946 0.437752 96.9498C0.661342 96.9526 0.841336 96.8654 1.06493 96.8683C1.24492 96.7811 1.42492 96.6939 1.65133 96.4731C4.18241 101.47 6.57989 106.419 8.93096 111.503ZM3.53867 88.6701C3.1674 89.7388 2.70613 90.8511 2.24487 91.9634C1.36874 94.0544 0.727468 95.2539 -1.77278 94.9093C-3.91586 94.614 -6.40483 93.375 -8.40868 92.6789C-10.6361 91.98 -12.8607 91.0574 -15.0446 90.4485C-17.8528 89.6975 -20.5246 88.7693 -23.33 87.7947C-15.8544 83.7295 -8.07651 80.5179 -0.382984 76.9027C-0.710661 78.0614 -0.904756 79.2666 -1.09885 80.4717C-3.46833 80.3971 -5.64521 82.7848 -5.6298 85.1107C-5.60876 86.9894 -4.15054 88.3943 -2.45746 88.9076C-2.60514 89.9791 -2.8864 91.0042 -3.03408 92.0758C-3.13536 93.0137 -1.75024 93.1206 -1.64896 92.1827C-1.50128 91.1111 -1.22001 90.086 -1.02874 89.1045C-0.938744 89.0609 -0.805154 89.1073 -0.805154 89.1073C1.25356 88.9991 3.15481 87.1893 3.36017 85.0898C3.65553 82.9468 2.24936 80.9611 0.286283 80.5786C0.573189 79.1063 0.860093 77.634 1.237 76.1181C3.84698 74.854 6.41337 73.4998 8.97975 72.1457C8.09517 74.9075 7.25417 77.7593 6.27959 80.5647C5.39501 83.3265 4.55684 85.9547 3.53867 88.6701ZM-1.14543 87.7165C-2.48696 87.6996 -4.13081 86.8291 -4.29109 85.3512C-4.49495 83.7832 -3.04087 81.9679 -1.42934 81.854C-1.47575 81.9876 -1.43215 82.0776 -1.47856 82.2112C-1.62342 83.0591 -0.238303 83.166 -0.0934415 82.3181C-0.0470327 82.1845 -0.000625964 82.0509 0.00219241 81.8273C3.03962 82.1339 2.29841 87.7152 -1.14543 87.7165ZM9.58588 70.1854C6.97308 71.6732 4.31669 73.0709 1.61671 74.3786C2.08644 72.5955 2.42257 70.766 2.8923 68.983C5.68227 67.6317 8.56225 66.2367 11.3958 64.9754C10.7925 66.7121 10.1892 68.4488 9.58588 70.1854Z" fill="white"/>
<path d="M231.987 14.5085C228.686 14.4991 225.287 14.5925 221.988 14.683C222.666 13.8641 223.241 12.948 223.919 12.1291C224.399 11.4156 223.181 10.7488 222.7 11.4623C221.931 12.5838 221.061 13.7081 220.289 14.7297C207.694 15.0756 195.101 15.5214 182.506 15.8672C182.406 15.87 182.306 15.8727 182.206 15.8755C181.909 15.9837 181.814 16.1863 181.82 16.3863C181.825 16.5862 181.831 16.7861 181.933 16.8833C181.933 16.8833 181.936 16.9833 182.036 16.9805C186.666 21.6552 191.488 26.0245 196.31 30.3938C198.361 32.2382 200.415 34.1825 202.469 36.1269C203.291 36.9046 204.637 38.5683 205.97 39.7322C206.204 44.6276 206.336 49.4258 206.37 54.3267C204.071 54.3898 193.775 54.6725 194.49 58.8545C194.981 62.1423 203.877 61.898 206.179 61.9348C209.783 62.0359 213.277 61.7399 216.859 61.0413C218.253 60.803 222.232 59.9934 222.582 58.1831C223.47 54.0572 212.968 54.1455 210.469 54.2141C210.437 49.4132 210.305 44.615 210.074 39.8196C210.562 39.406 210.949 38.8952 211.34 38.5843C213.776 36.2166 216.109 33.7516 218.443 31.2866C223.201 26.054 227.756 20.727 232.72 15.6888C232.909 15.2835 232.587 14.492 231.987 14.5085ZM184.044 17.2255C195.739 16.9044 207.429 16.3833 219.128 16.1621C217.967 17.5945 216.908 19.1242 215.747 20.5566C206.451 20.8118 197.235 20.3646 187.952 21.1197C186.717 19.8531 185.382 18.5893 184.044 17.2255ZM208.955 57.3569C208.979 58.2565 210.379 58.2181 210.354 57.3185C210.338 56.7187 210.324 56.2189 210.307 55.6191C212.707 55.5532 215.011 55.69 217.324 56.1267C217.927 56.2102 219.634 56.4634 220.048 56.9522C221.188 58.4215 219.003 58.9817 218.112 59.3063C214.343 60.5102 209.948 60.7309 205.941 60.5408C203.439 60.5095 199.343 60.722 197.106 59.3829C194.668 58.0493 197.84 56.9618 199.331 56.6208C201.616 56.0578 203.91 55.7948 206.209 55.7316C206.223 56.2314 206.236 56.7313 206.253 57.331C206.278 58.2307 207.677 58.1923 207.652 57.2926C207.599 51.692 207.448 46.194 207.194 40.5989C207.397 40.6934 207.597 40.6879 207.799 40.7823C207.999 40.7769 208.199 40.7714 208.496 40.6632C208.75 46.2583 208.901 51.7562 208.955 57.3569ZM213.424 34.3255C212.646 35.1472 211.769 35.9716 210.891 36.796C209.233 38.3421 208.155 39.172 206.018 37.8301C204.185 36.68 202.426 34.5275 200.885 33.0692C199.142 31.5165 197.493 29.7611 195.752 28.3083C193.501 26.4694 191.447 24.5251 189.29 22.4835C197.776 21.8504 206.186 22.1196 214.686 21.9862C213.911 22.9079 213.239 23.9267 212.566 24.9455C210.437 23.9036 207.471 25.1855 206.529 27.3121C205.776 29.0335 206.528 30.9135 207.86 32.0774C207.285 32.9935 206.607 33.8124 206.032 34.7286C205.555 35.542 206.773 36.2088 207.251 35.3954C207.826 34.4792 208.504 33.6603 209.082 32.8442C209.182 32.8414 209.284 32.9386 209.284 32.9386C211.206 33.6862 213.683 32.8179 214.733 30.9883C215.883 29.1561 215.417 26.768 213.785 25.6123C214.652 24.3881 215.519 23.1638 216.485 21.9368C219.384 21.8572 222.28 21.6777 225.176 21.4981C223.235 23.6522 221.296 25.9063 219.254 28.0631C217.313 30.2172 215.468 32.2686 213.424 34.3255ZM209.546 31.5309C208.33 30.9641 207.189 29.4948 207.651 28.0816C208.109 26.5685 210.181 25.5112 211.697 26.0698C211.6 26.1725 211.602 26.2725 211.505 26.3752C211.025 27.0887 212.243 27.7555 212.724 27.042C212.821 26.9393 212.918 26.8366 213.013 26.6339C215.656 28.1619 212.686 32.9453 209.546 31.5309ZM226.535 19.9602C223.541 20.2425 220.545 20.4248 217.546 20.5072C218.707 19.0747 219.766 17.5451 220.927 16.1127C224.026 16.0276 227.225 15.9398 230.326 15.9546C229.062 17.2898 227.799 18.625 226.535 19.9602Z" fill="white"/>
<path d="M195.137 24.1238C194.421 23.5432 193.549 24.5675 194.165 25.1508C195.295 26.2202 196.425 27.2896 197.357 28.4645C197.976 29.1477 198.948 28.1207 198.329 27.4374C197.294 26.1653 196.264 25.0932 195.137 24.1238Z" fill="white"/>
<path d="M199.465 28.7061C198.565 28.7308 198.603 30.1303 199.503 30.1055C200.403 30.0808 200.364 28.6814 199.465 28.7061Z" fill="white"/>
<path d="M50.0048 42.0251C51.3821 39.0317 52.9171 36.1107 54.1794 33.1598C54.8319 31.7418 55.363 30.1726 55.4278 28.5797C55.5288 26.908 54.4371 25.5466 54.4356 24.305C54.3728 22.3671 55.7202 19.6462 56.2025 17.7681C56.8299 15.575 57.3784 13.3456 58.1207 11.1099C58.4658 10.9823 58.8896 10.891 59.271 10.6846C59.6885 10.3995 59.6697 9.8181 59.6146 9.31548C59.7721 9.38798 59.8509 9.42422 60.0085 9.49672C60.4023 9.67795 60.8199 9.39281 60.8861 9.04147C61.0548 8.25999 61.2897 7.12718 60.8769 6.36455C60.3004 5.33563 58.301 4.70204 57.277 4.23083C56.1741 3.72338 54.2709 2.46585 53.0719 2.58232C52.0667 2.6925 51.2803 3.57159 50.7241 4.36563C50.5728 4.48693 50.5791 4.68073 50.5854 4.87452C50.5917 5.06832 50.7918 5.25584 50.9493 5.32833C50.9493 5.32833 50.9493 5.32834 51.0281 5.36458C51.1069 5.40083 51.1856 5.43707 51.3006 5.39454C50.8468 5.75845 50.393 6.12237 50.4119 6.70376C50.4182 6.89756 50.467 7.20638 50.5883 7.35765C50.6308 7.47267 50.6733 7.5877 50.7946 7.73897C50.7946 7.73897 50.7946 7.73896 50.7584 7.81773C48.5884 11.4965 46.0608 14.9152 43.6908 18.4065C42.8382 19.6369 41.863 19.4745 40.574 20.4087C39.0188 21.5067 37.9851 23.131 37.1451 24.7491C34.2265 30.4697 31.508 36.3779 29.0621 42.316C27.1898 46.7999 31.3523 48.3334 34.7759 49.8132C37.7269 51.0756 43.2063 54.9332 45.6426 51.0906C47.4926 48.3146 48.6636 44.9398 50.0048 42.0251ZM53.7788 21.9983C50.8767 21.0448 48.0408 19.7399 45.3562 18.3137C46.7287 16.368 48.1375 14.3435 49.4313 12.3616C51.4494 13.5766 53.5701 14.3614 55.727 15.0675C55.1659 16.9093 54.6836 18.7874 54.2375 20.5866C54.135 21.0168 53.9176 21.4894 53.7788 21.9983ZM53.6702 6.67575C54.2216 6.92948 54.5304 6.88066 54.7668 6.9894C55.1244 7.24941 55.4458 7.58819 55.8396 7.76943C56.076 7.87817 56.7362 7.89558 57.0087 7.92555C57.0513 8.04057 57.3301 8.26432 57.4089 8.30057C57.5302 8.45184 57.694 8.71814 57.9303 8.82688C58.1667 8.93562 58.3242 9.00811 58.4392 8.96558C58.4455 9.15938 58.4943 9.46819 58.5794 9.69824L58.4644 9.74077C58.3493 9.7833 58.2343 9.82582 58.1555 9.78957C58.1555 9.78957 58.1556 9.78958 58.0768 9.75333C55.9262 9.24104 53.8355 8.1836 51.896 7.00485C51.8535 6.88983 51.7322 6.73856 51.6897 6.62354C51.7259 6.54477 51.7259 6.54477 51.841 6.50224C52.0285 6.30216 52.2948 6.13832 52.4823 5.93824C52.8399 6.19825 53.1613 6.53705 53.6702 6.67575ZM51.825 8.40397C53.4856 9.35895 55.2186 10.1564 57.0604 10.7175C56.7042 11.699 56.3906 12.7956 56.1132 13.8134C54.035 13.1436 52.0294 12.3162 50.1325 11.2524C50.725 10.3796 51.275 9.3918 51.825 8.40397ZM56.8058 5.25491C57.5935 5.61738 58.6538 6.00981 59.3328 6.6086C59.8118 7.01988 59.9031 7.44372 59.8432 7.98887C59.6069 7.88013 59.4493 7.80763 59.2918 7.73514C59.098 7.74142 58.9042 7.74769 58.6741 7.83275C58.5953 7.7965 58.5591 7.87528 58.5591 7.87528C58.2015 7.61527 57.9888 7.04016 57.5949 6.85892C57.2011 6.67769 56.3896 6.7816 56.1533 6.67286C55.9958 6.60037 55.5105 5.99529 55.1954 5.8503C54.8016 5.66906 54.1414 5.65166 53.9051 5.54292C53.7475 5.47043 53.2985 4.78658 52.9834 4.64159C52.8259 4.5691 52.5896 4.46037 52.432 4.38787C53.8423 3.60496 55.309 4.56622 56.8058 5.25491ZM51.663 35.7246C50.1043 39.1119 48.5032 42.3842 46.9446 45.7716C46.3646 47.032 45.8272 48.4074 45.1322 49.7103C43.736 52.1224 41.4216 51.3438 39.1008 50.3714C36.7376 49.284 33.2966 48.4644 31.3021 46.783C29.2288 45.0654 29.9175 43.5687 30.7512 41.7568C33.2159 36.4001 35.4869 31.0497 38.1093 25.7654C38.508 24.8989 38.9855 24.0686 39.578 23.1958C40.733 21.7228 42.0771 21.2912 43.6023 20.4658C44.0987 20.2169 44.3949 19.7805 44.6912 19.3441C47.4971 20.9215 50.448 22.1839 53.4289 23.1737C53.3265 23.6038 53.224 24.0339 53.2366 24.4215C53.2429 24.6153 53.1704 24.7728 53.1767 24.9666C53.3593 25.8143 53.9958 26.2981 54.221 27.2608C54.3249 28.0722 54.235 28.89 54.0664 29.6714C53.6691 31.7795 52.5691 33.7552 51.663 35.7246Z" fill="white"/>
<path d="M45.6828 28.3912C45.604 28.3549 45.604 28.3549 45.604 28.3549C45.604 28.3549 45.604 28.3549 45.5252 28.3187C37.3766 25.9056 29.916 42.3271 38.8099 44.9876C47.1949 47.5095 53.8329 32.0458 45.6828 28.3912ZM39.0811 43.776C31.9014 41.3315 38.4809 27.6546 45.1754 29.494C51.95 32.6113 45.9094 46.1543 39.0811 43.776Z" fill="white"/>
<path d="M40.4664 26.6589C41.2827 25.5072 42.3053 24.7369 43.6068 24.1903C44.2969 23.9351 43.9504 22.8212 43.1815 23.0401C41.6862 23.593 40.3973 24.5271 39.5085 25.8364C39.1035 26.5091 40.0614 27.3316 40.4664 26.6589Z" fill="white"/>
<path d="M44.5868 23.3055C45.2958 23.6317 45.8032 22.5289 45.0942 22.2027C44.3853 21.8765 43.8778 22.9793 44.5868 23.3055Z" fill="white"/>
<path d="M331.199 105.492C330.132 102.374 329.23 99.2005 328.109 96.1929C327.604 94.716 326.907 93.2132 325.856 92.0149C324.776 90.7345 323.047 90.5012 322.189 89.603C320.808 88.2427 319.908 85.343 318.962 83.6502C317.904 81.6292 316.764 79.6363 315.76 77.5052C315.922 77.1749 316.166 76.8165 316.3 76.4041C316.406 75.9097 315.991 75.5016 315.605 75.1755C315.769 75.1194 315.851 75.0914 316.015 75.0352C316.425 74.8949 316.531 74.4005 316.337 74.1004C315.92 73.4181 315.309 72.4356 314.484 72.1679C313.357 71.8202 311.472 72.7399 310.406 73.1047C309.257 73.4976 307.012 73.8991 306.224 74.8102C305.571 75.5832 305.608 76.762 305.753 77.7207C305.727 77.9129 305.865 78.0489 306.003 78.1849C306.141 78.3209 306.416 78.3188 306.58 78.2627C306.58 78.2627 306.58 78.2627 306.662 78.2346C306.744 78.2065 306.826 78.1785 306.88 78.0684C306.802 78.6448 306.724 79.2213 307.139 79.6294C307.277 79.7654 307.525 79.9554 307.717 79.9814C307.828 80.0353 307.938 80.0893 308.13 80.1153C308.13 80.1153 308.13 80.1152 308.158 80.1973C309.123 84.3579 309.649 88.5769 310.34 92.7396C310.571 94.2186 309.753 94.7735 309.463 96.3388C309.094 98.2064 309.465 100.096 309.973 101.847C311.803 108.002 313.908 114.156 316.231 120.143C317.967 124.682 322.039 122.922 325.539 121.633C328.547 120.513 335.175 119.529 334.29 115.066C333.716 111.78 332.237 108.528 331.199 105.492ZM320.123 88.3852C317.364 89.6956 314.41 90.7059 311.482 91.5241C311.135 89.1685 310.759 86.7309 310.33 84.4033C312.629 83.8917 314.706 82.9979 316.755 82.0221C317.619 83.743 318.565 85.4358 319.482 87.0465C319.704 87.4287 319.873 87.9209 320.123 88.3852ZM309.479 77.3625C310.054 77.166 310.244 76.9177 310.49 76.8335C310.928 76.7752 311.395 76.799 311.805 76.6587C312.051 76.5745 312.541 76.1319 312.759 75.9657C312.869 76.0196 313.225 75.9894 313.308 75.9614C313.5 75.9873 313.802 76.0672 314.048 75.983C314.294 75.8988 314.458 75.8427 314.512 75.7325C314.651 75.8686 314.899 76.0586 315.119 76.1665L315.065 76.2767C315.011 76.3868 314.957 76.4969 314.875 76.525C314.875 76.525 314.875 76.525 314.793 76.553C312.882 77.6649 310.639 78.3406 308.421 78.8241C308.311 78.7701 308.119 78.7442 308.009 78.6902C307.981 78.6082 307.981 78.6082 308.035 78.4981C308.033 78.2239 308.113 77.9216 308.11 77.6474C308.549 77.5891 309.015 77.6129 309.479 77.3625ZM309.335 79.8864C311.196 79.4331 313.001 78.8157 314.722 77.9521C315.14 78.9086 315.669 79.9191 316.17 80.8475C314.203 81.7953 312.18 82.579 310.073 83.1165C309.9 82.0758 309.617 80.9811 309.335 79.8864ZM310.771 74.1713C311.591 73.8907 312.63 73.4438 313.534 73.4093C314.165 73.377 314.523 73.6209 314.856 74.0571C314.61 74.1413 314.445 74.1974 314.281 74.2536C314.145 74.3917 314.009 74.5299 313.901 74.7501C313.819 74.7782 313.847 74.8602 313.847 74.8602C313.409 74.9185 312.858 74.6486 312.448 74.7889C312.038 74.9292 311.522 75.564 311.276 75.6482C311.112 75.7043 310.343 75.6007 310.015 75.7129C309.605 75.8532 309.115 76.2958 308.868 76.38C308.704 76.4362 307.908 76.2504 307.579 76.3627C307.415 76.4188 307.169 76.503 307.005 76.5591C307.487 75.0197 309.212 74.7046 310.771 74.1713ZM328.055 99.7856C329.262 103.314 330.359 106.788 331.566 110.316C332.015 111.628 332.574 112.995 332.969 114.418C333.621 117.128 331.408 118.16 329.056 119.056C326.595 119.898 323.537 121.677 320.934 121.834C318.248 122.02 317.714 120.461 317.069 118.574C315.161 112.994 313.116 107.553 311.372 101.918C311.063 101.016 310.836 100.085 310.664 99.0442C310.485 97.1809 311.16 95.9416 311.696 94.2921C311.884 93.7696 311.798 93.2493 311.711 92.7289C314.831 91.9367 317.839 90.8162 320.68 89.4777C320.903 89.8599 321.125 90.242 321.401 90.5141C321.54 90.6501 321.596 90.8142 321.734 90.9503C322.451 91.4382 323.245 91.3498 324.072 91.8917C324.707 92.4078 325.206 93.062 325.622 93.7443C326.788 95.5451 327.354 97.7344 328.055 99.7856Z" fill="white"/>
<path d="M74.6065 24.1283C74.6107 24.4014 74.778 24.6174 75.0512 24.6132C75.2714 24.719 75.5446 24.7148 75.732 24.4659C76.8277 22.8915 77.6132 20.6934 76.7926 18.8756C75.9148 16.8947 69.129 14.5139 72.3644 11.7312C72.8493 11.2865 72.5348 10.3898 71.8011 10.6471C69.3554 11.5048 67.1141 13.2064 67.9231 16.0354C69.0223 19.9528 74.8603 19.3701 74.6065 24.1283ZM71.2594 17.978C68.6124 16.4345 68.5255 14.3593 70.2247 12.9394C70.1273 13.706 70.3317 14.5498 70.8908 15.3608C71.4499 16.1718 72.335 16.8684 73.163 17.402C75.1779 18.7094 76.0759 20.2256 75.4778 22.1748C75.1347 21.1965 74.6571 20.3569 73.8821 19.7132C73.1314 18.8779 72.2504 18.4544 71.2594 17.978Z" fill="white"/>
<path d="M88.1739 28.6168C86.8842 26.5056 85.8221 23.2161 83.046 23.915C79.8338 24.6754 76.577 26.0922 73.3976 27.2073C71.6856 27.8077 68.8524 28.3436 67.3691 29.5962C65.9674 30.8202 66.8093 34.0039 67.2466 35.7731C65.7305 36.671 65.2054 38.0453 67.0615 39.6831C67.0615 39.6831 67.0615 39.6831 67.1717 39.736L67.2818 39.789C67.2818 39.789 67.3633 39.7604 67.3919 39.8419C67.3919 39.8419 67.4734 39.8133 67.502 39.8948L67.5835 39.8662L67.6651 39.8377C67.9096 39.7519 68.1542 39.6661 68.3172 39.6089C71.4155 45.5718 74.4323 51.5632 77.502 57.4445C78.2898 58.9077 78.76 61.0315 80.7822 61.0547C81.9035 61.1192 83.2036 60.3886 84.2634 60.0169C85.9754 59.4165 87.6059 58.8447 89.3179 58.2443C90.6223 57.7868 93.0479 57.3939 93.7074 55.8809C94.3384 54.2863 93.2519 51.1884 92.9819 49.6352C92.9533 49.5537 92.9533 49.5537 92.9247 49.4722L92.8961 49.3907C91.9058 43.6956 90.7239 37.9762 89.6521 32.3097C89.7337 32.2811 89.8152 32.2525 89.8967 32.2239C90.0598 32.1667 90.1942 32.028 90.2186 31.8364C90.2715 31.7263 90.2715 31.7263 90.3244 31.6161C90.535 29.3451 89.7028 28.5383 88.1739 28.6168ZM68.104 31.1695C68.2829 30.3743 68.0955 30.6231 69.0166 30.117C70.6428 29.272 72.575 28.7775 74.287 28.1771C76.4067 27.4337 78.4448 26.7189 80.593 26.0571C81.8973 25.5996 82.8185 25.0935 84.1928 25.6185C85.5671 26.1436 86.2734 27.6354 87.0855 28.9069C84.4196 29.6588 81.8108 30.5737 79.2836 31.46C75.6965 32.718 72.0523 33.813 68.6039 35.2055C68.1751 33.9826 67.7663 32.295 68.104 31.1695ZM70.3615 35.7792C71.9105 35.236 73.4594 34.6928 74.9269 34.1781C76.7204 33.5491 78.5139 32.9201 80.3074 32.2911C81.9379 31.7193 83.5155 31.2576 85.1459 30.6858C85.8796 30.4284 86.6949 30.1425 87.4572 29.9667C88.7086 29.6194 89.1777 29.9126 89.2233 31.0868C82.135 33.8474 74.8708 35.8457 67.7253 38.4432C66.2811 36.9356 69.7093 36.008 70.3615 35.7792ZM91.7992 49.1345C89.4964 50.3998 86.9649 51.013 84.5192 51.8707C82.1264 52.6184 79.7908 53.529 77.3695 54.1951C77.1736 53.8976 77.0592 53.5715 76.8633 53.274C75.2019 50.1031 73.6221 46.9036 71.9893 43.8142C77.7732 41.511 83.9532 40.0761 89.5984 37.6385C90.1057 40.3902 90.6946 43.1133 91.2019 45.865C91.3819 46.9005 91.5905 48.0175 91.7992 49.1345ZM92.315 52.4325C92.4336 53.0318 92.8339 54.1731 92.7079 54.8582C92.4031 56.3383 90.8742 56.4168 89.5698 56.8742C87.3687 57.6462 84.7398 59.0259 82.4487 59.2801C79.4767 59.6816 79.4269 58.2342 78.3288 56.1475C78.1329 55.8499 78.0186 55.5238 77.8227 55.2263C82.4494 54.0614 87.6998 52.5863 91.9549 50.3616C92.1021 51.0424 92.2493 51.7232 92.315 52.4325ZM89.3326 36.3584C83.5243 38.8532 77.2628 40.3168 71.3974 42.6485C70.8055 41.4828 70.1849 40.2356 69.593 39.0699C75.9519 36.8398 82.3436 34.9644 88.6739 32.6528C88.9111 33.8513 89.1483 35.0498 89.3326 36.3584Z" fill="white"/>
<path d="M84.8712 41.1275C83.7457 40.7898 82.1925 41.0599 81.3572 41.8106C79.4705 43.4794 77.8254 46.6198 78.52 49.1227C79.2147 51.6255 82.3381 52.1781 84.3963 50.9985C86.9437 49.6474 87.655 46.1936 86.7686 43.6664C86.5886 42.6309 86.0253 41.5467 84.8712 41.1275ZM79.6931 47.2464C79.9407 45.6032 80.8162 43.9229 82.0549 42.7561C82.2709 42.5888 82.4054 42.4501 82.65 42.3643C83.1974 44.1864 82.179 45.4591 81.6581 47.1066C81.2919 48.1506 81.2803 49.1617 81.4889 50.2787C80.3105 50.0511 79.474 48.9712 79.6931 47.2464ZM86.0604 45.5627C86.1431 47.3647 85.4105 49.4526 83.5355 50.1102C83.2909 50.196 83.0464 50.2818 82.8547 50.2574L82.8261 50.1759C82.2786 48.3538 83.2399 46.918 83.8423 45.242C84.2086 44.198 84.2202 43.1869 83.9586 42.18C84.4234 42.2001 84.9454 42.3832 85.2514 42.7337C85.8104 43.5447 85.9662 44.7718 86.0604 45.5627Z" fill="white"/>
<path d="M347.402 74.0501C347.372 74.3217 347.512 74.5568 347.783 74.5866C347.988 74.7191 348.26 74.7488 348.477 74.5253C349.76 73.0994 350.813 71.0162 350.225 69.1103C349.6 67.0356 343.164 63.8289 346.72 61.4705C347.257 61.0896 347.056 60.1606 346.296 60.3247C343.763 60.8714 341.327 62.2808 341.778 65.1885C342.381 69.2122 348.246 69.3606 347.402 74.0501ZM344.846 67.5312C342.412 65.6703 342.584 63.6004 344.447 62.403C344.255 63.1515 344.353 64.0142 344.806 64.8884C345.26 65.7627 346.052 66.5641 346.807 67.1965C348.644 68.7446 349.346 70.3606 348.51 72.2203C348.291 71.2069 347.922 70.3144 347.233 69.5793C346.592 68.657 345.77 68.1272 344.846 67.5312Z" fill="white"/>
<path d="M360.306 80.192C359.289 77.9368 358.644 74.5406 355.803 74.8887C352.521 75.2434 349.113 76.244 345.82 76.9547C344.046 77.3374 341.168 77.5166 339.541 78.5749C337.997 79.615 338.437 82.8787 338.65 84.6885C337.034 85.3908 336.342 86.6891 337.98 88.5452C337.98 88.5452 337.98 88.5452 338.083 88.6114L338.186 88.6776C338.186 88.6776 338.27 88.6594 338.288 88.7438C338.288 88.7438 338.373 88.7256 338.391 88.8101L338.475 88.7918L338.56 88.7736C338.813 88.7189 339.067 88.6643 339.235 88.6278C341.568 94.9298 343.815 101.25 346.129 107.468C346.729 109.017 346.931 111.183 348.935 111.458C350.039 111.662 351.42 111.098 352.518 110.861C354.292 110.479 355.981 110.114 357.754 109.732C359.105 109.44 361.561 109.352 362.403 107.933C363.228 106.429 362.535 103.22 362.461 101.645C362.442 101.561 362.442 101.561 362.424 101.476L362.406 101.392C362.132 95.618 361.671 89.7959 361.313 84.0401C361.397 84.0219 361.482 84.0037 361.566 83.9855C361.735 83.949 361.886 83.8281 361.934 83.641C362 83.5383 362 83.5383 362.066 83.4356C362.558 81.2084 361.832 80.3044 360.306 80.192ZM340.074 80.2274C340.35 79.4607 340.134 79.6843 341.11 79.2967C342.829 78.6606 344.808 78.4104 346.581 78.0277C348.777 77.5538 350.888 77.0982 353.102 76.7088C354.453 76.4172 355.43 76.0296 356.728 76.7216C358.027 77.4137 358.542 78.9817 359.19 80.3444C356.451 80.7587 353.748 81.3419 351.131 81.9069C347.415 82.7087 343.663 83.3417 340.068 84.2943C339.794 83.0276 339.599 81.3021 340.074 80.2274ZM341.74 85.0823C343.345 84.736 344.949 84.3898 346.469 84.0617C348.327 83.6608 350.185 83.2598 352.043 82.8589C353.732 82.4944 355.355 82.2326 357.044 81.8681C357.804 81.7041 358.648 81.5218 359.426 81.4423C360.711 81.2533 361.14 81.6027 361.039 82.7734C353.663 84.6305 346.206 85.7093 338.793 87.3975C337.548 85.7219 341.065 85.2281 341.74 85.0823ZM361.35 101.001C358.907 101.97 356.319 102.264 353.786 102.81C351.318 103.254 348.888 103.867 346.402 104.227C346.245 103.908 346.172 103.57 346.015 103.25C344.761 99.8971 343.591 96.5259 342.356 93.2573C348.381 91.6918 354.692 91.037 360.596 89.3208C360.757 92.1143 361.003 94.8895 361.164 97.683C361.213 98.7328 361.282 99.8671 361.35 101.001ZM361.451 104.338C361.494 104.947 361.749 106.13 361.539 106.794C361.052 108.224 359.526 108.112 358.174 108.404C355.894 108.896 353.114 109.937 350.809 109.905C347.81 109.933 347.941 108.491 347.111 106.284C346.954 105.964 346.881 105.626 346.724 105.307C351.459 104.727 356.852 103.916 361.351 102.238C361.413 102.932 361.474 103.626 361.451 104.338ZM360.492 88.0177C354.418 89.7703 348.023 90.4433 341.913 92.027C341.471 90.7968 341.011 89.482 340.568 88.2518C347.155 86.8303 353.731 85.7648 360.299 84.2588C360.386 85.4775 360.472 86.6963 360.492 88.0177Z" fill="white"/>
<path d="M279.219 78.6871C279.497 76.9243 279.683 75.2543 279.961 73.4915C280.054 72.6565 278.755 72.6565 278.662 73.4915C278.477 75.0687 278.198 76.7388 278.013 78.316C277.827 79.151 279.126 79.5221 279.219 78.6871Z" fill="white"/>
<path d="M279.683 71.7296C280.518 71.7296 280.518 70.4307 279.683 70.4307C278.848 70.4307 278.848 71.7296 279.683 71.7296Z" fill="white"/>
<path d="M288.868 112.088C288.961 108.192 288.961 104.295 288.868 100.491C303.991 99.0992 300.558 78.595 296.847 68.4821C296.847 68.2038 296.568 67.9254 296.197 68.0182C290.074 68.3893 283.951 68.2965 277.827 68.111H277.734C277.642 68.111 277.642 68.111 277.549 68.111C277.363 68.2038 277.178 68.2965 277.178 68.5749C275.693 75.6261 272.91 83.7906 274.765 91.1202C276.064 96.1303 280.239 99.6559 285.157 100.491V100.584C285.249 104.48 285.249 108.377 285.157 112.274C283.115 112.274 273.466 112.274 274.023 116.171C274.394 119.232 282.652 119.232 284.786 119.325C288.126 119.511 291.373 119.325 294.713 118.768C296.012 118.583 299.723 117.933 300.094 116.263C300.929 112.367 291.187 112.181 288.868 112.088ZM278.291 69.3171C284.136 69.5027 289.888 69.5954 295.733 69.2243C296.94 72.7499 298.238 77.6672 298.61 82.4917C298.517 82.4917 298.424 82.4917 298.424 82.5845C293.692 84.8112 289.981 84.3473 284.971 83.4195C281.817 82.7701 278.755 83.1412 275.693 84.069C275.972 79.0589 277.363 74.1416 278.291 69.3171ZM275.6 87.409C275.6 86.7596 275.6 86.0173 275.6 85.3679C277.92 84.6257 280.332 84.1618 282.837 84.3473C284.971 84.5329 286.919 85.2751 288.961 85.5534C292.486 86.1101 295.548 85.2751 298.702 83.7906C298.981 91.5841 296.754 98.8209 287.847 99.192C280.703 99.5631 275.879 94.1819 275.6 87.409ZM295.919 117.006C292.393 118.026 288.311 118.119 284.6 117.841C282.28 117.748 278.477 117.841 276.435 116.542C274.209 115.243 277.178 114.315 278.569 114.037C280.703 113.573 282.837 113.387 284.971 113.387C284.971 113.851 284.971 114.315 284.971 114.872C284.971 115.707 286.27 115.707 286.27 114.872C286.363 110.047 286.363 105.223 286.27 100.398C286.641 100.398 287.012 100.398 287.476 100.398C287.569 105.223 287.569 109.954 287.476 114.779C287.476 115.614 288.775 115.614 288.775 114.779C288.775 114.222 288.775 113.758 288.775 113.202C291.002 113.202 293.136 113.387 295.27 113.851C295.826 113.944 297.403 114.222 297.775 114.686C298.888 116.356 296.754 116.82 295.919 117.006Z" fill="white"/>
<path d="M154.985 15.1376C154.955 13.3532 154.849 11.6762 154.819 9.89181C154.767 9.05331 153.487 9.27744 153.54 10.1159C153.629 11.7015 153.643 13.3945 153.733 14.9801C153.694 15.8347 155.037 15.9761 154.985 15.1376Z" fill="white"/>
<path d="M154.241 8.20359C155.063 8.05951 154.839 6.78009 154.017 6.92417C153.194 7.06825 153.418 8.34767 154.241 8.20359Z" fill="white"/>
<path d="M170.252 46.3723C169.671 42.518 168.999 38.6798 168.251 34.9489C182.907 30.9686 175.988 11.3643 170.587 2.04343C170.539 1.76926 170.217 1.54313 169.868 1.69855C163.9 3.12069 157.852 4.08589 151.789 4.9597L151.697 4.97571C151.606 4.99172 151.606 4.99171 151.515 5.00772C151.348 5.13113 151.181 5.25453 151.229 5.5287C150.984 12.7303 149.651 21.2527 152.743 28.1521C154.887 32.8629 159.608 35.6152 164.596 35.5892L164.612 35.6806C165.375 39.5029 166.048 43.3412 166.629 47.1954C164.618 47.5476 155.114 49.2126 156.335 52.9548C157.228 55.9065 165.362 54.4817 167.48 54.2049C170.802 53.8114 173.968 53.0683 177.162 51.9437C178.41 51.5368 181.953 50.2567 182.03 48.5477C182.181 44.5653 172.553 46.0635 170.252 46.3723ZM152.454 6.06769C158.243 5.2419 163.925 4.34074 169.619 2.96663C171.415 6.23124 173.543 10.8507 174.741 15.5388C174.65 15.5548 174.558 15.5708 174.574 15.6622C170.298 18.6719 166.562 18.8553 161.467 18.8059C158.248 18.7105 155.296 19.6044 152.44 21.0465C151.85 16.0636 152.372 10.9799 152.454 6.06769ZM152.925 24.3525C152.813 23.7128 152.685 22.9817 152.573 22.342C154.73 21.2107 157.026 20.3375 159.525 20.088C161.659 19.9026 163.706 20.2975 165.765 20.2195C169.334 20.1595 172.205 18.8087 175.057 16.8022C176.675 24.4307 175.731 31.9431 167.022 33.8455C160.049 35.4438 154.368 30.9758 152.925 24.3525ZM178.046 49.9992C174.749 51.6128 170.744 52.4086 167.041 52.7747C164.74 53.0836 161.009 53.8313 158.775 52.9041C156.357 52.0089 159.122 50.5827 160.444 50.0684C162.466 49.2433 164.536 48.6923 166.638 48.3241C166.718 48.781 166.798 49.238 166.894 49.7863C167.038 50.6088 168.318 50.3847 168.174 49.5622C167.432 44.794 166.6 40.0419 165.676 35.3057C166.042 35.2417 166.407 35.1777 166.864 35.0976C167.788 39.8338 168.605 44.4945 169.346 49.2627C169.49 50.0852 170.769 49.861 170.625 49.0386C170.529 48.4902 170.449 48.0333 170.353 47.485C172.546 47.1008 174.68 46.9153 176.862 47.0041C177.426 46.9994 179.028 47.0014 179.474 47.3943C180.858 48.8472 178.837 49.6723 178.046 49.9992Z" fill="white"/>
<path d="M47.979 75.3694C47.9537 75.624 48.0874 75.8421 48.3439 75.8661C48.539 75.9872 48.7954 76.0113 48.9977 75.799C50.0522 74.562 50.9188 72.8707 50.3803 71.253C49.8417 69.6353 44.6398 67.0149 47.3883 65.1404C47.8903 64.7764 47.6914 63.91 46.9763 64.0741C44.9102 64.5482 42.8479 65.7677 43.3107 68.149C43.8315 71.512 48.614 71.5754 47.979 75.3694ZM45.9985 70.0197C44.091 68.6333 44.1449 67.0455 45.4307 66.0871C45.3188 66.6932 45.4634 67.3234 45.785 67.9958C46.2042 68.7288 46.8436 69.3283 47.465 69.849C48.9028 71.0116 49.5099 72.199 48.9864 73.5628C48.8237 72.8539 48.484 72.1027 47.9421 71.5637C47.4616 70.9277 46.7174 70.601 45.9985 70.0197Z" fill="white"/>
<path d="M55.0764 73.4916C55.0511 73.7462 55.1848 73.9643 55.4413 73.9883C55.6364 74.1094 55.8928 74.1335 56.0951 73.9212C57.3518 72.472 58.4026 70.4896 57.7918 68.5569C57.0834 66.5636 50.6857 63.4712 54.2179 61.0024C54.72 60.6384 54.5211 59.7719 53.806 59.9361C51.2631 60.5196 48.9805 61.8725 49.3928 64.7629C49.9788 68.7743 55.8485 68.837 55.0764 73.4916ZM52.4455 67.1303C49.9348 65.3019 50.1981 63.1686 52.0039 61.925C51.7512 62.6463 51.8705 63.531 52.4234 64.4821C52.8787 65.3726 53.7132 66.0932 54.4321 66.6745C56.2963 68.2367 57.0732 69.7997 56.1813 71.7456C56.0439 70.7821 55.5705 69.8128 54.8949 69.0558C54.2012 68.22 53.262 67.7722 52.4455 67.1303Z" fill="white"/>
<path d="M73.6504 75.697C72.1801 75.1223 70.7931 75.2747 69.6663 76.1967C69.2867 74.5425 68.4593 73.4886 66.9386 73.423L66.8591 73.4412L66.7797 73.4595C57.728 75.2049 48.261 76.9628 39.4443 79.7322C36.4789 80.6615 37.2306 82.479 38.0041 85.1207C38.8932 87.9016 40.1001 90.6097 41.8886 92.9355C43.0628 94.4073 44.3417 95.6064 45.8662 96.4174C43.2981 97.2554 38.8267 99.2765 39.4232 101.876C39.9545 103.827 43.5955 103.655 45.0801 103.563C45.6544 103.514 46.2287 103.465 46.8825 103.398C49.3032 106.657 55.1798 104.562 58.3764 103.911C61.2551 103.334 64.3723 102.701 67.027 101.512C68.6053 100.735 69.2264 99.4314 69.8726 97.8735C71.9639 97.1449 75.1929 95.9064 75.608 94.0699C76.301 91.2575 69.373 91.6865 66.44 92.0279C66.6242 91.7368 66.8697 91.3488 67.0539 91.0578C67.1334 91.0396 67.2128 91.0214 67.2923 91.0031C71.6266 89.8427 77.1741 85.5847 76.5121 80.5128C76.3347 78.6464 75.4927 76.4351 73.6504 75.697ZM69.8839 80.7901C70.2451 80.5413 70.8265 80.1592 71.3395 80.2073C71.9499 80.316 72.3329 80.8914 72.38 81.461C72.4018 82.2852 71.8674 83.237 71.4015 83.7585C70.8743 84.377 69.9678 85.1654 69.1298 85.5235C69.3969 84.1356 69.6891 82.4931 69.8044 80.8083C69.902 80.8688 69.902 80.8688 69.8839 80.7901ZM64.2059 101.247C62.5733 101.787 60.8251 102.188 59.1564 102.571C56.693 103.137 50.5419 105.129 48.2515 103.167C51.0869 102.765 53.9295 102.03 56.7288 101.47C60.6406 100.655 64.5957 99.6649 68.399 98.3775C67.3987 99.8508 66.1563 100.633 64.2059 101.247ZM65.7214 93.2707C67.5672 92.93 69.4852 92.9045 71.4394 93.0365C72.0318 93.0664 73.5344 93.0532 73.9427 93.3741C74.9723 94.2158 71.9564 95.6541 71.3569 95.9575C66.8421 98.1544 61.8179 99.2244 56.9525 100.258C54.6481 100.787 52.405 101.219 50.0825 101.669C47.8395 102.1 44.3179 103.157 42.024 102.274C38.986 101.064 42.6628 99.2254 44.0027 98.5033C45.0429 97.933 46.1192 97.5201 47.2137 97.1861C47.2137 97.1861 47.2136 97.1861 47.2931 97.1678C49.9952 98.372 53.1089 98.8183 56.2622 98.3434C60.1488 97.7832 63.3307 95.9751 65.642 93.2889C65.642 93.2889 65.642 93.2889 65.7214 93.2707ZM65.5008 91.5801C61.7019 97.261 53.0837 99.0728 47.0834 95.8893C44.4246 94.5094 42.4591 92.1413 41.1113 89.5485C40.273 88.0825 39.6551 86.4831 39.1166 84.8654C38.9106 84.3322 38.4986 83.2659 38.531 82.6781C38.5739 80.6782 40.5714 80.6344 41.9223 80.3244C50.2117 78.1735 58.5554 76.2588 66.8738 74.5987C69.3229 74.7 68.562 81.5909 68.3925 83.0394C68.0716 86.0151 67.1944 89.1185 65.5008 91.5801ZM74.2878 84.6716C72.8326 87.0784 70.4633 88.7829 67.7544 89.7362C67.9819 89.2695 68.1913 88.7239 68.4007 88.1784C68.5054 87.9056 68.6534 87.457 68.7833 86.9297C70.7519 86.3951 72.9512 84.3149 73.4096 82.3027C73.6081 81.345 73.4526 80.3028 72.6361 79.661C71.8016 78.9404 70.7505 79.0987 69.8692 79.6326C69.8835 78.966 69.8979 78.2994 69.8327 77.651C71.5625 75.3469 74.2936 77.0419 75.0381 79.1927C75.7464 81.186 75.4542 82.8285 74.2878 84.6716Z" fill="white"/>
<path d="M313.446 25.5093C313.444 25.8026 313.619 26.0376 313.915 26.0383C314.15 26.1562 314.445 26.1569 314.654 25.8935C315.729 24.3714 316.542 22.3502 315.758 20.5596C314.975 18.7691 308.763 16.32 311.705 13.8936C312.241 13.4257 311.923 12.4573 311.124 12.7193C308.815 13.4759 306.588 15.0831 307.364 17.7533C308.309 21.5382 313.776 21.1119 313.446 25.5093ZM310.628 19.6087C308.306 18.2248 308.202 16.4066 309.569 15.1785C309.505 15.882 309.736 16.5863 310.173 17.3204C310.728 18.1135 311.52 18.7312 312.284 19.2609C314.047 20.4381 314.863 21.7303 314.408 23.3419C314.148 22.5496 313.682 21.7274 313.007 21.1686C312.393 20.4927 311.509 20.1973 310.628 19.6087Z" fill="white"/>
<path d="M321.353 22.6258C321.351 22.919 321.526 23.154 321.821 23.1548C322.057 23.2726 322.352 23.2734 322.561 23.01C323.844 21.2245 324.837 18.8519 323.938 16.7092C322.922 14.5075 315.296 11.6445 319.071 8.45769C319.606 7.98986 319.288 7.02146 318.489 7.28338C315.647 8.21467 313.182 9.99723 313.955 13.2539C315.042 17.7721 321.749 17.2316 321.353 22.6258ZM317.686 15.6382C314.629 13.8127 314.707 11.3498 316.639 9.74186C316.426 10.5917 316.655 11.5892 317.385 12.6172C317.997 13.5864 319.025 14.322 319.907 14.9106C322.198 16.4996 323.248 18.2029 322.432 20.5173C322.175 19.4318 321.533 18.3746 320.683 17.5808C319.804 16.699 318.685 16.2857 317.686 15.6382Z" fill="white"/>
<path d="M342.787 23.2062C341.048 22.7035 339.481 23.0221 338.291 24.1921C337.685 22.3433 336.631 21.2265 334.888 21.3101L334.799 21.3392L334.71 21.3684C324.559 24.3048 313.935 27.2988 304.158 31.3797C300.87 32.7497 301.918 34.7462 303.076 37.6812C304.381 40.7633 306.041 43.7289 308.325 46.1976C309.819 47.7553 311.404 48.9907 313.229 49.7576C310.385 50.9821 305.491 53.7556 306.443 56.6609C307.253 58.8327 311.392 58.2564 313.077 57.9967C313.728 57.881 314.378 57.7653 315.117 57.6206C318.221 61.0882 324.711 58.0841 328.292 57.008C331.518 56.0483 335.011 55.0013 337.917 53.3665C339.638 52.3151 340.211 50.7625 340.787 48.9166C343.098 47.8667 346.655 46.1162 346.937 43.9764C347.435 40.6936 339.571 41.9057 336.258 42.6012C336.438 42.2498 336.678 41.7813 336.858 41.4298C336.947 41.4007 337.036 41.3716 337.125 41.3425C341.952 39.5658 347.84 34.1265 346.556 28.4055C346.159 26.2934 344.967 23.8567 342.787 23.2062ZM339.018 29.4132C339.404 29.0916 340.028 28.5947 340.619 28.5961C341.327 28.6565 341.824 29.2735 341.938 29.9189C342.048 30.8574 341.538 31.9997 341.06 32.6436C340.523 33.4047 339.57 34.3993 338.651 34.8955C338.811 33.2832 338.973 31.3776 338.929 29.4423C339.047 29.5012 339.047 29.5012 339.018 29.4132ZM334.669 53.3585C332.862 54.1457 330.908 54.786 329.043 55.3971C326.29 56.2993 319.475 59.2147 316.656 57.2138C319.851 56.4594 323.02 55.3236 326.157 54.3931C330.538 53.0551 334.949 51.5119 339.157 49.6457C338.169 51.4319 336.832 52.4548 334.669 53.3585ZM335.568 44.095C337.639 43.5136 339.826 43.2845 342.071 43.2313C342.75 43.2037 344.464 43.032 344.964 43.3558C346.227 44.2092 342.934 46.1657 342.281 46.5746C337.356 49.5533 331.732 51.2987 326.286 52.9859C323.71 53.8299 321.195 54.5567 318.59 55.3127C316.075 56.0395 312.165 57.6133 309.454 56.8442C305.859 55.7798 309.865 53.2973 311.32 52.3332C312.448 51.5736 313.633 50.9901 314.848 50.4947C314.848 50.4947 314.848 50.4947 314.937 50.4656C318.147 51.5584 321.748 51.7432 325.298 50.8723C329.677 49.8275 333.121 47.4316 335.479 44.1241C335.479 44.1241 335.479 44.1241 335.568 44.095ZM335.14 42.188C331.395 49.0694 321.746 52.0364 314.564 49.0279C311.385 47.7299 308.894 45.2313 307.085 42.412C305.975 40.8258 305.103 39.0644 304.319 37.2738C304.029 36.6867 303.447 35.5123 303.423 34.8379C303.263 32.5504 305.539 32.2921 307.049 31.7973C316.288 28.4774 325.613 25.4217 334.936 22.6591C337.743 22.5194 337.593 30.4653 337.55 32.1365C337.494 35.567 336.816 39.2013 335.14 42.188ZM344.45 33.385C343.04 36.2844 340.513 38.4774 337.52 39.8481C337.731 39.2915 337.913 38.6469 338.095 38.0022C338.186 37.6799 338.309 37.1524 338.402 36.5369C340.593 35.7213 342.887 33.1173 343.201 30.7723C343.327 29.6584 343.041 28.4848 342.042 27.8373C341.014 27.1017 339.831 27.392 338.881 28.0934C338.828 27.3309 338.774 26.5684 338.632 25.835C340.367 23.0243 343.661 24.6745 344.736 27.0522C345.752 29.2539 345.59 31.1594 344.45 33.385Z" fill="white"/>
<path d="M306.695 35.5203C306.347 34.7571 305.104 35.1645 305.452 35.9277C306.757 39.0097 308.686 41.5948 311.268 43.771C311.943 44.3298 312.806 43.3643 312.132 42.8055C309.696 40.7763 307.825 38.3673 306.695 35.5203Z" fill="white"/>
<path d="M313.505 44.5975C312.706 44.8594 313.11 46.0919 313.909 45.83C314.709 45.5681 314.305 44.3356 313.505 44.5975Z" fill="white"/>
</svg>
