<svg width="285" height="106" viewBox="0 0 285 106" fill="none" xmlns="http://www.w3.org/2000/svg">
<path d="M58.3802 72.0576C56.5201 72.6387 56.5201 72.6387 57.1101 76.1606C57.7424 80.0905 58.3987 84.0971 59.1861 87.9785C59.3907 89.1781 59.0824 90.3694 59.6985 91.5246C59.9438 92.0376 59.3958 92.4616 58.8772 92.7078C55.8915 94.3145 52.7619 95.4607 49.3926 95.8395C47.6691 96.041 46.6544 95.5157 45.8704 93.8233C41.4822 83.3175 37.2251 72.6864 33.6655 61.8375C33.3059 60.6864 32.8999 60.4762 31.7134 60.7627C25.936 62.1466 20.8638 60.6146 16.7478 56.4254C12.2555 51.8484 8.33519 46.9242 6.47062 40.6839C5.79928 38.5351 5.46193 36.3662 5.76856 34.0804C5.8979 32.8607 6.3077 31.7219 7.09943 30.7164C8.92096 28.3785 11.6703 28.1934 13.7551 30.2375C15.4634 31.8938 16.3913 34.0467 17.2416 36.2238C18.5051 39.451 19.3275 42.9003 20.9785 46.0065C22.6534 49.1895 25.061 51.7224 28.7661 52.4179C30.8603 52.8587 30.9673 52.6568 30.4214 50.6373C28.0996 41.8443 26.4218 32.9344 26.032 23.7906C25.9438 20.7858 26.3151 17.8901 27.6588 15.1118C28.4912 13.4198 29.5506 11.9095 31.0878 10.8396C35.2583 7.85199 39.8878 8.51145 43.0074 12.5065C45.4278 15.625 45.9882 19.3247 46.7811 22.9517C48.6914 31.7889 50.6018 40.6262 52.5121 49.4634C53.4433 53.8053 54.3745 58.1472 54.9717 62.5091C55.1283 63.5552 55.3793 63.8138 56.3684 63.1678C58.2691 61.9001 59.2325 60.0829 59.9451 58.0072C60.6336 55.8547 60.8867 53.6698 61.2174 51.4607C61.5591 48.7427 61.9784 46.0005 62.7795 43.3917C63.5032 40.807 64.6568 38.5093 67.124 37.1488C70.2647 35.4937 73.9586 36.6982 76.093 39.9903C77.3068 41.9696 77.7992 44.09 77.6476 46.3275C77.4419 52.2038 75.9115 57.6517 72.8237 62.7438C69.8431 67.634 65.1228 69.951 58.3802 72.0576ZM35.6287 62.4034C36.1082 63.9382 36.6117 65.5498 37.0912 67.0847C40.081 75.8374 43.7443 84.2954 46.9666 92.9754C47.4756 94.3326 48.162 94.6236 49.3964 94.4906C52.1218 94.2287 54.5059 93.1469 56.9915 92.1177C58.0526 91.702 58.3202 91.1972 58.062 90.0986C57.389 86.8553 56.7935 83.5878 56.2755 80.2961C54.7766 71.4145 53.7132 62.5654 51.8029 53.7281C49.4058 42.516 46.9312 31.3281 44.5341 20.1159C43.9994 17.5875 43.1546 15.156 41.4813 13.0675C38.9299 10.0742 35.3208 9.6856 32.1394 12.0273C30.1316 13.4969 28.8821 15.4877 28.2655 17.8704C27.5658 20.5318 27.558 23.2296 27.7827 25.8549C28.5836 38.4923 31.6024 50.6052 35.6287 62.4034ZM60.4638 69.4693C65.0307 68.2951 68.9281 66.0667 71.4566 61.9074C74.1456 57.4453 75.7664 52.5588 76.1104 47.3974C76.2324 45.3376 76.0445 43.3747 75.2126 41.5288C74.2073 39.4002 72.4933 37.9983 70.006 37.9331C67.5963 37.8436 66.2029 39.374 65.1859 41.2921C64.6507 42.3017 64.2944 43.3395 64.0396 44.4299C63.5485 46.9419 63.0333 49.3771 62.6436 51.9416C62.2299 54.4294 61.9952 56.9455 61.1221 59.3241C60.4391 61.2221 59.6251 63.2453 57.7116 63.9274C55.4345 64.8073 55.3291 66.1037 55.9045 67.9455C56.0484 68.406 56.0373 68.9149 56.0796 69.3228C56.1588 70.3931 56.4817 70.8818 57.5962 70.3651C58.5023 69.9978 59.5337 69.7598 60.4638 69.4693ZM32.0407 56.3646C31.8728 55.8274 31.705 55.2902 31.5132 54.6763C31.3454 54.1391 31.172 53.8563 30.528 53.9733C25.9537 54.3074 22.9261 51.9682 20.5944 48.3166C18.6094 45.2305 17.6855 41.7287 16.553 38.3762C15.7083 35.9447 14.786 33.5374 13.0353 31.4732C11.4099 29.5382 9.04253 29.8567 7.78748 32.1019C7.33531 32.8328 7.18755 33.7213 7.09334 34.5088C6.94728 36.4918 7.21271 38.4305 7.78814 40.2723C9.9276 46.8479 14.0213 52.0548 19.1041 56.6158C22.1501 59.2862 25.8256 60.1595 29.8149 59.587C32.7728 59.2525 32.7728 59.2525 32.0407 56.3646Z" fill="#4A6D39"/>
<path d="M30.0547 26.3085C30.0721 24.9825 30.1682 23.632 30.2421 22.2107C30.2889 21.8077 30.5593 21.5678 30.9967 21.5865C31.4342 21.6052 31.5227 21.8883 31.5325 22.1959C31.5372 23.5926 31.6206 24.9648 31.5466 26.3861C31.5785 26.7645 31.2737 27.1705 30.7575 27.1764C30.32 27.1577 30.2881 26.7793 30.0547 26.3085Z" fill="#4A6D39"/>
<path d="M41.8481 67.0521C41.898 67.4971 42.0073 67.8468 41.9322 68.1772C41.9166 68.4124 41.8416 68.7429 41.4949 68.7744C41.2294 68.7806 40.9202 68.6469 40.8765 68.5071C40.2553 67.0892 39.634 65.6713 39.1158 64.298C39.0503 64.0882 39.169 63.8976 39.4126 63.8215C39.7375 63.72 39.9654 63.8791 40.031 64.0889C40.6023 65.0618 41.2768 66.0792 41.8481 67.0521Z" fill="#4A6D39"/>
<path d="M51.8956 77.7013C51.739 77.344 51.4899 76.6907 51.2639 76.1114C51.1073 75.7541 50.9507 75.3969 51.1503 75.172C51.35 74.9471 51.5245 75.2176 51.7221 75.562C52.1635 76.399 52.605 77.2359 52.7595 78.1625C52.8572 78.6194 53.0244 79.2984 52.6324 79.3396C52.3223 79.3552 52.1783 78.7503 52.0627 78.3802C52.0164 78.2322 51.9702 78.0842 51.8956 77.7013Z" fill="#4A6D39"/>
<path d="M43.8531 38.1786C44.026 39.0605 44.2035 39.629 44.2654 40.1556C44.3543 40.4398 44.2561 40.7825 43.8821 40.8993C43.5081 41.0162 43.3258 40.7611 43.1657 40.5772C42.4365 39.5571 42.2905 38.4328 42.2158 37.2083C42.2427 36.9659 42.3631 36.6943 42.7371 36.5775C43.2045 36.4314 43.5516 36.557 43.6404 36.8412C43.7467 37.5099 43.8086 38.0365 43.8531 38.1786Z" fill="#4A6D39"/>
<path d="M48.1868 51.3934C48.4195 52.3377 48.7744 53.0743 48.7073 53.858C48.7228 54.1074 48.6246 54.3923 48.5109 54.4278C48.3404 54.4811 48.1302 54.2078 48.0578 53.9761C47.6805 52.5686 47.3031 51.161 46.9016 49.6762C46.8292 49.4445 46.9515 49.2368 47.0893 49.2785C47.2272 49.3202 47.4459 49.4214 47.4942 49.5758C47.7923 50.3301 48.0421 50.9301 48.1868 51.3934Z" fill="#4A6D39"/>
<path d="M48.2754 64.7965C47.1813 63.7103 46.965 62.2746 46.5056 60.9901C46.4414 60.7847 46.5573 60.5981 46.6845 60.6335C46.8117 60.669 47.0131 60.7563 47.1088 60.8768C47.5997 62.0763 48.4609 63.1602 48.2754 64.7965Z" fill="#4A6D39"/>
<path d="M35.0738 41.7792C33.9843 40.1971 34.4154 38.4021 34.3043 36.7764C34.32 36.5093 34.3607 36.3219 34.6566 36.3168C35.0181 36.2039 35.0927 36.4427 35.1674 36.6815C35.2785 38.3072 35.7105 40.0073 35.0738 41.7792Z" fill="#4A6D39"/>
<path d="M48.7673 86.0972C48.5577 85.7304 48.5213 85.3095 48.9542 85.1743C49.3005 85.0661 49.5101 85.4329 49.6951 85.7209C50.139 86.5332 50.694 87.3972 51.2244 88.1825C51.4341 88.5493 51.4705 88.9701 51.0622 89.1841C50.5673 89.4252 50.2712 89.0855 50.0615 88.7187C49.5931 87.8276 49.2358 86.9883 48.7673 86.0972Z" fill="#4A6D39"/>
<path d="M47.581 76.4225C47.6772 76.9273 48.175 77.9305 47.6151 78.1054C47.1112 78.2629 46.8933 77.1722 46.6904 76.5225C46.6143 76.2789 46.5635 76.1165 46.4874 75.8728C46.3352 75.3856 46.1016 74.8346 46.6055 74.6772C47.0534 74.5372 47.2004 75.2044 47.3526 75.6916C47.378 75.7729 47.4541 76.0165 47.581 76.4225Z" fill="#4A6D39"/>
<path d="M38.9451 26.531C38.0113 25.6528 38.0009 24.5642 37.8102 23.5318C37.7436 23.3186 37.8416 23.21 37.9996 23.0827C38.2399 23.0076 38.4045 23.1122 38.4933 23.3964C38.8041 24.3912 39.2351 25.3485 38.9451 26.531Z" fill="#4A6D39"/>
<path d="M38.4429 55.7011C36.4068 54.6831 36.6625 53.2102 36.8125 51.8574C36.8191 51.42 37.7322 51.1348 37.8561 51.5314C38.2278 52.7212 39.0156 53.868 38.4429 55.7011Z" fill="#4A6D39"/>
<path d="M64.4323 58.4563C64.3605 57.5957 64.3327 56.5607 64.3049 55.5258C64.3261 55.2784 64.4371 55.0029 64.819 54.9638C65.2009 54.9248 65.2922 55.2174 65.3608 55.4368C65.5681 56.4156 65.7754 57.3945 65.8929 58.4013C65.9174 58.7951 65.9876 59.3351 65.4262 59.4302C64.7751 59.5534 64.638 59.1145 64.4323 58.4563Z" fill="#4A6D39"/>
<path d="M68.9622 45.1135C69.2115 44.5016 67.8608 43.7027 69.0646 43.3266C70.4907 42.9574 70.0574 44.3899 70.4753 45.0224C70.497 45.0919 70.5404 45.2309 70.4618 45.3318C70.4132 45.8811 70.6521 46.6457 69.8279 46.827C68.9033 47.0395 69.166 46.1181 68.9136 45.6628C68.9705 45.4925 68.9271 45.3534 68.9622 45.1135Z" fill="#4A6D39"/>
<path d="M70.8584 55.0595C70.9667 54.3607 69.771 53.3213 71.2825 52.9322C72.5956 52.6051 72.0578 54.0198 72.4691 54.6394C72.6392 54.8355 72.6347 55.1694 72.6064 55.4276C72.6019 55.7615 72.6447 56.2468 72.0495 56.4327C71.3552 56.6496 71.2133 56.1953 71.095 55.8167C71.024 55.5895 70.953 55.3623 70.8584 55.0595Z" fill="#4A6D39"/>
<path d="M16.4372 45.3689C16.3215 44.9988 16.1347 44.5696 15.996 44.1255C15.8803 43.7553 15.5743 43.2822 15.9355 43.088C16.2007 42.924 16.3394 43.3681 16.5031 43.7233C16.9942 44.7886 17.5084 45.9281 17.8073 47.0535C17.946 47.4977 18.0118 48.0459 17.6755 48.151C17.3392 48.256 17.1061 47.6788 16.9905 47.3087C16.7343 46.6574 16.5973 46.0502 16.4372 45.3689Z" fill="#4A6D39"/>
<path d="M9.61146 38.7612C9.43429 37.6774 9.2106 36.703 9.06045 35.7057C8.99889 35.2503 9.11143 34.8354 9.5797 34.7841C10.048 34.7327 10.3767 35.0097 10.4652 35.5516C10.5884 36.4624 10.8121 37.4368 10.9352 38.3476C11.0508 38.976 11.4681 39.7949 10.7327 40.0247C9.85019 40.3004 9.92067 39.2342 9.61146 38.7612Z" fill="#4A6D39"/>
<path d="M19.5995 55.7529C19.6966 55.1477 19.2656 54.3789 20.2616 53.9035C20.6726 53.6929 21.0736 54.0605 21.0167 54.4889C20.8561 55.1961 21.6179 56.1079 20.535 56.6105C19.9502 56.8753 19.7398 56.2019 19.5995 55.7529Z" fill="#4A6D39"/>
<path d="M255.359 37.0078C255.587 40.9625 255.547 44.8771 255.034 48.9031C256.452 48.5688 257.376 47.8867 258.451 47.4097C258.745 47.2715 259.142 47.0576 259.356 47.4544C259.57 47.8512 259.16 48.1544 258.866 48.2926C257.88 48.7829 256.907 49.1841 255.922 49.6745C256.172 50.4414 256.818 50.9943 257.287 51.5204C257.514 51.8281 258.174 52.2918 257.662 52.6708C257.033 53.2147 256.769 52.537 256.466 52.1268C256.011 51.5114 255.645 50.9095 254.887 49.884C253.848 56.2017 252.533 61.9308 251.306 67.6734C254.304 67.7583 259.032 64.8204 260.071 62.1498C260.526 60.9416 259.357 60.2192 258.942 59.3364C258.666 58.7478 257.484 58.1146 258.188 57.6733C259.009 57.067 259.37 58.3065 259.749 58.8192C260.129 59.332 260.405 59.9205 260.923 60.7276C261.636 59.0111 262.221 57.5487 262.791 56.1755C263.518 54.3698 264.397 52.7693 265.873 51.4407C266.605 50.821 267.452 50.0364 268.268 50.0677C271.418 50.3577 271.368 48.2532 271.498 46.1756C271.538 45.908 271.564 45.7297 271.605 45.4622C271.836 45.1323 271.765 44.3922 272.465 44.5884C272.987 44.7578 272.639 45.2527 272.572 45.6986C272.385 46.9469 272.211 48.1061 271.997 49.5329C272.805 49.0157 273.612 48.4986 274.406 48.0706C274.905 47.7808 275.699 47.3529 275.976 47.9414C276.418 48.6459 275.472 48.8688 274.986 49.0694C274.192 49.4973 273.411 49.8361 272.756 50.5584C276.03 53.0554 276.057 56.5241 275.763 60.3094C276.673 59.7165 277.391 59.186 278.185 58.758C278.582 58.544 279.095 58.1651 279.371 58.7536C279.572 59.2396 279.086 59.4402 278.689 59.6542C277.984 60.0955 277.128 60.3318 276.369 61.1298C277.146 61.4286 277.654 61.6872 278.265 61.8701C278.698 62.0261 279.296 62.2981 279.126 62.8198C278.943 63.4306 278.346 63.1586 277.926 62.9133C277.163 62.5254 276.298 62.2132 275.46 61.7227C274.929 64.652 274.055 67.4385 272.811 70.2607C274.14 69.913 275.175 69.7035 276.209 69.494C276.58 69.4584 277.142 69.3603 277.253 69.833C277.351 70.3947 276.879 70.5062 276.419 70.5284C275.371 70.8271 274.336 71.0366 273.301 71.2461C272.458 71.3931 272.316 71.7364 272.86 72.3651C273.404 72.9938 274.037 73.6359 274.733 74.4697C273.328 74.7148 272.962 74.1129 272.659 73.7027C271.763 72.3829 271.236 72.851 270.527 73.9299C267.267 78.6379 262.668 81.3217 257.048 82.3022C256.397 82.3869 255.772 82.2932 255.157 82.7479C255.866 83.4926 256.575 84.2372 257.195 84.9684C257.512 85.2895 257.726 85.6863 257.392 86.092C256.968 86.4843 256.665 86.0741 256.348 85.7531C255.88 85.2269 255.5 84.7142 254.805 83.8804C254.644 84.9504 254.537 85.6638 254.43 86.3772C254.377 86.7338 254.158 86.9746 253.801 86.9211C253.444 86.8675 253.306 86.5733 253.36 86.2166C253.453 85.5924 253.382 84.8523 253.654 84.2548C254.265 82.6141 253.462 82.4937 252.159 82.663C251.419 82.7343 250.603 82.7031 249.862 82.7744C246.481 82.8143 246.557 82.9168 245.554 85.9575C244.421 89.2523 243.288 92.5471 242.155 95.8419C241.843 96.7068 241.571 97.3042 240.398 97.2194C233.73 96.6751 227.115 95.774 220.62 94.0704C219.474 93.8073 219.108 93.2054 219.09 92.1086C219.161 83.731 219.053 75.3266 219.864 66.8777C219.989 65.4376 219.802 64.8625 218.33 65.5534C217.255 66.0304 216.18 66.5074 214.918 66.4093C214.886 65.4016 215.689 65.5221 216.175 65.3215C216.853 65.0585 217.607 64.898 218.374 64.6484C220.587 63.8861 220.484 63.9619 218.99 62.3701C218.673 62.0491 218.075 61.777 218.182 61.0637C219.115 60.93 219.489 62.0803 220.395 62.125C221.211 56.6856 222.459 51.4023 224.475 45.8694C223.057 46.2037 222.008 46.5023 220.871 46.7876C220.501 46.8232 219.988 47.2022 219.801 46.627C219.627 45.9627 220.189 45.8646 220.572 45.7398C221.826 45.2896 223.293 45.2362 224.408 44.4917C225.113 44.0503 225.447 43.6446 225.019 42.851C224.667 42.1599 224.519 41.3172 224.283 40.4611C224.158 40.0777 223.957 39.5917 224.443 39.3911C225.211 39.1415 225.104 39.8548 225.318 40.2517C225.594 40.8402 225.679 41.4912 226.005 42.3606C228.306 37.9646 230.732 33.9521 234.238 30.6485C232.931 29.6319 231.713 28.6286 230.495 27.6254C230.255 27.4069 229.849 27.0725 230.17 26.756C230.518 26.2611 230.91 26.6847 231.24 26.9165C232.382 27.8172 233.292 29.0478 234.666 29.6186C235.01 27.9378 234.55 26.1365 236.066 24.5404C236.553 26.1634 235.433 27.5455 236.009 29.1818C237.432 28.2099 238.944 27.2514 240.581 26.6764C242.307 26.1147 244.095 25.7448 245.866 26.1016C247.102 26.3781 247.628 25.9099 248.145 24.8934C248.533 24.131 248.939 22.6419 249.943 23.2483C250.692 23.7255 249.194 24.5948 248.908 25.2814C248.895 25.3705 248.792 25.4463 248.574 25.6871C250.014 25.812 251.143 24.9783 252.307 24.5147C252.793 24.3141 253.485 23.9619 253.775 24.4613C254.114 25.2416 253.271 25.3887 252.784 25.5893C251.812 25.9905 250.764 26.2891 249.408 26.8151C252.459 28.3669 254.114 30.7122 254.743 33.8154C255.845 33.1601 256.21 31.9384 257.477 31.399C257 32.148 256.599 32.9996 255.943 33.7218C255.274 34.5333 255.31 34.9033 256.237 35.4072C257 35.7951 258.642 36.4061 258.191 36.9767C257.509 37.8773 256.626 36.4684 255.76 36.1562C255.595 36.0403 255.43 35.9243 255.328 36.0001C255.234 36.6243 255.296 36.816 255.359 37.0078ZM242.432 28.3217C238.293 29.1596 235.505 31.9327 232.931 35.1025C226.87 42.6727 223.989 51.5406 222.482 60.9793C220.962 70.5071 221.163 80.1108 221.008 89.661C220.932 93.2055 220.932 93.2055 224.501 93.7408C224.59 93.7541 224.693 93.6784 224.706 93.5892C224.657 91.4847 224.594 89.4695 224.545 87.365C224.647 78.1715 226.533 69.2456 228.33 60.3064C228.687 58.5364 229.298 56.8957 227.29 55.6828C227.125 55.5669 226.987 55.2726 226.925 55.0809C226.786 54.7866 226.675 54.314 227.072 54.1C227.469 53.886 227.696 54.1937 227.924 54.5013C228.303 55.0141 228.477 55.6784 229.28 55.7989C231.621 45.6647 235.144 36.1638 242.673 28.5402C242.878 28.3886 243.159 28.3396 243.021 28.0453C243.021 28.0453 242.637 28.1701 242.432 28.3217ZM248.998 28.9418C248.922 28.8393 248.743 28.8125 248.668 28.71C248.641 28.8883 248.627 28.9775 248.601 29.1558C250.376 36.1692 250.417 43.1959 249.347 50.3295C247.622 61.8324 244.215 72.9919 240.477 83.9196C239.345 87.2144 237.958 90.3799 236.647 93.6479C236.491 94.0804 236.397 94.7046 235.71 94.4192C235.201 94.1605 235.549 93.6657 235.692 93.3224C236.147 92.1141 236.691 90.9193 237.146 89.711C238.524 85.9972 240.067 82.3992 241.191 78.556C239.942 78.3687 238.907 78.5782 237.872 78.7877C237.502 78.8233 236.913 79.0997 236.815 78.5379C236.717 77.9761 237.292 77.7889 237.765 77.6775C238.684 77.6329 239.603 77.5884 240.522 77.5439C240.12 76.5719 239.473 76.019 238.84 75.3769C238.612 75.0693 238.117 74.7215 238.63 74.3425C238.938 74.1152 239.357 74.3604 239.496 74.6547C240.191 75.4885 240.798 76.3089 241.57 77.2452C243.577 71.1639 245.289 65.2208 246.658 59.135C247.091 57.4675 247.189 56.2057 245.177 55.6304C244.833 55.4878 244.593 55.2693 244.262 55.0374C243.767 54.6896 242.991 54.3908 243.366 53.7176C243.754 52.9552 244.387 53.5973 244.896 53.8559C245.734 54.3464 246.368 54.9885 247.425 55.2382C248.495 49.9282 249.119 44.5512 249.016 39.1564C248.887 35.7634 248.565 32.4329 247.695 29.1112C247.57 28.7277 247.561 28.1793 247.102 28.2016C246.553 28.2105 246.562 28.7589 246.509 29.1156C246.143 30.3372 245.88 31.483 245.603 32.718C244.725 36.1421 243.833 39.6554 242.839 43.2445C243.9 42.8566 244.694 42.4287 245.551 42.1924C245.845 42.0542 246.304 42.032 246.519 42.4288C246.643 42.8122 246.322 43.1288 245.939 43.2536C244.966 43.6548 243.994 44.056 242.843 44.4304C243.78 45.4827 244.565 46.3299 245.323 47.3554C245.551 47.6631 245.944 48.0866 245.444 48.3764C245.047 48.5904 244.82 48.2827 244.592 47.9751C243.794 47.2171 243.405 46.1559 242.237 45.4336C240.872 50.8818 239.459 56.0492 238.067 61.6758C239.463 60.8822 240.462 60.3027 241.551 59.7365C241.845 59.5983 242.242 59.3844 242.443 59.8703C242.581 60.1646 242.363 60.4054 242.068 60.5436C240.967 61.1989 239.878 61.7651 238.866 62.4338C238.558 62.6611 238.027 61.9433 237.831 62.6433C237.621 63.4324 238.429 62.9153 238.554 63.2987C238.968 64.1815 239.397 64.9752 239.722 65.8446C239.861 66.1389 239.883 66.5981 239.41 66.7096C239.04 66.7452 238.902 66.4509 238.763 66.1567C238.424 65.3764 238.38 64.4579 237.479 63.7757C236.783 66.589 236.012 69.2998 235.418 72.0373C233.724 79.0772 231.748 86.1661 231.2 93.4692C231.102 94.731 231.406 95.1412 232.579 95.226C234.925 95.3955 237.169 95.6409 239.488 95.9888C240.648 96.1628 240.982 95.7571 241.321 94.7138C242.534 90.884 243.836 87.0675 245.139 83.2511C245.478 82.2078 245.79 81.3429 247.23 81.4678C249.117 81.6597 251.147 81.5082 253.087 81.3434C258.703 81.0004 263.944 79.5071 267.891 75.0845C270.527 72.1064 272.235 68.6244 273.27 64.7678C274.095 61.7004 274.741 58.6062 274.201 55.5164C273.844 53.6393 273.206 51.8113 270.873 51.5525L270.963 51.5659C270.481 51.1289 270.137 50.9862 269.839 51.762C269.049 53.3759 268.081 54.9631 267.368 56.6796C266.173 59.7827 264.799 62.859 262.993 65.7792C260.696 69.5376 257.627 72.3597 253.319 73.7193C251.311 74.33 249.268 74.5706 247.181 73.8928C246.837 73.7501 246.008 73.808 246.204 73.108C246.4 72.408 247.06 72.8718 247.404 73.0144C251.811 74.0402 255.584 72.6003 258.858 69.6267C261.387 67.3619 263.015 64.4149 264.567 61.3654C266.132 58.2267 267.176 54.9185 269.071 52.0116C269.187 51.8467 269.303 51.6817 269.317 51.5925C269.165 51.3874 268.973 51.4499 268.768 51.6014C266.748 52.3013 265.601 53.8617 264.785 55.654C264.098 57.1921 263.59 58.7571 262.917 60.206C260.713 65.1638 257.284 68.5699 251.69 69.3721C249.545 69.6885 249.406 69.3942 249.803 67.3567C251.123 60.99 252.8 54.6768 253.495 48.2164C253.972 43.8203 254.168 39.4733 253.356 35.1573C252.941 32.451 251.835 30.0968 248.998 28.9418ZM225.763 86.5447C227.096 85.5595 227.984 84.5073 229.175 83.8654C229.469 83.7272 229.853 83.6024 230.067 83.9992C230.205 84.2935 229.986 84.5342 229.692 84.6724C229.384 84.8998 229.077 85.1271 228.782 85.2653C226.222 86.5225 225.125 88.3638 225.589 91.3511C226.066 94.2491 225.799 94.209 228.653 94.6372C229.635 94.7844 230.005 94.7487 230.09 93.5761C230.152 91.9443 230.317 90.2367 230.647 88.645C232.627 77.2714 235.753 66.1609 238.624 54.9211C239.463 51.7645 240.198 48.6837 241.05 45.438C240.488 45.536 240.118 45.5716 239.761 45.5181C238.958 45.3977 237.5 45.9995 237.455 45.081C237.424 44.0734 238.9 44.5684 239.627 44.5863C240.89 44.6844 241.416 44.2163 241.795 42.9055C242.937 38.3356 244.346 33.8058 245.576 29.2493C245.733 28.8168 246.17 28.3353 245.585 27.9741C245.001 27.6129 244.64 28.197 244.229 28.5001C241.584 30.9299 239.435 33.7074 237.602 36.806C237.472 37.0601 237.343 37.3142 237.57 37.6219C238.819 37.8092 240.166 36.7348 241.487 37.6623C241.268 37.903 241.166 37.9788 240.974 38.0412C240.782 38.1036 240.488 38.2418 240.309 38.2151C236.933 37.6174 235.617 39.6995 234.756 42.3968C234.417 43.4401 233.913 44.3674 233.588 45.3216C232.21 49.0354 231.086 52.8786 230.19 57.0295C231.149 56.7174 231.737 56.441 232.491 56.2806C233.156 56.1067 233.874 55.5762 234.686 56.2451C233.669 57.5513 231.822 57.092 230.578 58.0906C231.452 58.9512 232.251 59.7092 233.049 60.4672C233.29 60.6857 233.428 60.9799 233.196 61.3099C232.862 61.7156 232.532 61.4837 232.304 61.1761C231.506 60.418 230.721 59.5709 229.771 58.6078C228.99 62.5937 228.25 66.312 227.483 70.2088C227.943 70.1865 228.134 70.1241 228.402 70.1642C229.129 70.1821 230.119 69.0542 230.418 70.1019C230.655 70.958 229.227 70.7439 228.563 70.9177C227.514 71.2164 226.761 71.3768 227.965 72.4693C228.206 72.6877 228.358 72.8929 228.496 73.1871C228.786 73.6865 229.687 74.3687 228.982 74.8101C228.162 75.4164 227.979 74.2036 227.497 73.7667C227.332 73.6507 227.283 73.3699 226.912 73.4055C226.449 77.7124 225.807 81.9926 225.763 86.5447Z" fill="#4A6D39"/>
<path d="M271.288 51.6475C272.58 57.0126 271.435 62.1045 268.999 66.9103C268.436 68.1188 267.674 69.3896 266.766 70.3615C265.497 71.8334 264.507 73.3472 264.475 75.4663C264.473 76.1125 264.404 77.2102 263.486 76.9801C262.66 76.764 263.369 75.8544 263.37 75.2082C263.411 74.9373 263.451 74.6663 263.667 73.8675C258.26 78.7819 252.449 80.0342 245.541 77.7976C246.316 77.0827 246.928 77.4515 247.487 77.5354C256.407 79.0581 264.143 75.1394 267.892 67.2984C268.187 66.6039 268.241 66.2426 267.443 65.8459C267.084 65.6996 266.831 65.4771 266.579 65.2545C266.246 64.9276 265.435 64.6212 265.996 64.0589C266.463 63.4826 266.821 64.275 267.167 64.5116C267.512 64.7481 267.845 65.075 268.27 65.4158C268.314 63.8526 267.292 62.4064 267.908 60.8367C268.998 61.8313 268.315 63.2064 269.098 64.3396C270.491 61.4088 270.845 58.4145 271.026 55.3019C271.109 54.1139 270.353 52.8 271.288 51.6475Z" fill="#4A6D39"/>
<path fill-rule="evenodd" clip-rule="evenodd" d="M91.9344 88.3422C91.3585 89 90.6503 89.5121 89.7396 89.7559C89.6845 89.7707 89.6286 89.7844 89.572 89.7972C89.5676 89.797 89.5632 89.7969 89.5588 89.7967C89.5591 89.7967 89.5586 89.7967 89.5588 89.7967C87.301 89.7089 86.5531 87.9737 85.8516 86.0562C85.723 85.6857 85.5936 85.3177 85.4629 84.9522C85.4199 84.8321 85.3768 84.7123 85.3336 84.5927C83.541 79.635 81.4975 75.1371 78.3947 71.0289C78.0443 70.5651 77.6804 70.1061 77.3019 69.6521C76.6739 68.8989 76.0056 68.159 75.2916 67.4322L77.7396 65.3202C78.4515 64.7248 79.1843 64.1468 79.9428 63.6098C80.3169 63.345 80.6973 63.0901 81.0845 62.848C82.8232 61.7607 84.6992 60.9316 86.7636 60.6162V59.4162H72.8436V60.6162C73.1395 60.631 73.4674 60.6959 73.7793 60.8125C73.8156 60.826 73.8517 60.8403 73.8875 60.8552C73.9525 60.8824 74.0166 60.9119 74.0793 60.9437C74.5736 61.1947 74.9802 61.5903 75.0774 62.1372C75.0841 62.1749 75.0894 62.2134 75.0931 62.2526C75.0974 62.2982 75.0996 62.3447 75.0996 62.3922C75.0996 63.1261 74.2018 64.2192 73.3177 65.1442C73.2293 65.2367 73.141 65.3276 73.0538 65.4162C72.9497 65.5219 72.8471 65.6245 72.7476 65.7231C72.6906 65.7795 72.6347 65.8346 72.58 65.8881C72.4639 66.0019 72.3536 66.109 72.2519 66.2077C72.1338 66.3223 72.0273 66.4257 71.9367 66.5153C71.9224 66.5295 71.9085 66.5433 71.895 66.5568C71.8911 66.5606 71.8873 66.5644 71.8836 66.5682L66.7476 71.1762V65.6562C66.7476 65.5751 66.7479 65.4951 66.7487 65.4162C66.7547 64.7835 66.7849 64.2182 66.8436 63.7176C66.8776 63.4272 66.9212 63.1586 66.9751 62.9111C67.3015 61.4138 68.0072 60.6917 69.2715 60.6208C69.2911 60.6197 69.3109 60.6188 69.3308 60.618C69.3337 60.6179 69.3366 60.6177 69.3396 60.6176C69.3555 60.617 69.3715 60.6166 69.3876 60.6162L69.3396 59.4162H54.2676V60.6162C54.3289 60.6147 54.389 60.6147 54.4479 60.6162C56.2768 60.6628 56.9076 62.1609 56.9076 65.4162V85.0002C56.9076 88.2554 56.2768 89.7536 54.4479 89.8002C54.389 89.8017 54.3289 89.8017 54.2676 89.8002V91.0002H69.6756V89.8002C69.6142 89.8017 69.5538 89.8017 69.4944 89.8002C68.5321 89.7759 67.8265 89.357 67.3716 88.5001C66.954 87.7136 66.7476 86.5581 66.7476 85.0002V75.1602L68.4276 73.6242C68.8529 74.13 69.27 74.6413 69.6749 75.1602C69.8974 75.4452 70.1161 75.7325 70.3306 76.0224C70.9232 76.8237 71.4826 77.6446 71.995 78.4923C72.259 78.929 72.5105 79.3728 72.7476 79.8247C72.8461 80.0124 72.9422 80.2016 73.0356 80.3922C73.4135 81.148 73.9475 82.3813 74.4288 83.6824C74.5844 84.1032 74.7345 84.5311 74.872 84.9522C75.2816 86.206 75.5796 87.4 75.5796 88.1682C75.5796 89.4642 74.4276 89.7522 73.3716 89.8002V90.9522H89.5588V91.0002H100.119V89.8002C99.4416 89.7249 98.8692 89.5579 98.477 89.2033C98.1187 88.8793 97.9108 88.3986 97.9108 87.6882C97.9108 87.2326 98.018 86.6342 98.1669 86.02C98.1774 85.9767 98.1881 85.9333 98.199 85.8899C98.2742 85.59 98.3581 85.2886 98.4433 85.0002C98.5765 84.5496 98.7126 84.131 98.8228 83.8002L100.551 78.9042C101.087 78.8754 101.61 78.8811 102.121 78.9207C102.254 78.9311 102.386 78.9437 102.517 78.9586C103.945 79.1206 105.281 79.5537 106.56 80.2491C106.979 80.4767 107.391 80.7325 107.799 81.0162C109.132 81.9046 110.61 83.377 111.352 85.0002C111.601 85.5464 111.767 86.1097 111.816 86.6736C111.826 86.7878 111.831 86.902 111.831 87.0162C111.831 88.6482 110.727 89.7042 109.191 89.8002V91.0002H125.751V89.8002C123.506 89.5461 122.682 87.0879 122.024 85.1281C122.01 85.0852 121.996 85.0425 121.981 85.0002C121.909 84.784 121.838 84.5747 121.767 84.3762C121.686 84.1383 121.605 83.8991 121.524 83.6587C120.941 81.9365 120.335 80.1533 119.734 78.3822C118.054 73.4354 116.407 68.5827 115.369 65.4162C114.695 63.3588 114.279 62.0132 114.279 61.8162C114.279 61.0002 114.663 60.7122 115.383 60.6162V59.4162H101.367V60.6162C102.039 60.7122 102.423 61.0962 102.423 61.8162C102.423 62.4556 101.901 63.7035 101.644 64.3192C101.631 64.3506 101.618 64.3803 101.607 64.4082L94.0708 84.3282C94.0346 84.4158 93.9983 84.5042 93.9617 84.5932C93.9064 84.7277 93.8505 84.8635 93.7938 85.0002C93.4132 85.9165 92.9932 86.8688 92.4367 87.6882C92.2807 87.9179 92.114 88.1371 91.9344 88.3422ZM89.6431 79.0751L95.3668 63.9456V53.4162H102.885L105.188 46.5424L107.393 53.4162H158.496L161.038 41.5886L167.49 53.4162H184.533C184.757 53.4162 184.989 53.4223 185.151 53.4267L185.161 53.4269L191.954 43.917L193.87 53.4162H228.29V54.8379C231.678 53.121 235.266 52.6482 237.731 52.6482C240.605 52.6482 242.901 52.9457 244.603 53.2398C245.062 53.3191 245.497 53.4022 245.861 53.4733L253.779 43.8588L257.153 72.0175C258.869 74.1999 260.003 76.9102 260.003 80.1522C260.003 85.8827 257.701 90.7248 253.176 93.8732C249.005 96.7757 243.616 97.7682 238.115 97.7682C235.123 97.7682 232.83 97.4028 230.332 96.9533L230.245 96.9376L230.128 96.9129C229.778 96.8392 229.448 96.7698 229.131 96.7099L220.677 105.164L219.799 94.0298C215.01 97.4076 209.417 97.8162 206.594 97.8162C205.651 97.8162 203.484 97.759 201.046 97.3391C198.792 96.951 195.394 96.1104 192.698 93.9795L192.684 93.9685L192.67 93.9574C192.002 93.423 191.384 92.8579 190.821 92.2549V97.0002H161.397V96.9522H148.66V97.0002H83.5588V96.9522H75.6756V97.0002H48.2676V83.652L50.9076 83.7164V66.6999L48.2676 66.7643V53.4162H92.7636V65.7691L87.6697 66.5473C86.4679 66.731 85.2217 67.2814 83.7936 68.243C86.2846 71.711 88.119 75.3468 89.6431 79.0751ZM100.781 83.8369C100.71 83.8289 100.723 83.8246 100.8 83.8389L100.781 83.8369ZM142.66 91.0002V89.8003C142.599 89.8018 142.538 89.8017 142.479 89.8002C141.516 89.7759 140.811 89.357 140.356 88.5002C139.938 87.7136 139.732 86.5581 139.732 85.0002V75.1602L141.412 73.6242C141.837 74.13 142.254 74.6413 142.659 75.1602C142.882 75.4452 143.101 75.7325 143.315 76.0224C143.908 76.8237 144.467 77.6446 144.979 78.4923C145.243 78.929 145.495 79.3728 145.732 79.8247C145.83 80.0124 145.927 80.2016 146.02 80.3922C146.398 81.148 146.932 82.3813 147.413 83.6824C147.569 84.1032 147.719 84.5311 147.856 84.9522C148.266 86.206 148.564 87.4 148.564 88.1682C148.564 89.4642 147.412 89.7522 146.356 89.8002V90.9522H162.724V89.8002C162.213 89.8002 161.775 89.7195 161.397 89.5736C159.999 89.0346 159.403 87.6048 158.836 86.0562C158.707 85.6857 158.578 85.3177 158.447 84.9522C156.623 79.8521 154.557 75.2362 151.379 71.0289C151.029 70.565 150.665 70.1061 150.286 69.6521C149.658 68.8989 148.99 68.159 148.276 67.4322L150.724 65.3202C151.436 64.7248 152.169 64.1468 152.927 63.6098C153.301 63.345 153.682 63.0901 154.069 62.848C154.933 62.3075 155.831 61.8308 156.77 61.4493C157.719 61.0633 158.71 60.7748 159.748 60.6162V59.4162H145.828V60.6162C146.124 60.631 146.452 60.6959 146.764 60.8125C146.8 60.826 146.836 60.8403 146.872 60.8552C146.937 60.8824 147.001 60.9119 147.064 60.9437C147.558 61.1947 147.965 61.5903 148.062 62.1372C148.069 62.1749 148.074 62.2134 148.077 62.2526C148.082 62.2982 148.084 62.3447 148.084 62.3922C148.084 63.1261 147.186 64.2192 146.302 65.1442C146.214 65.2367 146.125 65.3276 146.038 65.4162C145.934 65.5219 145.832 65.6245 145.732 65.7231C145.675 65.7795 145.619 65.8346 145.564 65.8881C145.448 66.0019 145.338 66.1089 145.236 66.2077C145.118 66.3223 145.012 66.4257 144.921 66.5153C144.907 66.5295 144.893 66.5433 144.879 66.5568C144.876 66.5606 144.872 66.5644 144.868 66.5682L139.732 71.1762V65.6562C139.732 65.5751 139.732 65.4951 139.733 65.4162C139.739 64.7835 139.769 64.2182 139.828 63.7176C139.862 63.4272 139.906 63.1586 139.959 62.9111C140.286 61.4138 140.992 60.6917 142.256 60.6208C142.276 60.6197 142.295 60.6188 142.315 60.618C142.318 60.6179 142.321 60.6177 142.324 60.6176C142.34 60.617 142.356 60.6166 142.372 60.6162L142.324 59.4162H127.252V60.616C127.313 60.6145 127.373 60.6147 127.432 60.6162C129.261 60.6628 129.892 62.1609 129.892 65.4162V85.0002C129.892 88.2554 129.261 89.7536 127.432 89.8002C127.373 89.8017 127.313 89.8017 127.252 89.8002V91.0002H142.66ZM123.892 71.963V66.6999L122.131 66.7428C122.241 67.069 122.353 67.4039 122.468 67.7466C122.911 69.0647 123.391 70.4854 123.892 71.963ZM161.139 75.6966C162.401 78.3469 163.446 81.0576 164.404 83.8002H165.189V76.468L161.139 75.6966ZM171.189 84.7602C171.189 84.8412 171.188 84.9212 171.188 85.0002C171.161 87.744 170.661 89.2188 168.724 89.6588C168.34 89.7459 167.901 89.7924 167.397 89.8002V91.0002H184.821V89.8002C181.774 89.7533 181.062 88.2874 181.03 85.0002C181.029 84.9212 181.029 84.8412 181.029 84.7602V62.9202C181.975 62.9781 182.839 63.1175 183.63 63.3382C183.942 63.4253 184.243 63.525 184.533 63.6374C184.791 63.7376 185.041 63.8479 185.282 63.9682C185.921 64.2871 186.501 64.6763 187.029 65.1357C187.123 65.2177 187.215 65.302 187.306 65.3884C187.467 65.5418 187.623 65.7022 187.774 65.8696C187.876 65.9827 187.976 66.0991 188.073 66.2187C188.869 67.1945 189.518 68.3836 190.053 69.7842L191.012 69.5923L190.399 66.551L190.398 66.5462L190.069 64.9155L190.069 64.9138L188.805 58.6482C188.735 58.7462 188.648 58.8325 188.547 58.9083C188.114 59.2347 187.423 59.3675 186.713 59.4162C186.219 59.4499 185.716 59.4431 185.282 59.4323C185.208 59.4304 185.136 59.4285 185.066 59.4266C185.03 59.4256 184.995 59.4246 184.961 59.4237C184.802 59.4195 184.657 59.4162 184.533 59.4162H167.301C167.237 59.4162 167.167 59.417 167.093 59.4184C167.001 59.42 166.902 59.4224 166.797 59.425C166.485 59.4327 166.121 59.4416 165.748 59.4355C165.578 59.4327 165.406 59.4268 165.237 59.4162C164.592 59.3732 163.947 59.2146 163.612 58.8025C163.574 58.7546 163.539 58.7032 163.509 58.6482L161.157 69.5922L162.165 69.7842C162.556 68.3001 163.203 67.0432 164.062 66.0266C164.252 65.8026 164.452 65.5903 164.661 65.3898C164.723 65.3304 164.786 65.2721 164.85 65.2148C164.859 65.2071 164.867 65.1995 164.876 65.1919C164.978 65.101 165.082 65.0127 165.189 64.927C165.369 64.782 165.556 64.6446 165.748 64.5149C166.23 64.19 166.749 63.9134 167.301 63.6863C167.733 63.5084 168.186 63.3608 168.658 63.2441C169.451 63.048 170.298 62.9391 171.189 62.9202V84.7602ZM191.282 60.6162C191.41 60.6345 191.532 60.6555 191.648 60.6792C192.768 60.9078 193.346 61.3872 193.629 62.0941C193.64 62.1204 193.65 62.1471 193.66 62.1741C193.843 62.6828 193.886 63.3034 193.873 64.0279C193.867 64.3716 193.848 64.7386 193.826 65.1282L193.01 79.4322C192.77 84.1842 193.298 86.7762 196.418 89.2722C197.815 90.376 199.814 91.0041 201.697 91.3598C203.825 91.7621 205.804 91.8162 206.594 91.8162C207.398 91.8162 208.369 91.7732 209.426 91.636C211.902 91.3144 214.847 90.4748 217.202 88.4562C218.049 87.7404 218.692 86.9401 219.171 86.0703C219.201 86.0157 219.23 85.9609 219.259 85.9058C219.267 85.8909 219.275 85.876 219.282 85.8611C219.917 84.6264 220.237 83.2573 220.352 81.7948C220.418 80.9554 220.417 80.0853 220.37 79.1922L219.65 65.1282C219.646 65.0572 219.642 64.9869 219.638 64.9173C219.638 64.9136 219.638 64.9098 219.638 64.9061C219.531 62.9005 219.567 61.4643 221.121 60.8724C221.344 60.7878 221.597 60.7204 221.885 60.6711C222.013 60.6492 222.148 60.6309 222.29 60.6162V59.4162H212.546V60.6162C212.645 60.6246 212.741 60.6348 212.834 60.6468C213.262 60.7023 213.624 60.796 213.93 60.925C215.452 61.5669 215.598 63.0842 215.714 65.1282L216.338 76.7442C216.392 77.7195 216.42 78.5955 216.413 79.3948C216.413 79.3967 216.413 79.3985 216.413 79.4004C216.395 81.4302 216.155 82.9649 215.57 84.3762C215.388 84.8301 215.124 85.2417 214.796 85.6086C214.79 85.6153 214.784 85.622 214.778 85.6286C213.544 86.9948 211.426 87.7362 209.426 87.7362C208.546 87.7362 207.545 87.5849 206.594 87.2177C205.749 86.8915 204.944 86.395 204.298 85.6827C204.085 85.4473 203.888 85.1883 203.714 84.9042C202.898 83.5122 202.658 81.8322 202.85 78.9042L203.714 65.1282C203.899 62.7228 204.084 61.0752 206.546 60.658C206.639 60.6423 206.735 60.6284 206.834 60.6162V59.4162H191.282V60.6162ZM209.647 66.392L208.838 79.2882L208.837 79.2968C208.754 80.5663 208.789 81.2524 208.843 81.6264C208.844 81.6351 208.846 81.6436 208.847 81.6518C208.9 81.6682 208.964 81.6842 209.035 81.698C209.176 81.725 209.314 81.7362 209.426 81.7362C209.598 81.7362 209.789 81.7151 209.976 81.6714C210.055 81.6532 210.124 81.6328 210.185 81.6122C210.376 80.8993 210.493 79.6938 210.347 77.077L210.347 77.066L209.774 66.4027L209.647 66.392ZM225.645 78.2441C225.642 78.2241 225.638 78.2042 225.635 78.1842L224.579 78.3282L224.63 78.968L224.63 78.9741L225.635 91.7202C226.035 91.3199 226.45 91.0087 226.93 90.8112C227.313 90.6534 227.737 90.5682 228.227 90.5682C229.117 90.5682 230.417 90.8421 231.327 91.0338L231.395 91.0482C231.465 91.0608 231.535 91.0732 231.604 91.0856C233.47 91.419 235.029 91.6606 236.819 91.74C237.236 91.7585 237.666 91.7682 238.115 91.7682C241.593 91.7682 244.597 91.3124 247.028 90.3712C251.475 88.6496 254.003 85.3038 254.003 80.1522C254.003 78.1345 253.102 76.3211 251.653 74.8505C251.627 74.8241 251.601 74.7978 251.575 74.7717C251.215 74.4138 250.822 74.0768 250.402 73.7625C249.144 72.8213 247.642 72.0848 246.035 71.6082L240.419 69.9282C240.28 69.8867 240.131 69.844 239.976 69.7995C238.158 69.2767 235.427 68.4917 235.427 66.2802C235.399 65.7494 235.492 65.2819 235.678 64.873C236.057 64.0356 236.824 63.4443 237.731 63.06C238.664 62.6646 239.746 62.4882 240.707 62.4882C241.829 62.4882 242.952 62.7506 244.012 63.2096C244.903 63.5953 245.749 64.1197 246.515 64.7437C246.849 65.0155 247.167 65.3063 247.467 65.6127C247.539 65.6868 247.611 65.7619 247.681 65.8378C247.698 65.8559 247.714 65.8741 247.731 65.8923C247.735 65.8961 247.738 65.8999 247.742 65.9038C248.602 66.8476 249.29 67.9224 249.723 69.042C249.725 69.0494 249.728 69.0568 249.731 69.0642L250.739 68.9202L249.491 58.5042C249.32 58.7122 249.105 58.889 248.864 59.037C248.159 59.4696 247.23 59.6562 246.515 59.6562C246.2 59.6562 245.703 59.558 245.02 59.4229C244.66 59.3518 244.248 59.2705 243.785 59.1879C242.936 59.0367 241.911 58.8812 240.707 58.7762C239.814 58.6983 238.823 58.6482 237.731 58.6482C236.179 58.6482 234.109 58.9135 232.121 59.6908C230.737 60.2319 229.393 61.0211 228.29 62.1416C227.25 63.1984 226.426 64.5499 225.986 66.2659C225.898 66.606 225.826 66.9604 225.771 67.3296C225.682 67.9174 225.635 68.5429 225.635 69.2082C225.635 69.9351 225.755 70.6621 225.977 71.3599C226.051 71.5926 226.137 71.822 226.233 72.0471C226.725 73.1976 227.498 74.2353 228.467 75.0162C229.298 75.6866 230.369 76.2371 231.471 76.6929C232.341 77.053 233.23 77.354 234.035 77.6082L238.883 79.1922C239.067 79.2535 239.259 79.3149 239.455 79.3777C241.409 80.0033 243.827 80.7772 243.827 83.1762C243.827 83.9859 243.672 84.6627 243.399 85.2273C242.501 87.0773 240.324 87.7216 238.115 87.8833C237.681 87.915 237.246 87.9282 236.819 87.9282C235.184 87.9282 233.642 87.5858 232.254 86.9664C232.216 86.9492 232.177 86.9318 232.139 86.9142C231.831 86.7723 231.53 86.6167 231.238 86.448C230.357 85.9394 229.551 85.3123 228.84 84.5867C227.81 83.5358 226.978 82.2783 226.398 80.8752C226.395 80.8681 226.392 80.8611 226.39 80.854C226.135 80.2343 225.929 79.5864 225.777 78.9153C225.777 78.9128 225.776 78.9102 225.776 78.9077C225.743 78.7627 225.713 78.6166 225.685 78.4695C225.685 78.4684 225.685 78.4674 225.685 78.4664C225.671 78.3925 225.658 78.3185 225.645 78.2441ZM187.029 76.5078L187.169 76.4798L187.029 78.9326V76.5078ZM187.029 83.2017V83.8334L187.087 83.8343C187.064 83.6233 187.045 83.4123 187.029 83.2017ZM105.063 65.8002L102.039 74.8242C102.701 74.8109 103.36 74.8818 104.007 75.0196C105.338 75.3032 106.62 75.87 107.781 76.5708C108.101 76.7635 108.411 76.9663 108.711 77.1762L105.063 65.8002Z" fill="black"/>
<path d="M89.7396 89.8002C87.3396 89.8002 86.5716 88.0242 85.8516 86.0562C83.4036 79.0002 80.6196 72.8562 75.2916 67.4322L77.7396 65.3202C80.3796 63.1122 83.3076 61.1442 86.7636 60.6162V59.4162H72.8436V60.6162C73.8036 60.6642 75.0996 61.2402 75.0996 62.3922C75.0996 63.5922 72.6996 65.7522 71.8836 66.5682L66.7476 71.1762V65.6562C66.7476 62.2002 67.4196 60.6642 69.3876 60.6162L69.3396 59.4162H54.2676V60.6162C56.2356 60.5682 56.9076 62.0562 56.9076 65.4162V85.0002C56.9076 88.3602 56.2356 89.8482 54.2676 89.8002V91.0002H69.6756V89.8002C67.7076 89.8482 66.7476 88.3602 66.7476 85.0002V75.1602L68.4276 73.6242C70.2036 75.7362 71.8356 77.9442 73.0356 80.3922C73.8996 82.1202 75.5796 86.3442 75.5796 88.1682C75.5796 89.4642 74.4276 89.7522 73.3716 89.8002V90.9522H89.7396V89.8002Z" fill="white"/>
<path d="M100.551 78.9042C103.239 78.7602 105.591 79.4802 107.799 81.0162C109.671 82.2642 111.831 84.6642 111.831 87.0162C111.831 88.6482 110.727 89.7042 109.191 89.8002V91.0002H125.751V89.8002C123.207 89.5122 122.487 86.3922 121.767 84.3762C118.455 74.5842 114.279 62.4402 114.279 61.8162C114.279 61.0002 114.663 60.7122 115.383 60.6162V59.4162H101.367V60.6162C102.039 60.7122 102.423 61.0962 102.423 61.8162C102.423 62.4882 101.847 63.8322 101.607 64.4082L94.0708 84.3282C93.1588 86.5362 92.1508 89.2242 89.5588 89.8002V91.0002H100.119V89.8002C98.8228 89.6562 97.9108 89.1762 97.9108 87.6882C97.9108 86.6322 98.4868 84.8082 98.8228 83.8002L100.551 78.9042ZM108.711 77.1762C106.791 75.8322 104.439 74.7762 102.039 74.8242L105.063 65.8002L108.711 77.1762Z" fill="white"/>
<path d="M162.724 89.8002C160.324 89.8002 159.556 88.0242 158.836 86.0562C156.388 79.0002 153.604 72.8562 148.276 67.4322L150.724 65.3202C153.364 63.1122 156.292 61.1442 159.748 60.6162V59.4162H145.828V60.6162C146.788 60.6642 148.084 61.2402 148.084 62.3922C148.084 63.5922 145.684 65.7522 144.868 66.5682L139.732 71.1762V65.6562C139.732 62.2002 140.404 60.6642 142.372 60.6162L142.324 59.4162H127.252V60.6162C129.22 60.5682 129.892 62.0562 129.892 65.4162V85.0002C129.892 88.3602 129.22 89.8482 127.252 89.8002V91.0002H142.66V89.8002C140.692 89.8482 139.732 88.3602 139.732 85.0002V75.1602L141.412 73.6242C143.188 75.7362 144.82 77.9442 146.02 80.3922C146.884 82.1202 148.564 86.3442 148.564 88.1682C148.564 89.4642 147.412 89.7522 146.356 89.8002V90.9522H162.724V89.8002Z" fill="white"/>
<path d="M181.029 62.9202C185.733 63.2081 188.421 65.5122 190.053 69.7842L191.013 69.5922L188.805 58.6482C188.085 59.6561 185.589 59.4162 184.533 59.4162H167.301C166.821 59.4162 166.005 59.4642 165.237 59.4162C164.517 59.3682 163.797 59.1762 163.509 58.6482L161.157 69.5922L162.165 69.7842C163.317 65.4162 166.677 63.0162 171.189 62.9202V84.7602C171.189 88.2162 170.517 89.7522 167.397 89.8002V91.0002H184.821V89.8002C181.701 89.7522 181.029 88.2162 181.029 84.7602V62.9202Z" fill="white"/>
<path d="M191.282 60.6162C193.97 61.0002 193.97 62.5842 193.826 65.1282L193.01 79.4322C192.77 84.1842 193.298 86.7762 196.418 89.2722C199.394 91.6242 205.106 91.8162 206.594 91.8162C209.282 91.8162 213.842 91.3362 217.202 88.4562C219.986 86.1042 220.562 82.8402 220.37 79.1922L219.65 65.1282C219.506 62.5842 219.506 60.9042 222.29 60.6162V59.4162H212.546V60.6162C215.378 60.8562 215.57 62.5842 215.714 65.1282L216.338 76.7442C216.53 80.2002 216.386 82.4082 215.57 84.3762C214.706 86.5362 211.97 87.7362 209.426 87.7362C207.506 87.7362 205.01 87.0162 203.714 84.9042C202.898 83.5122 202.658 81.8322 202.85 78.9042L203.714 65.1282C203.906 62.6322 204.098 60.9522 206.834 60.6162V59.4162H191.282V60.6162Z" fill="white"/>
<path d="M249.491 58.5042C248.819 59.3202 247.475 59.6561 246.515 59.6561C245.507 59.6561 242.627 58.6482 237.731 58.6482C233.555 58.6482 225.635 60.5682 225.635 69.2082C225.635 71.4162 226.739 73.6242 228.467 75.0162C229.955 76.2162 232.211 77.0322 234.035 77.6082L238.883 79.1922C240.899 79.8642 243.827 80.5362 243.827 83.1762C243.827 87.1602 240.083 87.9282 236.819 87.9282C231.107 87.9282 226.547 83.7522 225.635 78.1842L224.579 78.3282L225.635 91.7202C226.355 91.0002 227.123 90.5682 228.227 90.5682C229.139 90.5682 230.483 90.8562 231.395 91.0482C233.795 91.4802 235.667 91.7682 238.115 91.7682C247.955 91.7682 254.003 88.1202 254.003 80.1522C254.003 76.1202 250.403 72.9042 246.035 71.6082L240.419 69.9282C238.643 69.4002 235.427 68.6802 235.427 66.2802C235.283 63.5442 238.355 62.4882 240.707 62.4882C244.547 62.4882 248.387 65.5602 249.731 69.0642L250.739 68.9202L249.491 58.5042Z" fill="white"/>
<path d="M105.256 46.4619C104.117 46.8656 102.951 47.0674 101.76 47.0674C100.952 47.0674 100.181 46.9795 99.4453 46.8037C98.7161 46.6214 98.0293 46.335 97.3848 45.9443C96.7467 45.5537 96.1901 45.0785 95.7148 44.5186C95.2461 43.9587 94.875 43.2751 94.6016 42.4678C94.3346 41.654 94.2012 40.7588 94.2012 39.7822C94.2012 38.5583 94.3997 37.4548 94.7969 36.4717C95.194 35.4821 95.7344 34.6748 96.418 34.0498C97.1081 33.4183 97.9089 32.9365 98.8203 32.6045C99.7318 32.2725 100.712 32.1064 101.76 32.1064C102.867 32.1064 103.986 32.2855 105.119 32.6436L105.1 36.3643H104.699L103.479 33.5811C102.932 33.3402 102.212 33.2197 101.32 33.2197C100.799 33.2197 100.308 33.2881 99.8457 33.4248C99.3835 33.5615 98.9375 33.7894 98.5078 34.1084C98.0846 34.4274 97.7168 34.8311 97.4043 35.3193C97.0983 35.8011 96.8542 36.4131 96.6719 37.1553C96.4896 37.8975 96.3984 38.734 96.3984 39.665C96.3984 40.6546 96.5417 41.5563 96.8281 42.3701C97.1211 43.1774 97.5182 43.8447 98.0195 44.3721C98.5208 44.8929 99.1003 45.2965 99.7578 45.583C100.422 45.863 101.128 46.0029 101.877 46.0029C102.541 46.0029 103.169 45.9085 103.762 45.7197L104.836 42.5068H105.236L105.256 46.4619ZM116.467 45.9639V46.3252L114.348 46.9795C113.931 47.0706 113.579 47.0218 113.293 46.833C113.007 46.6507 112.863 46.335 112.863 45.8857C112.017 46.6735 111.024 47.0674 109.885 47.0674C108.941 47.0674 108.234 46.8232 107.766 46.335C107.297 45.8467 107.062 45.2347 107.062 44.499C107.062 43.9456 107.186 43.4574 107.434 43.0342C107.681 42.6045 107.997 42.2627 108.381 42.0088C108.765 41.7549 109.224 41.5433 109.758 41.374C110.292 41.2048 110.806 41.0876 111.301 41.0225C111.796 40.9574 112.316 40.9183 112.863 40.9053V39.9678C112.863 39.0563 112.72 38.4215 112.434 38.0635C112.147 37.7054 111.672 37.5264 111.008 37.5264C110.507 37.5264 109.917 37.6045 109.24 37.7607L108.205 40.0264H107.727V37.2432C108.312 37.0348 108.931 36.8721 109.582 36.7549C110.233 36.6377 110.806 36.5791 111.301 36.5791C112.375 36.5791 113.202 36.7972 113.781 37.2334C114.367 37.6631 114.66 38.3727 114.66 39.3623V45.4658L116.467 45.9639ZM110.705 45.9248C111.076 45.9248 111.457 45.8369 111.848 45.6611C112.238 45.4788 112.577 45.2314 112.863 44.9189V41.7061C111.561 41.7646 110.568 42.0316 109.885 42.5068C109.201 42.9756 108.859 43.5745 108.859 44.3037C108.859 44.8636 109.038 45.2738 109.396 45.5342C109.755 45.7946 110.191 45.9248 110.705 45.9248ZM121.174 38.1807V45.7197L123.674 46.4229V46.8232H117.57V46.4229L119.367 45.7197V38.2197L117.473 37.6826V37.2822L119.367 36.8818V35.8857C119.367 35.1891 119.491 34.5609 119.738 34.001C119.986 33.4411 120.314 32.9886 120.725 32.6436C121.141 32.2985 121.607 32.0348 122.121 31.8525C122.642 31.6702 123.186 31.5791 123.752 31.5791C123.954 31.5791 124.224 31.6051 124.562 31.6572C124.901 31.7093 125.158 31.7712 125.334 31.8428V34.8213H124.934L123.547 32.4873C122.98 32.4873 122.515 32.6305 122.15 32.917C121.792 33.2035 121.538 33.5778 121.389 34.04C121.245 34.4958 121.174 35.0426 121.174 35.6807V36.8818H123.928L124.27 36.999V37.585L121.174 38.1807ZM129.045 38.1807V45.7197L131.545 46.4229V46.8232H125.441V46.4229L127.238 45.7197V38.2197L125.344 37.6826V37.2822L127.238 36.8818V35.8857C127.238 35.1891 127.362 34.5609 127.609 34.001C127.857 33.4411 128.186 32.9886 128.596 32.6436C129.012 32.2985 129.478 32.0348 129.992 31.8525C130.513 31.6702 131.057 31.5791 131.623 31.5791C131.825 31.5791 132.095 31.6051 132.434 31.6572C132.772 31.7093 133.029 31.7712 133.205 31.8428V34.8213H132.805L131.418 32.4873C130.852 32.4873 130.386 32.6305 130.021 32.917C129.663 33.2035 129.41 33.5778 129.26 34.04C129.117 34.4958 129.045 35.0426 129.045 35.6807V36.8818H131.799L132.141 36.999V37.585L129.045 38.1807ZM141.75 41.8818H135.432C135.438 42.611 135.542 43.2458 135.744 43.7861C135.946 44.3265 136.219 44.7497 136.564 45.0557C136.91 45.3617 137.287 45.5863 137.697 45.7295C138.114 45.8727 138.566 45.9443 139.055 45.9443C139.732 45.9443 140.458 45.7165 141.232 45.2607L141.535 45.8467C140.988 46.3285 140.441 46.654 139.895 46.8232C139.348 46.986 138.726 47.0674 138.029 47.0674C137.424 47.0674 136.841 46.9404 136.281 46.6865C135.721 46.4261 135.23 46.0713 134.807 45.6221C134.383 45.1663 134.045 44.6097 133.791 43.9521C133.537 43.2946 133.41 42.585 133.41 41.8232C133.41 41.1006 133.501 40.443 133.684 39.8506C133.872 39.2516 134.12 38.7536 134.426 38.3564C134.732 37.9593 135.087 37.624 135.49 37.3506C135.9 37.0771 136.317 36.8818 136.74 36.7646C137.17 36.641 137.606 36.5791 138.049 36.5791C138.602 36.5791 139.113 36.6833 139.582 36.8916C140.057 37.0934 140.477 37.3962 140.842 37.7998C141.213 38.1969 141.503 38.721 141.711 39.3721C141.926 40.0231 142.033 40.7653 142.033 41.5986L141.75 41.8818ZM138.088 37.5264C137.339 37.5264 136.74 37.8226 136.291 38.415C135.848 39.0075 135.575 39.818 135.471 40.8467H140.129C140.129 39.805 139.953 38.9912 139.602 38.4053C139.25 37.8193 138.745 37.5264 138.088 37.5264ZM152.082 41.8818H145.764C145.77 42.611 145.874 43.2458 146.076 43.7861C146.278 44.3265 146.551 44.7497 146.896 45.0557C147.242 45.3617 147.619 45.5863 148.029 45.7295C148.446 45.8727 148.898 45.9443 149.387 45.9443C150.064 45.9443 150.79 45.7165 151.564 45.2607L151.867 45.8467C151.32 46.3285 150.773 46.654 150.227 46.8232C149.68 46.986 149.058 47.0674 148.361 47.0674C147.756 47.0674 147.173 46.9404 146.613 46.6865C146.053 46.4261 145.562 46.0713 145.139 45.6221C144.715 45.1663 144.377 44.6097 144.123 43.9521C143.869 43.2946 143.742 42.585 143.742 41.8232C143.742 41.1006 143.833 40.443 144.016 39.8506C144.204 39.2516 144.452 38.7536 144.758 38.3564C145.064 37.9593 145.419 37.624 145.822 37.3506C146.232 37.0771 146.649 36.8818 147.072 36.7646C147.502 36.641 147.938 36.5791 148.381 36.5791C148.934 36.5791 149.445 36.6833 149.914 36.8916C150.389 37.0934 150.809 37.3962 151.174 37.7998C151.545 38.1969 151.835 38.721 152.043 39.3721C152.258 40.0231 152.365 40.7653 152.365 41.5986L152.082 41.8818ZM148.42 37.5264C147.671 37.5264 147.072 37.8226 146.623 38.415C146.18 39.0075 145.907 39.818 145.803 40.8467H150.461C150.461 39.805 150.285 38.9912 149.934 38.4053C149.582 37.8193 149.077 37.5264 148.42 37.5264ZM162.473 47.2627H161.877V33.3857L160.07 32.6826V32.2822L163.469 31.5791L163.674 31.7842V37.4678C164.351 36.8753 165.236 36.5791 166.33 36.5791C166.87 36.5791 167.395 36.7028 167.902 36.9502C168.417 37.1911 168.872 37.5329 169.27 37.9756C169.667 38.4118 169.986 38.9652 170.227 39.6357C170.467 40.3063 170.588 41.0355 170.588 41.8232C170.588 42.6566 170.448 43.4118 170.168 44.0889C169.895 44.766 169.523 45.3193 169.055 45.749C168.586 46.1722 168.052 46.4977 167.453 46.7256C166.861 46.9535 166.232 47.0674 165.568 47.0674C164.715 47.0674 163.869 46.8721 163.029 46.4814L162.473 47.2627ZM165.617 37.585C164.849 37.585 164.201 37.891 163.674 38.5029V45.1436C163.999 45.5146 164.322 45.762 164.641 45.8857C164.966 46.0029 165.311 46.0615 165.676 46.0615C166.281 46.0615 166.805 45.8564 167.248 45.4463C167.697 45.0361 168.026 44.5186 168.234 43.8936C168.449 43.262 168.557 42.5719 168.557 41.8232C168.557 40.5798 168.286 39.5641 167.746 38.7764C167.212 37.9821 166.503 37.585 165.617 37.585ZM181.799 45.9639V46.3252L179.68 46.9795C179.263 47.0706 178.911 47.0218 178.625 46.833C178.339 46.6507 178.195 46.335 178.195 45.8857C177.349 46.6735 176.356 47.0674 175.217 47.0674C174.273 47.0674 173.566 46.8232 173.098 46.335C172.629 45.8467 172.395 45.2347 172.395 44.499C172.395 43.9456 172.518 43.4574 172.766 43.0342C173.013 42.6045 173.329 42.2627 173.713 42.0088C174.097 41.7549 174.556 41.5433 175.09 41.374C175.624 41.2048 176.138 41.0876 176.633 41.0225C177.128 40.9574 177.648 40.9183 178.195 40.9053V39.9678C178.195 39.0563 178.052 38.4215 177.766 38.0635C177.479 37.7054 177.004 37.5264 176.34 37.5264C175.839 37.5264 175.249 37.6045 174.572 37.7607L173.537 40.0264H173.059V37.2432C173.645 37.0348 174.263 36.8721 174.914 36.7549C175.565 36.6377 176.138 36.5791 176.633 36.5791C177.707 36.5791 178.534 36.7972 179.113 37.2334C179.699 37.6631 179.992 38.3727 179.992 39.3623V45.4658L181.799 45.9639ZM176.037 45.9248C176.408 45.9248 176.789 45.8369 177.18 45.6611C177.57 45.4788 177.909 45.2314 178.195 44.9189V41.7061C176.893 41.7646 175.9 42.0316 175.217 42.5068C174.533 42.9756 174.191 43.5745 174.191 44.3037C174.191 44.8636 174.37 45.2738 174.729 45.5342C175.087 45.7946 175.523 45.9248 176.037 45.9248ZM188.703 46.4229V46.8232H182.805V46.4229L184.602 45.7197V38.3857L182.805 37.6826V37.2822L186.203 36.5791L186.398 36.7842V37.9854C187.388 37.0479 188.69 36.5791 190.305 36.5791V38.7471L189.904 38.8838L188.479 38.1025C188.186 38.1025 187.85 38.1676 187.473 38.2979C187.095 38.4215 186.737 38.6038 186.398 38.8447V45.7197L188.703 46.4229Z" fill="#F89938"/>
</svg>
