<svg width="41" height="60" viewBox="0 0 41 60" fill="none" xmlns="http://www.w3.org/2000/svg">
<path d="M18.2 38.486C19.1 37.386 20.4 35.886 20.3 34.486C20.2 32.786 18.7 31.086 17.5 29.986C14.8 27.486 10.3 28.786 7.90004 31.086C6.80004 32.286 5.80004 33.386 6.00004 35.186C6.20004 36.686 7.40004 39.886 8.70004 40.786C9.80004 41.586 12.6 41.486 13.9 41.386C15.9 41.186 17 39.986 18.2 38.486ZM15.2 30.186C14.7 30.786 14.2 31.486 13.7 32.086C13.2 32.686 12.5 33.286 12 33.886C11.6 33.786 11.1 33.886 10.6 33.886C9.70004 33.986 8.70004 33.986 7.80004 34.086C8.00004 33.386 8.40004 32.586 9.00004 31.986C10.5 30.586 13 29.686 15.2 30.186ZM11.6 39.786C9.40004 39.386 7.80004 37.586 7.70004 35.586C8.90004 35.386 11.5 34.886 12.3 35.786C13.3 36.886 13.7 38.486 14.5 39.686C13.6 39.886 12.7 39.986 11.6 39.786ZM15.7 38.986C15.7 38.986 15.7 38.886 15.7 38.986C14.7 37.686 14.3 35.886 13.2 34.686C13.7 34.186 14.2 33.686 14.7 33.186C15.3 32.486 15.9 31.686 16.5 30.986C16.6 30.986 16.6 31.086 16.7 31.086C17.4 31.586 18.9 33.386 19 34.386C19.1 35.286 18.2 36.386 17.7 37.086C17.1 37.786 16.4 38.486 15.7 38.986Z" fill="#F89938"/>
<path d="M26.1 44.8858C23.5 43.5858 18.9 43.3858 16.9 46.0858C16 47.3858 14.9 49.8858 15.2 51.4858C15.5 53.0858 17.2 54.1858 18.5 55.0858C20.1 56.1858 21.6 56.9858 23.5 56.4858C24.8 56.0858 27.4 55.4858 28.3 54.3858C29.3 53.0858 29.5 49.6858 29.2 48.0858C28.7 46.3858 27.5 45.5858 26.1 44.8858ZM25.4 46.0858C26.1 46.4858 26.7 47.0858 27.1 47.7858C26.3 47.9858 25.4 48.1858 24.6 48.3858C24.1 48.4858 23.6 48.5858 23.1 48.7858C22.4 48.3858 21.6 48.0858 21 47.5858C20.3 47.0858 19.6 46.6858 18.9 46.1858C20.8 45.0858 23.6 45.1858 25.4 46.0858ZM16.6 51.1858C16.4 50.1858 17.2 47.9858 17.9 47.0858C18.7 47.5858 19.5 48.1858 20.3 48.6858C20.9 49.0858 21.6 49.3858 22.2 49.6858C21.6 51.1858 21.6 52.9858 21.1 54.4858C21.1 54.4858 21.1 54.4858 21.1 54.5858C20.4 54.3858 19.8 54.0858 19.2 53.6858C18.4 53.2858 16.8 52.2858 16.6 51.1858ZM26 53.9858C24.9 54.6858 23.7 55.0858 22.5 54.9858C23 53.5858 22.8 51.8858 23.4 50.5858C23.7 49.8858 24.5 49.8858 25.2 49.6858C26 49.4858 26.8 49.2858 27.6 49.0858C28.1 50.8858 27.7 52.8858 26 53.9858Z" fill="#F89938"/>
<path d="M24.4001 33.4859C25.7001 33.6859 26.9001 32.6859 27.2001 31.4859C27.5001 30.1859 26.7001 29.2859 25.5001 28.7859C25.4001 28.6859 25.3001 28.6859 25.1001 28.7859C23.8001 28.6859 22.4001 29.2859 22.1001 30.6859C21.9001 31.9859 23.1001 33.2859 24.4001 33.4859ZM23.6001 30.7859C23.8001 30.0859 24.6001 30.0859 25.2001 30.0859C25.7001 30.2859 26.0001 30.5859 25.9001 31.1859C25.8001 31.7859 25.3001 32.1859 24.7001 32.0859C24.1001 31.9859 23.4001 31.3859 23.6001 30.7859Z" fill="#F89938"/>
<path d="M29.3001 36.2859C29.2001 36.1859 29.1001 36.1859 28.9001 36.2859C27.6001 36.1859 26.2001 36.7859 25.9001 38.1859C25.6001 39.5859 26.9001 40.8859 28.2001 41.0859C29.5001 41.2859 30.7001 40.2859 31.0001 39.0859C31.2001 37.6859 30.5001 36.7859 29.3001 36.2859ZM29.6001 38.7859C29.5001 39.3859 29.0001 39.7859 28.4001 39.6859C27.8001 39.5859 27.1001 38.9859 27.3001 38.3859C27.5001 37.6859 28.3001 37.6859 28.9001 37.6859C29.4001 37.8859 29.7001 38.1859 29.6001 38.7859Z" fill="#F89938"/>
<path d="M11.2 46.4861C11.1 46.3861 11 46.3861 10.8 46.4861C9.49996 46.3861 8.09996 46.9861 7.79996 48.3861C7.49996 49.7861 8.79996 51.0861 10.1 51.2861C11.4 51.4861 12.6 50.4861 12.9 49.2861C13.2 47.8861 12.4 46.9861 11.2 46.4861ZM11.5 48.8861C11.4 49.4861 10.9 49.8861 10.3 49.7861C9.69996 49.6861 8.99996 49.0861 9.19996 48.4861C9.39996 47.7861 10.2 47.7861 10.8 47.7861C11.4 48.0861 11.6 48.3861 11.5 48.8861Z" fill="#F89938"/>
<path d="M37.2 11.486C37.4 11.786 37.9 11.786 38.2 11.486C39 10.486 39.9 9.48602 40.6 8.48602C40.8 8.18602 40.7 7.88602 40.5 7.68602C38.2 4.98602 31.5 -4.61398 28.6 2.68602C27.6 5.18602 27.2 7.98602 26.5 10.586C26.2 11.786 25.9 12.886 25.6 14.086C17.3 14.086 9 13.886 0.7 13.886C0.6 13.886 0.5 13.886 0.4 13.986C0.2 14.086 0 14.286 0 14.586C1 25.086 2.2 35.486 3.8 45.886C4.2 48.586 4.7 51.286 5.2 53.986C5.5 55.386 5.4 57.786 6.5 58.986C7.3 59.786 8.6 59.686 9.7 59.686C12.5 59.786 15.2 59.886 18 59.886C20.4 59.886 22.9 59.786 25.3 59.786C26.7 59.786 28.9 60.086 30.2 59.386C32.9 57.986 32.6 52.586 33 49.986C34.9 38.086 36.8 26.386 38.6 14.686C38.7 14.286 38.4 13.786 37.9 13.786C35.6 13.886 33.3 13.886 31 13.886C31.6 11.586 32.2 9.38602 32.9 7.18602C34.4 8.68602 35.8 10.086 37.2 11.486ZM24.5 24.686C25.2 21.586 26 18.486 26.7 15.386C27.5 15.386 28.4 15.386 29.2 15.386C28.4 18.486 27.7 21.686 26.9 24.786C26.1 24.786 25.3 24.786 24.5 24.686ZM23 24.586C21.2 24.386 19.3 24.086 17.5 23.686C12.2 22.686 7.5 22.586 2.4 24.086C2.1 21.086 1.8 18.186 1.5 15.186C9.4 15.186 17.4 15.386 25.3 15.386C24.5 18.386 23.7 21.486 23 24.586ZM32.8 42.686C32.4 44.986 32.1 47.186 31.7 49.486C31.4 51.586 31.4 54.286 30.6 56.286C29.7 58.686 27.5 58.286 25.3 58.286C23.1 58.286 20.8 58.386 18.6 58.386C16.5 58.386 14.4 58.386 12.3 58.286C11.3 58.286 10 58.486 9 58.186C7.1 57.586 7.3 56.986 6.9 55.386C6 50.986 5.3 46.686 4.6 42.286C3.9 36.586 3.2 30.986 2.5 25.486C9.4 23.486 15.3 25.086 22.2 25.986C26.7 26.586 31.3 26.386 35.6 24.686C34.7 30.686 33.7 36.686 32.8 42.686ZM37.1 15.186C36.7 17.786 36.3 20.386 35.9 23.086C33.4 24.186 30.9 24.686 28.4 24.786C29.2 21.686 29.9 18.486 30.7 15.386C32.8 15.386 35 15.286 37.1 15.186ZM29.6 13.986C28.8 13.986 27.9 13.986 27.1 13.986C27.3 13.086 27.6 12.186 27.8 11.286C28.5 8.78602 28.7 5.08602 30.1 2.88602C31.9 -0.113984 34 2.48602 35.5 4.08602C36.3 4.88602 39.2 7.38602 39.2 8.38602C39.2 8.88602 38 9.58602 37.8 10.086C37.8 9.98602 37.7 9.98602 37.7 9.88602C36.7 8.28602 34.6 6.78602 33.3 5.48602C32.9 5.08602 32.3 5.28602 32.1 5.78602C31 8.48602 30.3 11.186 29.6 13.986Z" fill="#F89938"/>
<path d="M3.09998 19.6858C3.29998 20.4858 3.39998 21.3858 3.59998 22.2858C3.69998 23.1858 5.09998 22.7858 4.89998 21.8858C4.69998 20.8858 4.59998 19.9858 4.29998 18.9858C4.29998 18.8858 4.09998 18.4858 4.09998 18.3858L3.99998 18.2858C4.09998 18.2858 4.29998 18.2858 4.39998 18.2858C4.89998 18.2858 5.49998 18.2858 5.99998 18.3858C6.89998 18.4858 6.89998 17.0858 5.99998 16.9858C4.99998 16.8858 2.89998 16.5858 2.59998 17.9858C2.69998 18.4858 2.99998 19.0858 3.09998 19.6858Z" fill="#F89938"/>
<path d="M8.3 18.4859C9.2 18.4859 9.2 17.0859 8.3 17.0859C7.4 17.0859 7.4 18.4859 8.3 18.4859Z" fill="#F89938"/>
</svg>
