<svg width="31" height="47" viewBox="0 0 31 47" fill="none" xmlns="http://www.w3.org/2000/svg">
<path d="M29.8152 16.6322C29.8291 15.0501 29.8855 13.1247 29.321 11.6111C28.2483 8.6962 27.2886 5.66915 26.4983 2.6421C26.0466 1.01647 25.1998 0.62407 23.6191 0.680127C18.143 0.79224 12.7234 0.736183 7.24733 0.736183C6.28761 0.736183 4.98916 0.455901 4.76334 1.57703C3.80362 5.94943 1.37608 9.92944 1.03736 14.47C0.642177 20.2438 3.40844 24.392 8.09415 27.363C16.8446 32.8565 29.2081 26.5782 29.8291 16.432" stroke="#F89938" stroke-miterlimit="10"/>
<path d="M1.60199 16.0955C10.804 16.0955 20.0626 16.0955 29.2646 16.0955" stroke="#F89938" stroke-miterlimit="10"/>
<path d="M16.4884 29.7563C16.1496 33.2879 15.5286 37.8337 16.0932 41.3092C16.2968 42.5626 13.6779 42.7655 14.1737 41.1971C14.5125 37.8898 14.1737 33.344 13.7221 29.7563" stroke="#F89938" stroke-miterlimit="10"/>
<path d="M1.02556 43.4756C0.417022 39.2158 11.8778 39.2158 14.2106 39.2158L14.0077 40.6358C11.675 40.6358 8.32802 40.8386 5.99529 41.3457C4.47395 41.65 1.22841 42.6642 3.66256 44.0841C5.89387 45.5041 10.0522 45.4026 12.5878 45.5041C16.6447 45.8083 21.1073 45.7069 24.9614 44.5912C25.8742 44.287 28.1055 43.7799 26.9899 42.2585C26.5842 41.7514 24.86 41.4471 24.2514 41.3457C21.9187 40.8386 18.5718 40.6358 16.1376 40.6358L16.3404 39.2158C18.876 39.2158 30.5397 39.4187 29.5254 43.577C29.1198 45.4026 25.0628 46.1126 23.6429 46.3154C19.9917 46.924 16.4419 47.1268 12.7906 46.924C10.4579 46.8226 1.43125 46.8226 1.02556 43.4756Z" fill="#F89938"/>
<path d="M3.60048 10.8654C3.79797 9.98006 3.82182 9.82256 3.95268 9.36064C4.08355 8.89871 4.21441 8.43678 4.4293 7.93989C4.86015 6.85512 5.41651 5.76342 5.93031 4.73468C6.23029 4.11184 6.9811 4.25219 6.63964 4.84701C6.0833 5.93872 5.52803 6.93944 5.13865 8.05223C4.92269 8.64011 4.74927 9.16502 4.61733 9.71794C4.52901 10.1169 4.34394 10.4303 4.1716 10.8642C3.82906 11.55 3.29085 11.5014 3.60048 10.8654Z" fill="#F89938"/>
<path d="M20.3202 15.4331C18.0143 12.9111 13.9069 14.064 11.673 16.2258C10.5201 17.5228 9.72745 18.6758 10.0877 20.4052C10.3039 21.7743 11.1686 24.1523 12.1775 25.0891C13.1863 26.0258 15.6363 25.9538 16.8613 25.8817C18.5907 25.8097 19.5275 24.7288 20.5363 23.4317C21.329 22.4229 22.554 20.9096 22.554 19.5405C22.4819 18.0273 21.1849 16.442 20.3202 15.4331ZM18.2304 15.289C17.654 16.0096 17.1495 16.7302 16.6451 17.4508C16.2128 18.0273 15.6363 18.5317 15.2039 19.1082C14.8437 19.0361 14.4834 19.1082 14.051 19.1082C13.1142 19.1802 12.2495 19.1802 11.3127 19.3243C11.4569 18.4596 11.8172 17.5949 12.3936 17.0184C13.8348 15.5052 16.2848 14.5684 18.2304 15.289ZM14.4113 24.6567C12.3216 24.2964 11.2407 22.2788 11.1686 20.2611C12.3216 20.117 14.6995 19.5405 15.4201 20.5493C16.2848 21.6302 16.5731 23.0714 17.3657 24.2244C17.3657 24.2964 17.4378 24.2964 17.4378 24.2964C16.6451 24.8008 15.6363 24.8729 14.4113 24.6567ZM20.3202 21.9185C19.7437 22.7832 19.0951 23.4317 18.4466 23.9361C18.4466 23.8641 18.4466 23.8641 18.3746 23.792C17.5098 22.4949 17.1495 20.8376 16.1407 19.6846L16.0687 19.6126C16.501 19.0361 17.0775 18.5317 17.5819 17.9552C18.1584 17.2346 18.6628 16.514 19.1672 15.7934C19.3113 15.8655 19.4554 16.0096 19.5996 16.1537C20.2481 16.8023 21.329 18.3155 21.4731 19.2523C21.6172 20.189 20.8246 21.1979 20.3202 21.9185Z" fill="#F89938"/>
</svg>
