<svg width="48" height="52" viewBox="0 0 48 52" fill="none" xmlns="http://www.w3.org/2000/svg">
<path d="M47.7255 15.575C47.7255 15.475 47.7255 15.375 47.6255 15.375C44.8255 10.275 41.9255 5.275 38.9255 0.375003C38.8255 0.275003 38.8255 0.274991 38.7255 0.174991C38.7255 0.174991 38.7255 0.174991 38.6255 0.174991C38.6255 0.174991 38.5255 0.175 38.5255 0.075C38.4255 -0.025 38.2255 -0.025 38.1255 0.075C32.0255 1.575 25.9255 2.975 19.8255 4.275C19.5255 4.375 19.4255 4.47499 19.3255 4.67499C19.0255 4.97499 19.0255 5.47499 19.4255 5.67499C23.5255 7.97499 27.5255 10.075 31.6255 11.875C31.1255 13.175 30.6255 14.375 30.1255 15.675C26.0255 14.875 21.7255 15.075 17.6255 15.475C17.4255 14.775 17.3255 14.075 17.1255 13.375C16.4255 10.775 15.9255 7.37499 14.1255 5.17499C11.2255 1.57499 4.22548 4.47499 0.525483 5.67499C0.125483 5.77499 -0.0745166 6.175 0.0254834 6.575C0.225483 7.375 0.325483 8.17499 0.525483 8.97499C0.625483 9.27499 0.825483 9.37499 1.02548 9.47499C1.12548 9.47499 1.22548 9.57499 1.42548 9.47499C3.32548 8.97499 5.22548 8.475 7.02548 8.075C9.32548 7.575 10.1255 7.675 11.3255 9.875C11.8255 10.675 11.9255 11.975 12.2255 12.875C12.5255 13.975 12.9255 15.175 13.2255 16.275C10.6255 16.775 7.32547 17.375 5.72547 19.475C5.42547 19.875 5.22546 20.375 5.12546 20.775C3.82546 23.275 3.02547 26.575 2.82547 29.875C2.62547 29.875 2.42547 29.775 2.22547 29.775C1.82547 29.675 1.52547 29.875 1.32547 30.275C1.22547 30.575 1.42547 31.075 1.82547 31.175C2.12547 31.275 2.42547 31.275 2.82547 31.375C2.82547 33.475 3.02548 35.575 3.52548 37.475C3.12548 37.575 2.72548 37.775 2.42548 37.975C1.72548 38.475 2.42546 39.675 3.12546 39.175C3.32546 38.975 3.62548 38.875 3.92548 38.775C4.02548 39.175 4.22547 39.575 4.32547 39.975C5.12547 41.775 6.22548 43.375 7.52548 44.675C7.42548 44.775 7.32547 44.875 7.22547 45.075C6.72547 45.875 7.92548 46.575 8.42548 45.775L8.52548 45.675C10.2255 47.175 12.2255 48.275 14.4255 49.075C14.3255 49.275 14.3255 49.475 14.2255 49.775C13.9255 50.675 15.3255 50.975 15.6255 50.175C15.7255 49.975 15.7255 49.775 15.8255 49.575C17.6255 50.175 19.5255 50.575 21.4255 50.675C23.2255 50.875 24.9255 50.775 26.6255 50.475C26.6255 50.675 26.7255 50.875 26.7255 51.075C26.9255 51.975 28.3255 51.575 28.1255 50.675C28.1255 50.475 28.0255 50.275 28.0255 50.175C30.3255 49.575 32.4255 48.575 34.3255 47.175C34.4255 47.275 34.5255 47.375 34.6255 47.475C35.2255 48.075 36.2255 47.075 35.6255 46.475C35.5255 46.375 35.5255 46.375 35.4255 46.275C37.0255 44.975 38.3255 43.475 39.5255 41.675C39.9255 41.075 40.3255 40.375 40.6255 39.775C40.9255 40.075 41.3255 40.275 41.6255 40.475C42.4255 40.875 43.1255 39.675 42.3255 39.275C41.9255 39.075 41.6255 38.775 41.3255 38.475C41.3255 38.475 41.2255 38.475 41.2255 38.375C42.8255 34.875 43.3255 31.175 42.7255 27.575C43.0255 27.575 43.2255 27.575 43.5255 27.475C44.4255 27.275 44.0255 25.875 43.1255 26.075C42.9255 26.175 42.6255 26.175 42.4255 26.075C42.0255 24.275 41.3255 22.475 40.3255 20.675C40.2255 20.175 40.0255 19.675 39.7255 19.175C38.2255 17.175 34.0255 16.475 31.5255 15.875C31.9255 14.675 32.4255 13.475 32.9255 12.375C37.3255 14.275 41.9255 15.775 46.9255 16.675C47.6255 16.675 48.0255 15.975 47.7255 15.575ZM29.7255 16.975C29.5255 17.475 29.3255 18.075 29.1255 18.575C28.6255 18.475 28.1255 18.475 27.7255 18.375C24.6255 17.975 21.6255 18.075 18.5255 18.375C18.4255 17.775 18.2255 17.175 18.1255 16.575C22.0255 16.375 25.9255 16.375 29.7255 16.975ZM30.0255 20.175C31.2255 20.375 32.5255 20.775 32.7255 21.475C32.9255 22.575 29.7255 23.375 28.6255 23.675C29.1255 22.575 29.6255 21.375 30.0255 20.175ZM26.9255 23.975C24.6255 24.275 22.1255 24.175 19.9255 23.875C19.5255 22.575 19.1255 21.175 18.8255 19.775C22.1255 19.475 25.4255 19.375 28.6255 19.875C28.1255 21.275 27.5255 22.675 26.9255 23.975ZM12.1255 7.375C10.2255 4.375 4.82547 6.67499 1.82547 7.67499C1.72547 7.37499 1.62546 6.97499 1.62546 6.67499C2.82546 6.27499 4.02547 5.87499 5.32547 5.67499C6.62547 5.37499 9.02547 4.775 10.2255 4.875C13.6255 5.175 14.1255 7.57499 14.8255 9.97499C16.2255 14.575 17.1255 19.275 18.4255 23.875C18.0255 23.775 17.6255 23.775 17.2255 23.675C16.4255 20.875 15.5255 18.075 14.7255 15.275C13.9255 12.775 13.5255 9.475 12.1255 7.375ZM15.6255 23.275C15.3255 23.175 15.0255 23.175 14.7255 23.075C14.2255 22.975 13.3255 22.875 13.0255 22.475C11.9255 21.375 13.6255 20.775 14.8255 20.575C15.0255 21.375 15.3255 22.275 15.6255 23.275ZM38.6255 40.275C34.7255 46.375 28.2255 49.775 21.0255 48.975C14.7255 48.175 8.32547 45.175 5.72547 39.075C3.92547 34.875 3.92546 27.875 5.62546 23.175C6.02546 23.975 6.62547 24.675 7.32547 25.175C12.5255 29.375 22.3255 29.175 28.4255 28.375C30.5255 28.075 37.8255 25.775 39.9255 22.675C42.6255 28.475 42.2255 34.675 38.6255 40.275ZM34.3255 18.075C35.3255 18.375 37.8255 18.875 38.4255 19.875C39.1255 20.975 38.1255 22.475 37.1255 23.375C35.1255 25.075 32.1255 26.275 29.6255 26.875C24.4255 28.075 17.7255 27.575 12.6255 26.175C10.2255 25.475 4.62547 23.075 7.32547 19.775C8.52547 18.275 11.7255 17.775 13.8255 17.375C14.0255 17.975 14.2255 18.575 14.3255 19.175C12.8255 19.475 10.6255 20.075 10.5255 21.675C10.4255 22.975 12.0255 23.675 13.0255 24.075C17.3255 25.775 23.7255 26.075 28.2255 25.275C30.1255 24.975 36.8255 23.075 33.8255 20.275C33.0255 19.475 31.8255 19.175 30.5255 18.875C30.7255 18.375 30.9255 17.875 31.1255 17.275C32.1255 17.475 33.2255 17.675 34.3255 18.075ZM45.9255 14.875C43.5255 14.375 41.1255 13.675 38.9255 12.975C38.9255 9.57499 39.2255 6.275 39.2255 2.875C40.4255 4.275 41.2255 6.575 42.0255 7.775C43.2255 10.175 44.6255 12.575 45.9255 14.875ZM28.3255 8.575C31.5255 6.475 34.5255 3.975 37.7255 1.875C37.8255 5.375 37.5255 8.97499 37.5255 12.475C34.3255 11.375 31.3255 10.075 28.3255 8.575ZM33.3255 2.575C33.7255 2.475 34.3255 2.275 34.9255 2.075C32.2255 3.975 29.5255 6.075 26.7255 7.875C25.0255 6.975 23.3255 6.07499 21.6255 5.17499C24.0255 4.67499 26.3255 4.17499 28.7255 3.67499C30.3255 3.27499 31.8255 2.975 33.3255 2.575Z" fill="#F89938"/>
<path d="M17.8255 32.7749C17.4255 33.1749 17.1255 33.4749 16.7255 33.8749C16.1255 34.4749 17.1255 35.4749 17.7255 34.8749C18.1255 34.4749 18.4255 34.1749 18.8255 33.7749C19.4255 33.1749 18.4255 32.1749 17.8255 32.7749Z" fill="#F89938"/>
<path d="M9.92549 32.4752C10.2255 32.4752 10.6255 32.4752 10.9255 32.4752C11.8255 32.4752 11.8255 31.0752 10.9255 31.0752C10.6255 31.0752 10.2255 31.0752 9.92549 31.0752C9.02549 31.0752 9.02549 32.4752 9.92549 32.4752Z" fill="#F89938"/>
<path d="M11.1255 37.475C10.6255 37.875 10.0255 38.3751 9.52549 38.7751C8.82549 39.3751 9.82549 40.3751 10.5255 39.7751C11.0255 39.3751 11.6255 38.875 12.1255 38.475C12.7255 37.875 11.7255 36.875 11.1255 37.475Z" fill="#F89938"/>
<path d="M13.0254 41.0752C12.9254 41.5752 12.8254 42.0752 12.6254 42.4752C12.4254 43.3752 13.7254 43.6752 14.0254 42.8752C14.1254 42.3752 14.2254 41.8752 14.4254 41.4752C14.6254 40.5752 13.2254 40.1752 13.0254 41.0752Z" fill="#F89938"/>
<path d="M19.6255 43.575C19.6255 43.175 19.2255 42.875 18.9255 42.875C18.5255 42.875 18.2255 43.175 18.2255 43.575C18.1255 44.275 18.1255 44.975 18.3255 45.775C18.5255 46.675 19.8255 46.275 19.7255 45.375C19.5255 44.775 19.5255 44.175 19.6255 43.575Z" fill="#F89938"/>
<path d="M29.2255 42.6748C29.0255 41.7748 27.7255 42.1748 27.9255 43.0748C28.1255 43.7748 28.3255 44.4748 28.6255 45.0748C29.0255 45.8748 30.2255 45.1748 29.8255 44.3748C29.6255 43.8748 29.4255 43.2748 29.2255 42.6748Z" fill="#F89938"/>
<path d="M35.0254 39.7748C34.7254 39.5748 34.3254 39.4748 34.0254 39.2748C33.2254 38.8748 32.5254 40.0748 33.3254 40.4748C33.6254 40.6748 34.0254 40.7748 34.3254 40.9748C35.1254 41.3748 35.8254 40.1748 35.0254 39.7748Z" fill="#F89938"/>
<path d="M37.8255 33.1748C37.2255 33.1748 36.6255 33.2748 36.1255 33.4748C35.2255 33.7748 35.6255 35.0748 36.5255 34.8748C36.9255 34.7748 37.4255 34.6748 37.8255 34.6748C38.7255 34.5748 38.7255 33.1748 37.8255 33.1748Z" fill="#F89938"/>
<path d="M38.8254 28.2749C38.5254 28.3749 38.1254 28.4749 37.8254 28.5749C36.9254 28.7749 37.3254 30.1749 38.2254 29.8749C38.5254 29.7749 38.9254 29.6749 39.2254 29.5749C40.1254 29.4749 39.7254 28.0749 38.8254 28.2749Z" fill="#F89938"/>
<path d="M24.9255 37.775C24.8255 37.375 24.4255 37.175 24.0255 37.275C23.6255 37.375 23.5255 37.775 23.5255 38.175C23.6255 38.675 23.7255 39.175 23.9255 39.675C24.2255 40.475 25.6255 40.175 25.3255 39.275C25.1255 38.775 24.9255 38.275 24.9255 37.775Z" fill="#F89938"/>
<path d="M27.2255 32.3749C26.7255 32.3749 26.1254 32.3749 25.6254 32.2749C24.7254 32.0749 24.3255 33.4749 25.2255 33.5749C25.9255 33.6749 26.5255 33.7749 27.2255 33.7749C28.1255 33.7749 28.1255 32.3749 27.2255 32.3749Z" fill="#F89938"/>
<path d="M31.9254 35.7749C31.3254 35.7749 30.8254 35.7749 30.3254 35.5749C29.5254 35.2749 29.1254 36.5749 29.9254 36.8749C30.5254 37.0749 31.2254 37.1749 31.9254 37.1749C32.8254 37.1749 32.8254 35.7749 31.9254 35.7749Z" fill="#F89938"/>
<path d="M32.0255 32.375C32.4255 32.275 32.8255 32.075 33.2255 31.975C34.1255 31.675 33.7255 30.375 32.8255 30.575C32.4255 30.675 32.0255 30.875 31.6255 30.975C30.8255 31.275 31.2255 32.675 32.0255 32.375Z" fill="#F89938"/>
</svg>
