<svg width="46" height="49" viewBox="0 0 46 49" fill="none" xmlns="http://www.w3.org/2000/svg">
<path d="M41.7677 1.13437C37.6677 -1.06563 32.3677 -0.0656247 30.2677 4.13438C20.4677 3.83438 10.5677 4.23438 0.767671 4.53438C0.367671 4.53438 0.0676743 4.83438 0.0676743 5.23438C-0.0323257 8.13438 -0.332326 10.7344 2.06767 12.7344C4.76767 14.9344 8.66768 15.1344 10.3677 18.2344C12.4677 22.0344 12.6677 26.9344 17.3677 28.1344C17.4677 32.2344 17.4677 36.2344 17.3677 40.3344C15.1677 40.3344 4.76768 40.3344 5.36768 44.5344C5.76768 47.8344 14.6677 47.8344 16.9677 47.9344C20.5677 48.1344 24.0677 47.9344 27.6677 47.3344C29.0677 47.1344 33.0677 46.4344 33.4677 44.6344C34.4677 40.5344 23.9677 40.3344 21.4677 40.3344C21.5677 36.3344 21.5677 32.2344 21.4677 28.2344C22.4677 27.9344 23.4677 27.4344 24.2677 26.7344C27.4677 24.0344 26.5677 19.4344 29.4677 16.6344C31.7677 14.4344 35.6677 14.1344 37.7677 11.6344C38.1677 11.1344 38.4677 10.4344 38.6677 9.73438C40.4677 10.4344 42.3677 10.9344 44.2677 11.6344C44.5677 11.7344 45.0677 11.5344 45.1677 11.1344C45.8677 7.33437 45.6677 3.13438 41.7677 1.13437ZM8.36768 5.53438C17.9677 5.23438 27.9677 5.13438 37.5677 5.93438C37.5677 6.23438 37.5677 6.63438 37.5677 6.93438C31.7677 6.33438 25.8677 6.83437 20.0677 6.63438C13.8677 6.33437 7.56768 6.73437 1.36768 6.83437C1.46768 6.43437 1.56767 6.13438 1.76767 5.93438C2.76767 5.13438 6.96768 5.53438 8.36768 5.53438ZM19.9677 43.4344C19.9677 44.3344 21.3677 44.3344 21.3677 43.4344C21.3677 42.8344 21.3677 42.3344 21.3677 41.7344C23.7677 41.7344 26.0677 41.9344 28.3677 42.4344C28.9677 42.5344 30.6677 42.8344 31.0677 43.3344C32.1677 44.8344 29.9677 45.3344 29.0677 45.6344C25.2677 46.7344 20.8677 46.8344 16.8677 46.5344C14.3677 46.4344 10.2677 46.5344 8.06767 45.1344C5.66767 43.7344 8.86768 42.7344 10.3677 42.4344C12.6677 41.9344 14.9677 41.7344 17.2677 41.7344C17.2677 42.2344 17.2677 42.7344 17.2677 43.3344C17.2677 44.2344 18.6677 44.2344 18.6677 43.3344C18.7677 38.3344 18.7677 33.3344 18.6677 28.4344C19.0677 28.4344 19.4677 28.4344 19.9677 28.4344C20.1677 33.4344 20.1677 38.4344 19.9677 43.4344ZM31.2677 13.7344C27.4677 15.7344 26.7677 18.0344 25.5677 22.0344C24.3677 25.8344 20.3677 28.4344 16.5677 26.4344C13.2677 24.7344 13.2677 20.5344 11.5677 17.5344C9.86767 14.4344 7.26767 14.3344 4.26767 12.5344C2.96767 11.8344 1.76768 10.8344 1.36768 9.43438C1.26768 9.13438 1.26767 8.73438 1.16767 8.23438C7.46767 8.23438 13.6677 7.83438 19.9677 8.03438C25.7677 8.23438 31.6677 7.73437 37.3677 8.33437C37.1677 9.43437 36.8677 10.4344 36.0677 11.1344C34.8677 12.3344 32.8677 12.9344 31.2677 13.7344ZM38.8677 5.23438C38.8677 5.03438 38.7677 4.93437 38.6677 4.83437L38.5677 4.73438C38.4677 4.63438 38.3677 4.53438 38.1677 4.53438C36.0677 4.33438 33.9677 4.23438 31.7677 4.13438C33.9677 0.934375 38.7677 0.434372 41.8677 2.83437C44.2677 4.63437 44.2677 7.43437 43.7677 10.1344C42.1677 9.53437 40.4677 9.03438 38.7677 8.43438C38.9677 7.33438 38.9677 6.13438 38.8677 5.23438Z" fill="#F89938"/>
<path d="M16.7676 22.3346C15.4676 21.6346 15.2676 20.1346 14.8676 18.8346C14.5676 18.0346 13.1676 18.3346 13.5676 19.2346C14.1676 20.8346 14.5676 22.6346 16.1676 23.5346C16.8676 23.9346 17.5676 22.7346 16.7676 22.3346Z" fill="#F89938"/>
<path d="M17.9677 22.8345C17.0677 22.8345 17.0677 24.2345 17.9677 24.2345C18.8677 24.2345 18.8677 22.8345 17.9677 22.8345Z" fill="#F89938"/>
</svg>
