<svg width="51" height="55" viewBox="0 0 51 55" fill="none" xmlns="http://www.w3.org/2000/svg">
<path d="M17.5 17.0001C17.4 17.3001 17.5 17.6001 17.8 17.7001C18 17.9001 18.3 18.0001 18.6 17.8001C20.2 16.6001 21.7 14.8001 21.5 12.7001C21.3 10.6001 15.8 6.0001 19.6 4.5001C20.3 4.2001 20.3 3.1001 19.4 3.1001C16.8 3.1001 14 4.0001 13.9 7.0001C13.6 11.2001 19.3 12.6001 17.5 17.0001ZM16.6 10.0001C14.7 7.8001 15.2 5.9001 17 5.1001C16.7 5.8001 16.7 6.6001 16.9 7.5001C17.2 8.5001 17.8 9.4001 18.4 10.2001C19.8 12.0001 20.2 13.6001 19.2 15.1001C19.2 14.2001 19 13.2001 18.5 12.4001C18.1 11.5001 17.3 10.9001 16.6 10.0001Z" fill="#F89938"/>
<path d="M26.5001 16.7C26.4001 17 26.5001 17.3 26.8001 17.4C27.0001 17.6 27.3001 17.7 27.6001 17.5C29.5001 16.1 31.3001 14 31.1001 11.5C30.8001 8.9 24.0001 3.4 28.9001 1.4C29.6001 1.1 29.6001 0 28.7001 0C25.5001 0 22.4001 0.999999 22.1001 4.6C21.7001 9.6 28.7001 11.3 26.5001 16.7ZM25.1001 8.3C22.6001 5.4 23.5001 2.9 26.0001 1.9C25.5001 2.7 25.4001 3.8 25.8001 5.1C26.1001 6.3 26.9001 7.4 27.6001 8.3C29.4001 10.7 29.9001 12.8 28.3001 14.9C28.4001 13.7 28.1001 12.4 27.5001 11.3C26.9001 10.1 25.9001 9.3 25.1001 8.3Z" fill="#F89938"/>
<path d="M48.1 24.4999C46.5 23.3999 44.8 23.1999 43.2 23.9999C43.2 21.8999 42.5 20.3999 40.7 19.8999H40.6H40.5C29.2 19.4999 17.4 18.9999 6.1 19.8999C2.3 20.1999 2.7 22.5999 2.9 25.9999C3.2 29.5999 3.9 33.1999 5.4 36.4999C6.4 38.5999 7.6 40.3999 9.2 41.7999C5.9 42.0999 0 43.2999 0 46.5999C0.1 49.0999 4.5 49.8999 6.3 50.1999C7 50.2999 7.7 50.3999 8.5 50.4999C10.5 55.0999 18.1 54.1999 22.1 54.2999C25.7 54.3999 29.6 54.4999 33.1 53.7999C35.2 53.2999 36.3 51.8999 37.5 50.1999C40.2 49.8999 44.4 49.2999 45.4 47.1999C47 43.9999 38.6 42.5999 35 42.1999C35.3 41.8999 35.7 41.4999 36 41.1999C36.1 41.1999 36.2 41.1999 36.3 41.1999C41.8 40.9999 49.6 37.3999 50.2 31.0999C50.5 28.7999 50.1 25.8999 48.1 24.4999ZM42.2 29.5999C42.7 29.3999 43.5 29.0999 44.1 29.2999C44.8 29.5999 45.1 30.3999 45 31.0999C44.8 32.0999 43.9 33.0999 43.2 33.5999C42.4 34.1999 41.1 34.8999 40 35.0999C40.7 33.4999 41.5 31.5999 42.1 29.5999C42.2 29.6999 42.2 29.6999 42.2 29.5999ZM29.8 52.6999C27.7 52.8999 25.5 52.8999 23.4 52.8999C20.3 52.8999 12.4 53.5999 10.2 50.5999C13.7 50.8999 17.3 50.7999 20.8 50.8999C25.7 50.9999 30.7 50.8999 35.6 50.3999C34 51.8999 32.3 52.4999 29.8 52.6999ZM33.8 43.4999C36.1 43.5999 38.4 44.0999 40.7 44.7999C41.4 44.9999 43.2 45.3999 43.6 45.8999C44.6 47.1999 40.6 48.0999 39.8 48.2999C33.8 49.6999 27.5 49.5999 21.4 49.4999C18.5 49.4999 15.7 49.3999 12.8 49.2999C10 49.1999 5.5 49.4999 3 47.7999C-0.3 45.4999 4.6 44.2999 6.4 43.7999C7.8 43.3999 9.2 43.1999 10.6 43.0999C10.6 43.0999 10.6 43.0999 10.7 43.0999C13.6 45.2999 17.2 46.6999 21.1 46.9999C25.9 47.3999 30.2 46.0999 33.7 43.4999C33.7 43.4999 33.7 43.4999 33.8 43.4999ZM34 41.3999C27.9 47.1999 17.1 46.9999 10.8 41.4999C8 39.0999 6.3 35.6999 5.4 32.1999C4.8 30.1999 4.5 28.0999 4.3 25.9999C4.2 25.2999 4 23.8999 4.2 23.1999C4.8 20.7999 7.2 21.2999 8.9 21.2999C19.4 20.9999 29.9 20.9999 40.3 21.2999C43.2 22.0999 40.4 30.1999 39.8 31.8999C38.6 35.3999 36.7 38.8999 34 41.3999ZM46.4 35.4999C44 37.9999 40.7 39.3999 37.2 39.7999C37.6 39.2999 38 38.6999 38.4 38.0999C38.6 37.7999 38.9 37.2999 39.2 36.6999C41.7 36.5999 44.9 34.6999 46 32.3999C46.5 31.2999 46.6 29.9999 45.8 28.9999C45 27.8999 43.7 27.7999 42.5 28.1999C42.7 27.3999 42.9 26.5999 43 25.7999C45.7 23.4999 48.5 26.2999 48.8 29.0999C49.1 31.6999 48.3 33.5999 46.4 35.4999Z" fill="#F89938"/>
<path d="M7.3 25.0002C7.2 24.1002 5.80001 24.1002 5.90001 25.0002C6.20001 28.6002 7.3 31.9002 9.2 35.0002C9.7 35.8002 10.9 35.1002 10.4 34.3002C8.60001 31.4002 7.5 28.3002 7.3 25.0002Z" fill="#F89938"/>
<path d="M11.2 36.6001C10.3 36.6001 10.3 38.0001 11.2 38.0001C12.1 38.0001 12.1 36.6001 11.2 36.6001Z" fill="#F89938"/>
</svg>
