<svg width="51" height="51" viewBox="0 0 51 51" fill="none" xmlns="http://www.w3.org/2000/svg">
<path d="M50.2 3.58995C46.9 3.48995 43.5 3.48995 40.2 3.48995C40.9 2.68995 41.5 1.78995 42.2 0.989947C42.7 0.289947 41.5 -0.41005 41 0.28995C40.2 1.38995 39.3 2.48995 38.5 3.48995C25.9 3.48995 13.3 3.58995 0.700005 3.58995C0.600005 3.58995 0.500002 3.58995 0.400002 3.58995C0.100002 3.68995 0 3.88995 0 4.08995C0 4.28995 -1.52737e-06 4.48995 0.0999985 4.58995C0.0999985 4.58995 0.100005 4.68994 0.200005 4.68994C4.7 9.48994 9.4 13.9899 14.1 18.4899C16.1 20.3899 18.1 22.39 20.1 24.39C20.9 25.19 22.2 26.89 23.5 28.09C23.6 32.99 23.6 37.7899 23.5 42.6899C21.2 42.6899 10.9 42.69 11.5 46.89C11.9 50.19 20.8 50.19 23.1 50.29C26.7 50.49 30.2 50.2899 33.8 49.6899C35.2 49.4899 39.2 48.7899 39.6 46.9899C40.6 42.8899 30.1 42.6899 27.6 42.6899C27.7 37.8899 27.7 33.09 27.6 28.2899C28.1 27.8899 28.5 27.39 28.9 27.09C31.4 24.79 33.8 22.3899 36.2 19.9899C41.1 14.8899 45.8 9.68995 50.9 4.78995C51.1 4.38995 50.8 3.58995 50.2 3.58995ZM2.2 4.98995C13.9 4.98995 25.6 4.78996 37.3 4.88996C36.1 6.28996 35 7.78994 33.8 9.18994C24.5 9.18994 15.3 8.48995 6 8.98995C4.8 7.68995 3.5 6.38995 2.2 4.98995ZM26 45.79C26 46.69 27.4 46.69 27.4 45.79C27.4 45.19 27.4 44.69 27.4 44.09C29.8 44.09 32.1 44.29 34.4 44.79C35 44.8899 36.7 45.1899 37.1 45.6899C38.2 47.1899 36 47.6899 35.1 47.9899C31.3 49.0899 26.9 49.19 22.9 48.89C20.4 48.79 16.3 48.8899 14.1 47.4899C11.7 46.0899 14.9 45.09 16.4 44.79C18.7 44.29 21 44.09 23.3 44.09C23.3 44.59 23.3 45.0899 23.3 45.6899C23.3 46.5899 24.7 46.5899 24.7 45.6899C24.8 40.0899 24.8 34.5899 24.7 28.9899C24.9 29.0899 25.1 29.0899 25.3 29.1899C25.5 29.1899 25.7 29.19 26 29.09C26.1 34.69 26.1 40.19 26 45.79ZM31.1 22.89C30.3 23.69 29.4 24.49 28.5 25.2899C26.8 26.7899 25.7 27.5899 23.6 26.1899C21.8 24.9899 20.1 22.7899 18.6 21.2899C16.9 19.6899 15.3 17.89 13.6 16.39C11.4 14.49 9.4 12.49 7.3 10.39C15.8 9.98996 24.2 10.49 32.7 10.59C31.9 11.49 31.2 12.4899 30.5 13.4899C28.4 12.3899 25.4 13.5899 24.4 15.6899C23.6 17.3899 24.3 19.2899 25.6 20.4899C25 21.3899 24.3 22.19 23.7 23.09C23.2 23.89 24.4 24.5899 24.9 23.7899C25.5 22.8899 26.2 22.0899 26.8 21.2899C26.9 21.2899 27 21.39 27 21.39C28.9 22.19 31.4 21.39 32.5 19.59C33.7 17.79 33.3 15.3899 31.7 14.1899C32.6 12.9899 33.5 11.79 34.5 10.59C37.4 10.59 40.3 10.49 43.2 10.39C41.2 12.49 39.2 14.6899 37.1 16.7899C35.1 18.8899 33.2 20.89 31.1 22.89ZM27.3 19.9899C26.1 19.3899 25 17.8899 25.5 16.4899C26 14.9899 28.1 13.99 29.6 14.59C29.5 14.69 29.5 14.79 29.4 14.89C28.9 15.59 30.1 16.29 30.6 15.59C30.7 15.49 30.8 15.3899 30.9 15.1899C33.5 16.7899 30.4 21.4899 27.3 19.9899ZM44.6 8.88996C41.6 9.08996 38.6 9.18994 35.6 9.18994C36.8 7.78994 37.9 6.28996 39.1 4.88996C42.2 4.88996 45.4 4.88995 48.5 4.98995C47.2 6.28995 45.9 7.58996 44.6 8.88996Z" fill="#F89938"/>
<path d="M13.1 12.1899C12.4 11.5899 11.5 12.5899 12.1 13.1899C13.2 14.2899 14.3 15.3899 15.2 16.5899C15.8 17.2899 16.8 16.2899 16.2 15.5899C15.2 14.2899 14.2 13.1899 13.1 12.1899Z" fill="#F89938"/>
<path d="M17.3 16.8901C16.4 16.8901 16.4 18.2901 17.3 18.2901C18.2 18.2901 18.2 16.8901 17.3 16.8901Z" fill="#F89938"/>
</svg>
