<svg width="29" height="59" viewBox="0 0 29 59" fill="none" xmlns="http://www.w3.org/2000/svg">
<path d="M20.856 54.423C16.256 54.423 11.456 54.823 6.95601 54.323C6.05601 54.223 6.05601 55.623 6.95601 55.723C11.456 56.323 16.256 55.923 20.856 55.823C21.756 55.823 21.756 54.423 20.856 54.423Z" fill="#F89938"/>
<path d="M24.156 33.9229C27.456 25.8229 29.456 17.0229 27.056 8.32289C26.956 8.12289 26.856 7.92289 26.656 7.92289C26.556 7.92289 26.456 7.82289 26.356 7.82289C26.256 7.82289 26.056 7.82289 25.956 7.82289C25.956 5.02289 24.156 2.72289 21.256 3.42289C20.256 -0.677114 14.156 -1.27711 12.556 2.62289C10.356 0.922886 6.25604 1.52289 5.25604 4.32289C3.15604 3.92289 1.45603 5.82289 2.05603 7.92289C1.95603 7.92289 1.85604 7.92289 1.75604 7.92289C1.65604 7.92289 1.55602 7.92289 1.45602 8.02289C1.25602 8.12289 1.15603 8.22289 1.05603 8.42289C-1.34397 17.1229 0.656025 25.9229 3.95602 34.0229C5.85602 38.8229 6.15603 42.5229 5.05603 47.6229C4.35603 50.9229 3.25603 54.0229 3.55603 57.4229C3.55603 57.7229 3.75603 58.0229 4.05603 58.1229C7.25603 59.2229 11.056 58.7229 14.456 58.7229C17.556 58.7229 20.956 59.0229 23.956 58.1229C24.256 58.0229 24.456 57.7229 24.456 57.4229C24.756 54.1229 23.756 51.2229 23.056 48.1229C21.856 42.7229 22.156 38.8229 24.156 33.9229ZM2.35605 9.22289C10.156 9.12289 18.056 8.92289 25.856 9.22289C26.456 11.6229 26.756 14.1229 26.756 16.7229C18.356 16.5229 9.95603 17.5229 1.55603 16.8229C1.45603 14.2229 1.75605 11.6229 2.35605 9.22289ZM5.45602 5.72289C5.85602 5.92289 6.35602 5.82289 6.45602 5.32289C7.55602 2.82289 9.45605 2.42289 12.356 4.32289C12.656 4.82289 13.556 4.82289 13.656 4.12289C14.156 0.822886 19.856 -0.0771141 20.056 4.32289C20.056 4.72289 20.456 5.22289 20.956 5.02289C23.456 4.42289 24.256 5.82289 24.556 7.82289C17.656 7.62289 10.556 7.72289 3.65604 7.82289C3.05604 6.02289 4.15602 5.22289 5.45602 5.72289ZM21.356 57.1229C19.056 57.3229 16.756 57.2229 14.556 57.2229C12.156 57.2229 9.65604 57.3229 7.25604 57.2229C4.95604 57.1229 4.85602 56.9229 4.95602 54.9229C5.05602 53.5229 5.35604 52.1229 5.65604 50.8229C6.55604 47.3229 7.65604 43.6229 7.25604 40.0229C6.75604 35.2229 3.75603 30.8229 2.55603 26.1229C1.95603 23.6229 1.55602 20.9229 1.45602 18.3229C9.85602 19.0229 18.156 18.0229 26.556 18.2229C26.456 20.9229 26.056 23.6229 25.456 26.1229C24.256 30.8229 21.356 35.2229 20.756 40.0229C20.356 43.6229 21.456 47.4229 22.356 50.8229C22.756 52.1229 22.956 53.5229 23.056 54.9229C23.256 56.6229 23.456 56.9229 21.356 57.1229Z" fill="#F89938"/>
<path d="M20.9561 32.2228C21.1561 31.5228 21.7561 30.9228 22.0561 30.3228C22.3561 29.7228 22.6561 29.1228 22.8561 28.4228C23.3561 26.9228 23.6561 25.3228 23.9561 23.8228C24.1561 22.9228 22.7561 22.5228 22.6561 23.4228C22.3561 25.0228 22.1561 26.5228 21.5561 28.0228C21.2561 28.8228 20.9561 29.5228 20.5561 30.2228C20.2561 30.7228 19.8561 31.1228 19.6561 31.7228C19.4561 32.7228 20.7561 33.1228 20.9561 32.2228Z" fill="#F89938"/>
<path d="M23.456 21.3229C24.356 21.3229 24.356 19.9229 23.456 19.9229C22.556 19.9229 22.456 21.3229 23.456 21.3229Z" fill="#F89938"/>
</svg>
