<svg width="27" height="52" viewBox="0 0 27 52" fill="none" xmlns="http://www.w3.org/2000/svg">
<path d="M5.21875 10.6876C5.49709 8.92481 5.68265 7.25478 5.96099 5.49198C6.05377 4.65697 4.75485 4.65697 4.66207 5.49198C4.47652 7.06923 4.19818 8.73925 4.01262 10.3165C3.82706 11.1515 5.12597 11.5226 5.21875 10.6876Z" fill="#F89938"/>
<path d="M5.68266 3.72957C6.51767 3.72957 6.51767 2.43066 5.68266 2.43066C4.84764 2.43066 4.84764 3.72957 5.68266 3.72957Z" fill="#F89938"/>
<path d="M14.8678 44.0883C14.9606 40.1915 14.9606 36.2948 14.8678 32.4909C29.9908 31.0992 26.558 10.595 22.8468 0.482094C22.8468 0.203757 22.5685 -0.0745802 22.1974 0.0181988C16.0739 0.389315 9.95052 0.296536 3.8271 0.110978H3.73431C3.64153 0.110978 3.64154 0.110978 3.54876 0.110978C3.3632 0.203757 3.17765 0.296536 3.17765 0.574873C1.69318 7.62608 -1.0902 15.7906 0.765383 23.1202C2.06429 28.1303 6.23935 31.6559 11.1566 32.4909V32.5837C11.2494 36.4804 11.2494 40.3771 11.1566 44.2738C9.1155 44.2738 -0.533527 44.2738 0.023148 48.1705C0.394264 51.2323 8.65161 51.2323 10.7855 51.325C14.1256 51.5106 17.3728 51.325 20.7129 50.7684C22.0118 50.5828 25.723 49.9333 26.0941 48.2633C26.9291 44.3666 17.1873 44.181 14.8678 44.0883ZM4.29099 1.31711C10.1361 1.50266 15.8884 1.59544 21.7335 1.22433C22.9396 4.74993 24.2385 9.66722 24.6096 14.4917C24.5168 14.4917 24.424 14.4917 24.424 14.5845C19.6923 16.8112 15.9812 16.3473 10.9711 15.4195C7.81659 14.7701 4.75488 15.1412 1.69317 16.069C1.97151 11.0589 3.3632 6.14162 4.29099 1.31711ZM1.60039 19.409C1.60039 18.7596 1.60039 18.0173 1.60039 17.3679C3.91987 16.6257 6.33213 16.1618 8.83716 16.3473C10.9711 16.5329 12.9194 17.2751 14.9606 17.5534C18.4862 18.1101 21.5479 17.2751 24.7024 15.7906C24.9807 23.5841 22.754 30.8209 13.8472 31.192C6.70325 31.5631 1.87873 26.1819 1.60039 19.409ZM21.919 49.0056C18.3934 50.0261 14.3111 50.1189 10.6 49.8406C8.28049 49.7478 4.47655 49.8406 2.43541 48.5417C0.208712 47.2428 3.17765 46.315 4.56933 46.0366C6.70325 45.5727 8.83716 45.3872 10.9711 45.3872C10.9711 45.8511 10.9711 46.315 10.9711 46.8716C10.9711 47.7066 12.27 47.7066 12.27 46.8716C12.3628 42.0471 12.3628 37.2226 12.27 32.3981C12.6411 32.3981 13.0122 32.3981 13.4761 32.3981C13.5689 37.2226 13.5689 41.9543 13.4761 46.7789C13.4761 47.6139 14.775 47.6139 14.775 46.7789C14.775 46.2222 14.775 45.7583 14.775 45.2016C17.0017 45.2016 19.1356 45.3872 21.2696 45.8511C21.8262 45.9438 23.4035 46.2222 23.7746 46.6861C24.8879 48.3561 22.754 48.82 21.919 49.0056Z" fill="#F89938"/>
</svg>
