<svg width="37" height="36" viewBox="0 0 37 36" fill="none" xmlns="http://www.w3.org/2000/svg">
<path d="M35.5067 1.44659C35.5067 1.44659 35.4357 1.44659 35.5067 1.44659C35.4357 1.37554 35.4357 1.37554 35.4357 1.37554C34.37 0.238766 31.3859 0.451911 30.036 0.309815C25.9863 0.0256219 21.9365 -0.0454219 17.8868 0.0256262C13.9081 0.0256262 9.9294 0.16772 5.9507 0.522961C4.60079 0.665058 1.33257 0.522959 0.3379 1.73078C-0.088389 2.29916 -0.0173408 3.15174 0.0537074 3.86222C0.124756 5.63843 0.266852 7.48568 0.479996 9.26189C1.04838 14.5905 1.75886 19.8481 2.54039 25.1767C2.89563 27.6634 3.25087 30.079 3.60612 32.5657C3.96136 35.0524 4.67184 35.3366 7.08748 35.5497C11.2083 35.976 15.3291 36.047 19.4499 35.976C21.3682 35.976 23.2865 35.9049 25.2048 35.7629C26.9099 35.6918 29.3255 35.976 30.8886 35.4076C33.2332 34.555 33.3753 30.0079 33.7305 27.9476C34.441 23.7557 34.7252 19.4928 35.1515 15.2299C35.4357 12.459 35.7909 9.75923 35.933 6.98835C35.862 5.49634 36.4304 2.65441 35.5067 1.44659ZM34.7963 6.84625C34.7252 8.62246 34.5831 10.4697 34.37 12.2459C34.0147 15.372 33.7305 18.4981 33.4463 21.6243C33.0911 25.0346 32.949 29.2975 31.5991 32.4946C30.6044 34.6971 29.1835 34.4129 26.981 34.484C25.2048 34.555 23.4996 34.6971 21.7234 34.6971C18.242 34.8392 14.6896 34.8392 11.2083 34.6261C9.64521 34.555 8.08215 34.4129 6.51909 34.2708C4.67184 34.0577 4.60079 33.3472 4.38765 31.7842C4.0324 29.6527 3.74821 27.4502 3.46402 25.3188C2.75354 20.4875 2.1141 15.5852 1.54572 10.7539C1.33257 9.04875 1.19048 7.41463 1.04838 5.70948C0.977333 5.07005 0.551044 3.00965 0.977333 2.37022C1.68782 1.37554 5.16918 1.44659 6.30595 1.37554C9.57416 1.09134 12.8424 1.0203 16.1106 0.949254C20.0182 0.878206 23.9259 0.878204 27.8335 1.09135C29.3255 1.1624 30.8886 1.23344 32.3806 1.44659C32.949 1.51764 34.2279 1.51764 34.7252 1.94392C35.3646 3.08069 34.8673 5.78053 34.7963 6.84625Z" fill="#F89938"/>
<path d="M16.0395 13.5961C13.7659 11.1094 9.7162 12.2462 7.51371 14.3777C6.37694 15.6565 5.59541 16.7933 5.95065 18.4985C6.16379 19.8484 7.01637 22.193 8.01104 23.1166C9.00572 24.0402 11.4214 23.9692 12.6292 23.8981C14.3343 23.8271 15.258 22.7613 16.2526 21.4825C17.0342 20.4878 18.242 18.9958 18.242 17.6459C18.1709 16.1539 16.8921 14.5908 16.0395 13.5961ZM13.9791 13.454C13.4107 14.1645 12.9134 14.875 12.416 15.5855C11.9897 16.1539 11.4214 16.6512 10.9951 17.2196C10.6398 17.1485 10.2846 17.2196 9.85829 17.2196C8.93467 17.2906 8.08209 17.2906 7.15846 17.4327C7.30056 16.5802 7.6558 15.7276 8.22419 15.1592C9.64515 13.6672 12.0608 12.7435 13.9791 13.454ZM10.2135 22.6903C8.15314 22.335 7.08742 20.3457 7.01637 18.3564C8.15314 18.2143 10.4977 17.6459 11.2082 18.6405C12.0608 19.7063 12.345 21.1272 13.1265 22.264C13.1265 22.3351 13.1976 22.335 13.1976 22.335C12.416 22.8324 11.4214 22.9034 10.2135 22.6903ZM16.0395 19.9905C15.4711 20.843 14.8317 21.4825 14.1922 21.9798C14.1922 21.9088 14.1922 21.9088 14.1212 21.8377C13.2686 20.5588 12.9134 18.9247 11.9187 17.788L11.8476 17.7169C12.2739 17.1485 12.8423 16.6512 13.3397 16.0828C13.908 15.3723 14.4054 14.6619 14.9027 13.9514C15.0448 14.0224 15.1869 14.1645 15.329 14.3066C15.9684 14.946 17.0342 16.4381 17.1763 17.3617C17.3184 18.2853 16.5368 19.28 16.0395 19.9905Z" fill="#F89938"/>
<path d="M27.4073 18.6403C24.9916 17.4325 20.9419 17.3615 19.3788 19.9192C18.5973 21.1981 17.6737 23.4006 18.0289 24.9636C18.3131 26.2425 19.8051 27.1661 20.7998 27.8766C22.1497 28.8713 23.4286 29.7239 25.1337 29.2265C26.2705 28.8713 28.473 28.2318 29.2545 27.2372C30.1071 26.1004 30.2492 22.8322 30.036 21.5533C29.7518 20.1324 28.6861 19.3508 27.4073 18.6403ZM26.9099 19.4929C27.8335 19.9903 28.4019 20.5586 28.6861 21.3402C27.7625 21.5533 26.8389 21.8375 25.9152 22.0507C25.56 22.1217 25.1337 22.1927 24.7785 22.3348C24.2101 21.9796 23.5707 21.6954 23.0023 21.2691C22.3628 20.8428 21.7234 20.3455 21.0129 19.8482C22.576 18.5693 25.1337 18.5693 26.9099 19.4929ZM18.9525 24.5373C18.8104 23.6137 19.4499 21.8375 19.8762 21.056C19.9472 20.8428 20.0893 20.7007 20.2314 20.5586C20.2314 20.5586 20.2314 20.6297 20.3024 20.6297C21.0129 21.127 21.7234 21.6244 22.3628 22.1217C22.8602 22.477 23.4996 22.7611 23.9969 23.1164C23.7838 23.7558 23.7838 24.6084 23.6417 25.1768C23.4996 26.0293 23.3575 26.953 23.0733 27.8056C23.0023 27.9477 23.0733 28.0187 23.0733 28.0898C22.5049 27.9477 21.9365 27.6635 21.4392 27.2372C20.7287 26.6688 19.1657 25.6741 18.9525 24.5373ZM28.544 26.4556C28.0467 27.2372 26.2705 27.8766 25.4179 28.1608C24.9206 28.3029 24.4943 28.3029 24.068 28.3029C24.139 28.2318 24.139 28.1608 24.139 28.0898C24.5653 26.7398 24.8495 25.1057 25.0627 23.6848C25.1337 23.1874 24.9916 23.4006 25.4179 23.1874C25.7021 23.0453 26.0573 23.0453 26.4126 22.9743C27.2652 22.7611 28.1177 22.4769 28.9703 22.3348C29.0414 22.619 29.0414 22.9032 29.0414 23.1874C29.1124 23.969 29.0414 25.6741 28.544 26.4556Z" fill="#F89938"/>
<path d="M3.46412 8.69347C3.32203 7.91194 3.17993 7.13041 3.03783 6.34888C2.89574 5.35421 2.46945 4.00429 3.96146 4.07534C4.60089 4.07534 4.60089 3.08067 3.96146 3.08067C0.693244 2.93858 2.18526 7.13042 2.46945 8.97767C2.61154 9.54606 3.60622 9.26186 3.46412 8.69347Z" fill="#F89938"/>
<path d="M5.80868 3.93363C6.44811 3.93363 6.44811 2.93896 5.80868 2.93896C5.16924 2.93896 5.16924 3.93363 5.80868 3.93363Z" fill="#F89938"/>
<path d="M30.0361 10.6116C27.0521 11.0379 24.2812 11.3221 21.2261 10.8248C18.1 10.3275 15.0449 9.47488 11.8477 9.33278C9.92945 9.26174 8.01115 9.47488 6.1639 9.68802C5.31132 9.75907 3.81931 9.68802 3.17987 10.3985C2.39834 11.18 2.82463 12.3168 2.89568 13.2404C3.10883 15.2298 3.25092 17.2191 3.46407 19.2085C3.89036 23.1161 4.81398 27.0238 5.52446 30.9314C5.59551 31.2156 5.73761 31.2867 5.95075 31.2867C5.95075 31.2867 5.95075 31.2867 6.0218 31.2867C14.1213 31.6419 22.3629 31.6419 30.4624 31.3577C30.6755 31.3577 30.8887 31.2156 30.9597 31.0025C32.0254 25.2476 32.5228 19.3506 33.1622 13.5246C33.4464 10.6116 33.0201 10.1854 30.0361 10.6116ZM32.1675 13.5246C31.8833 16.0824 31.5281 18.6401 31.2439 21.1978C31.0308 23.1872 30.8176 25.1055 30.6045 27.0948C30.5334 27.5922 30.3913 30.2209 30.1071 30.363C29.7519 30.5762 28.6862 30.363 28.3309 30.363C21.084 30.292 13.8371 30.5762 6.51914 30.292C5.59551 25.4607 4.74293 20.7005 4.2456 15.7982C4.17455 14.8745 3.67721 13.3115 3.89036 12.4589C4.31664 10.5406 5.59551 10.8248 7.01647 10.6827C9.07687 10.4696 11.1373 10.3275 13.1977 10.5406C16.7501 10.8958 20.1604 11.9616 23.7128 12.1747C25.2759 12.2458 26.7679 12.2458 28.2599 11.9616C29.0414 11.8195 29.894 11.6063 30.6755 11.5353C32.2386 11.5353 32.3096 12.2458 32.1675 13.5246Z" fill="#F89938"/>
</svg>
